<svg width="133" height="133" viewBox="0 0 133 133" fill="none" xmlns="http://www.w3.org/2000/svg">
<g filter="url(#filter0_ddddii)">
<rect x="15" y="15" width="100" height="100" rx="50" fill="#CBE1FD"/>
</g>
<path d="M48.5884 58.3243H45.9668C45.5354 58.3243 45.1855 57.9745 45.1855 57.5431V52.7773H49.3695V57.5431C49.3696 57.9745 49.0198 58.3243 48.5884 58.3243Z" fill="#4F6D8F"/>
<path d="M46.7686 52.7772V57.5429C46.7686 57.9744 46.4187 58.3242 45.9873 58.3242H48.5884C49.0198 58.3242 49.3696 57.9744 49.3696 57.5429V52.7772H46.7686Z" fill="#31456A"/>
<path d="M47.277 54.8215C50.8914 54.8215 53.8215 51.8914 53.8215 48.277C53.8215 44.6625 50.8914 41.7324 47.277 41.7324C43.6625 41.7324 40.7324 44.6625 40.7324 48.277C40.7324 51.8914 43.6625 54.8215 47.277 54.8215Z" fill="#EAF6FF"/>
<path d="M47.2769 41.7324C46.7119 41.7324 46.1637 41.804 45.6406 41.9387C48.4633 42.6652 50.549 45.2275 50.549 48.2771C50.549 51.3266 48.4634 53.8889 45.6406 54.6154C46.1636 54.75 46.7118 54.8217 47.2769 54.8217C50.8913 54.8217 53.8214 51.8916 53.8214 48.2771C53.8215 44.6625 50.8913 41.7324 47.2769 41.7324Z" fill="#D8ECFE"/>
<path d="M47.2773 49.7418C48.0864 49.7418 48.7422 49.086 48.7422 48.277C48.7422 47.468 48.0864 46.8121 47.2773 46.8121C46.4683 46.8121 45.8125 47.468 45.8125 48.277C45.8125 49.086 46.4683 49.7418 47.2773 49.7418Z" fill="#BDD8FC"/>
<path d="M47.2773 46.8121C47.0103 46.8121 46.7605 46.8848 46.5449 47.0097C46.9823 47.2631 47.2773 47.7351 47.2773 48.277C47.2773 48.8189 46.9823 49.2908 46.5449 49.5443C46.7605 49.6692 47.0103 49.7418 47.2773 49.7418C48.0863 49.7418 48.7422 49.086 48.7422 48.277C48.7422 47.468 48.0864 46.8121 47.2773 46.8121Z" fill="#9DC7FB"/>
<path d="M64.5995 74.9929C64.8586 75.0887 65.1418 75.0872 65.3998 74.9884C67.8258 74.0595 72.6504 70.8867 74.8881 67.7758C76.871 65.0193 76.5777 61.2196 74.1902 58.8114C71.8301 56.4309 68.1246 56.3159 65.7667 58.4794C65.3335 58.8769 64.6664 58.8768 64.2332 58.4792C61.8763 56.3162 58.1724 56.4281 55.8096 58.8114C53.4222 61.2196 53.1289 65.0193 55.1117 67.7757C57.4844 71.0743 62.1742 74.0957 64.5995 74.9929Z" fill="#31456A"/>
<path d="M74.1901 58.8114C72.568 57.1752 70.3102 56.6094 68.2914 57.1179C69.3723 57.3848 70.4049 57.9484 71.2604 58.8114C73.6478 61.2196 73.9411 65.0192 71.9583 67.7757C70.0085 70.4863 66.0954 73.2433 63.5156 74.5226C63.9098 74.714 64.2753 74.8729 64.5994 74.9928C64.8585 75.0886 65.1417 75.0871 65.3997 74.9883C67.8258 74.0594 72.6503 70.8866 74.888 67.7756C76.8709 65.0192 76.5775 61.2196 74.1901 58.8114Z" fill="#728099"/>
<path d="M85.118 74.6001V72.8701C85.118 72.4926 84.8119 72.1865 84.4344 72.1865H82.1132C81.7356 72.1865 81.4296 72.4926 81.4296 72.8701V74.6001C81.4296 74.8062 81.3164 74.9981 81.1321 75.0904C78.8798 76.2189 77.2803 79.0751 77.2803 82.4208C77.2803 86.7544 79.9637 90.2676 83.2737 90.2676C86.5838 90.2676 89.2672 86.7544 89.2672 82.4208C89.2672 79.0751 87.6677 76.2189 85.4153 75.0904C85.2312 74.998 85.118 74.8062 85.118 74.6001Z" fill="#4F6D8F"/>
<path d="M85.4151 75.0904C85.2309 74.998 85.1177 74.8062 85.1177 74.6001V72.8701C85.1177 72.4926 84.8116 72.1865 84.4341 72.1865H82.1129C82.0034 72.1865 81.9004 72.2129 81.8086 72.2586C82.0333 72.3706 82.188 72.602 82.188 72.8701V74.6001C82.188 74.8062 82.3012 74.9981 82.4854 75.0904C84.7378 76.2189 86.3373 79.0751 86.3373 82.4208C86.3373 86.0928 84.4105 89.1747 81.8087 90.0306C82.2775 90.1848 82.7681 90.2676 83.2735 90.2676C86.5837 90.2676 89.267 86.7544 89.267 82.4208C89.267 79.0751 87.6675 76.2189 85.4151 75.0904Z" fill="#31456A"/>
<path d="M65 77.4746C64.5955 77.4746 64.2676 77.8025 64.2676 78.207V81.4062C64.2676 85.8886 60.621 89.5352 56.1387 89.5352C53.9678 89.5352 51.9266 88.6895 50.391 87.154C48.8555 85.6185 48.0098 83.5771 48.0098 81.4062V59.0566H48.5879C49.4226 59.0566 50.1016 58.3776 50.1016 57.543V54.9833C52.7152 53.8783 54.554 51.2884 54.554 48.277C54.554 46.7098 54.0634 45.2168 53.1352 43.9593C52.8949 43.6338 52.4364 43.5647 52.1109 43.805C51.7854 44.0452 51.7164 44.5038 51.9566 44.8292C52.6976 45.8329 53.0892 47.0251 53.0892 48.277C53.0892 51.4817 50.4818 54.0892 47.277 54.0892C44.0721 54.0892 41.4648 51.4817 41.4648 48.277C41.4648 45.0722 44.0722 42.4648 47.277 42.4648C48.0824 42.4648 48.8618 42.6263 49.5935 42.9446C49.9646 43.1061 50.3959 42.9361 50.5573 42.5652C50.7187 42.1943 50.5488 41.7628 50.1779 41.6014C49.2606 41.2023 48.2847 41 47.277 41C43.2645 41 40 44.2645 40 48.277C40 51.2883 41.8386 53.8781 44.4521 54.9832V57.543C44.4521 58.3776 45.1312 59.0566 45.9658 59.0566H46.5449V81.4062C46.5449 83.9685 47.543 86.3775 49.3552 88.1897C51.1674 90.002 53.5765 91 56.1387 91C61.4287 91 65.7324 86.6963 65.7324 81.4062V78.207C65.7324 77.8025 65.4045 77.4746 65 77.4746ZM45.9658 57.5918C45.9394 57.5918 45.917 57.5694 45.917 57.543V55.4246C46.3579 55.5083 46.8121 55.554 47.277 55.554C47.7418 55.554 48.1959 55.5084 48.6367 55.4247V57.543C48.6367 57.5699 48.6148 57.5918 48.5879 57.5918H45.9658ZM52.4054 71.1025C52.4054 70.698 52.0774 70.3701 51.6729 70.3701C51.2685 70.3701 50.9405 70.698 50.9405 71.1025C50.9405 74.6565 53.8318 77.5479 57.3858 77.5479C57.7903 77.5479 58.1183 77.2199 58.1183 76.8154C58.1183 76.4109 57.7903 76.083 57.3858 76.083C54.6396 76.083 52.4054 73.8488 52.4054 71.1025ZM47.277 50.4742C47.6157 50.4742 47.9368 50.3971 48.2237 50.2595L48.6774 50.7132C48.9635 50.9992 49.4271 50.9992 49.7132 50.7132C49.9992 50.4271 49.9992 49.9634 49.7132 49.6774L49.2595 49.2237C49.397 48.9369 49.4742 48.6158 49.4742 48.277C49.4742 47.0653 48.4886 46.0797 47.277 46.0797C46.9382 46.0797 46.6171 46.1568 46.3302 46.2944L44.8577 44.822C44.5717 44.5359 44.1079 44.5359 43.822 44.822C43.5359 45.108 43.5359 45.5718 43.822 45.8577L45.2944 47.3302C45.1569 47.617 45.0797 47.9381 45.0797 48.277C45.0797 49.4886 46.0653 50.4742 47.277 50.4742ZM47.277 47.5445C47.6809 47.5445 48.0094 47.873 48.0094 48.277C48.0094 48.6572 47.7844 49.0094 47.277 49.0094C46.873 49.0094 46.5445 48.6809 46.5445 48.277C46.5445 47.873 46.873 47.5445 47.277 47.5445ZM73.9813 52.6976C76.7276 52.6976 78.9618 54.9317 78.9618 57.678C78.9618 58.0825 79.2897 58.4104 79.6942 58.4104C80.0987 58.4104 80.4267 58.0825 80.4267 57.678C80.4267 54.124 77.5354 51.2327 73.9813 51.2327C73.5769 51.2327 73.2489 51.5606 73.2489 51.9651C73.2489 52.3696 73.5769 52.6976 73.9813 52.6976ZM85.8508 74.4904V72.8701C85.8508 72.0894 85.2155 71.4541 84.4348 71.4541H84.0068V50.5938C84.0068 45.3037 79.7031 41 74.4131 41C71.8502 41 69.4408 41.998 67.6286 43.8103C65.8164 45.6224 64.8184 48.0314 64.8184 50.5938V54.7783C64.8184 55.1828 65.1463 55.5107 65.5508 55.5107C65.9553 55.5107 66.2832 55.1828 66.2832 54.7783V50.5938C66.2832 48.4228 67.1289 46.3815 68.6644 44.846C70.2 43.3105 72.2415 42.4648 74.4131 42.4648C78.8953 42.4648 82.542 46.1114 82.542 50.5938V71.4541H82.1136C81.3328 71.4541 80.6976 72.0894 80.6976 72.8701V74.4905C78.7542 75.5143 77.287 77.6626 76.7614 80.2646C76.6814 80.6611 76.9379 81.0476 77.3344 81.1275C77.7307 81.2073 78.1172 80.9511 78.1973 80.5546C78.6439 78.3432 79.8638 76.5452 81.4606 75.7451C81.8936 75.5282 82.1624 75.0895 82.1624 74.5999V72.9189H84.3859V74.6001C84.3859 75.0896 84.6549 75.5285 85.0877 75.7453C87.1497 76.7785 88.5352 79.4612 88.5352 82.4208C88.5352 86.3437 86.1751 89.5352 83.2741 89.5352C80.7334 89.5352 78.5568 87.0821 78.0988 83.7024C78.0444 83.3017 77.6761 83.0205 77.2747 83.075C76.8739 83.1293 76.593 83.4982 76.6473 83.8991C77.2049 88.0137 79.9919 91 83.2741 91C86.9828 91 90 87.1514 90 82.4208C90 78.9147 88.3754 75.8181 85.8508 74.4904ZM76.9082 63.1063C76.7673 61.2917 75.9867 59.5833 74.7104 58.2958C72.0856 55.6483 67.9396 55.4919 65.2715 57.9397C65.1193 58.0795 64.8808 58.0794 64.7285 57.9396C62.0608 55.4914 57.9147 55.6479 55.2896 58.2959C54.0133 59.5834 53.2327 61.2918 53.0918 63.1063C52.951 64.9195 53.4572 66.7298 54.5173 68.2035C56.9734 71.6181 61.8032 74.7395 64.3455 75.6799C64.7708 75.8372 65.2383 75.8347 65.6618 75.6725C68.1711 74.7117 73.1123 71.4991 75.4828 68.2035C76.5428 66.7298 77.049 64.9195 76.9082 63.1063ZM74.2937 67.348C72.1712 70.2986 67.5307 73.3883 65.1379 74.3044C65.0466 74.3395 64.9457 74.3399 64.8537 74.306C62.5469 73.4526 57.9621 70.4838 55.7064 67.348C53.921 64.8658 54.1832 61.4925 56.33 59.3271C57.4217 58.2259 58.8435 57.6681 60.2494 57.6681C61.5077 57.6681 62.7532 58.1148 63.7382 59.0187C64.4458 59.6682 65.5544 59.6682 66.262 59.019C68.3478 57.1054 71.6019 57.2407 73.6702 59.3271C75.8169 61.4926 76.0791 64.8659 74.2937 67.348ZM58.1183 73.8857C58.1183 73.4813 57.7903 73.1533 57.3858 73.1533C56.255 73.1533 55.3351 72.2334 55.3351 71.1025C55.3351 70.698 55.0071 70.3701 54.6026 70.3701C54.1981 70.3701 53.8702 70.698 53.8702 71.1025C53.8702 73.0411 55.4473 74.6182 57.3858 74.6182C57.7903 74.6182 58.1183 74.2902 58.1183 73.8857ZM73.9813 55.6272C75.1122 55.6272 76.0321 56.5472 76.0321 57.678C76.0321 58.0825 76.3601 58.4104 76.7645 58.4104C77.169 58.4104 77.497 58.0825 77.497 57.678C77.497 55.7395 75.9199 54.1624 73.9813 54.1624C73.5769 54.1624 73.2489 54.4903 73.2489 54.8948C73.2489 55.2993 73.5769 55.6272 73.9813 55.6272Z" fill="#31456A"/>
<defs>
<filter id="filter0_ddddii" x="0" y="0" width="133" height="133" filterUnits="userSpaceOnUse" color-interpolation-filters="sRGB">
<feFlood flood-opacity="0" result="BackgroundImageFix"/>
<feColorMatrix in="SourceAlpha" type="matrix" values="0 0 0 0 0 0 0 0 0 0 0 0 0 0 0 0 0 0 127 0"/>
<feOffset dx="5" dy="5"/>
<feGaussianBlur stdDeviation="6.5"/>
<feColorMatrix type="matrix" values="0 0 0 0 0.717647 0 0 0 0 0.796078 0 0 0 0 0.894118 0 0 0 0.9 0"/>
<feBlend mode="normal" in2="BackgroundImageFix" result="effect1_dropShadow"/>
<feColorMatrix in="SourceAlpha" type="matrix" values="0 0 0 0 0 0 0 0 0 0 0 0 0 0 0 0 0 0 127 0"/>
<feOffset dx="-5" dy="-5"/>
<feGaussianBlur stdDeviation="5"/>
<feColorMatrix type="matrix" values="0 0 0 0 0.87451 0 0 0 0 0.972549 0 0 0 0 1 0 0 0 0.9 0"/>
<feBlend mode="normal" in2="effect1_dropShadow" result="effect2_dropShadow"/>
<feColorMatrix in="SourceAlpha" type="matrix" values="0 0 0 0 0 0 0 0 0 0 0 0 0 0 0 0 0 0 127 0"/>
<feOffset dx="5" dy="-5"/>
<feGaussianBlur stdDeviation="5"/>
<feColorMatrix type="matrix" values="0 0 0 0 0.717647 0 0 0 0 0.796078 0 0 0 0 0.894118 0 0 0 0.2 0"/>
<feBlend mode="normal" in2="effect2_dropShadow" result="effect3_dropShadow"/>
<feColorMatrix in="SourceAlpha" type="matrix" values="0 0 0 0 0 0 0 0 0 0 0 0 0 0 0 0 0 0 127 0"/>
<feOffset dx="-5" dy="5"/>
<feGaussianBlur stdDeviation="5"/>
<feColorMatrix type="matrix" values="0 0 0 0 0.717647 0 0 0 0 0.796078 0 0 0 0 0.894118 0 0 0 0.2 0"/>
<feBlend mode="normal" in2="effect3_dropShadow" result="effect4_dropShadow"/>
<feBlend mode="normal" in="SourceGraphic" in2="effect4_dropShadow" result="shape"/>
<feColorMatrix in="SourceAlpha" type="matrix" values="0 0 0 0 0 0 0 0 0 0 0 0 0 0 0 0 0 0 127 0" result="hardAlpha"/>
<feOffset dx="-1" dy="-1"/>
<feGaussianBlur stdDeviation="1"/>
<feComposite in2="hardAlpha" operator="arithmetic" k2="-1" k3="1"/>
<feColorMatrix type="matrix" values="0 0 0 0 0.717647 0 0 0 0 0.796078 0 0 0 0 0.894118 0 0 0 0.5 0"/>
<feBlend mode="normal" in2="shape" result="effect5_innerShadow"/>
<feColorMatrix in="SourceAlpha" type="matrix" values="0 0 0 0 0 0 0 0 0 0 0 0 0 0 0 0 0 0 127 0" result="hardAlpha"/>
<feOffset dx="1" dy="1"/>
<feGaussianBlur stdDeviation="1"/>
<feComposite in2="hardAlpha" operator="arithmetic" k2="-1" k3="1"/>
<feColorMatrix type="matrix" values="0 0 0 0 0.87451 0 0 0 0 0.972549 0 0 0 0 1 0 0 0 0.3 0"/>
<feBlend mode="normal" in2="effect5_innerShadow" result="effect6_innerShadow"/>
</filter>
</defs>
</svg>
