<svg width="24" height="24" viewBox="0 0 24 24" fill="none" xmlns="http://www.w3.org/2000/svg">
<path d="M20.4873 17.14L16.4223 13.444C16.2301 13.2693 15.9776 13.1762 15.7181 13.1842C15.4585 13.1922 15.2123 13.3008 15.0313 13.487L12.6383 15.948C12.0623 15.838 10.9043 15.477 9.71228 14.288C8.52028 13.095 8.15928 11.934 8.05228 11.362L10.5113 8.968C10.6977 8.78712 10.8064 8.54082 10.8144 8.2812C10.8225 8.02159 10.7292 7.76904 10.5543 7.57699L6.85928 3.51299C6.68432 3.32035 6.44116 3.2035 6.18143 3.18725C5.92171 3.17101 5.66588 3.25665 5.46828 3.42599L3.29828 5.28699C3.12539 5.46051 3.0222 5.69145 3.00828 5.93599C2.99328 6.18599 2.70728 12.108 7.29928 16.702C11.3053 20.707 16.3233 21 17.7053 21C17.9073 21 18.0313 20.994 18.0643 20.992C18.3088 20.9783 18.5396 20.8747 18.7123 20.701L20.5723 18.53C20.7423 18.333 20.8286 18.0774 20.8127 17.8177C20.7968 17.558 20.68 17.3148 20.4873 17.14Z" fill="#31456A"/>
</svg>
