<svg width="768" height="323" viewBox="0 0 768 323" fill="none" xmlns="http://www.w3.org/2000/svg">
<path d="M0 20C0 8.95431 8.95431 0 20 0H160C171.046 0 180 8.9543 180 20V101C180 112.046 171.046 121 160 121H20C8.9543 121 0 112.046 0 101V20Z" fill="url(#paint0_linear_479_145)"/>
<path d="M41.3613 42.3174V55H43.3301V50.667H46.0547C48.542 50.667 50.291 48.9619 50.291 46.4834C50.291 44.0137 48.5771 42.3174 46.1162 42.3174H41.3613ZM43.3301 43.9785H45.5977C47.3027 43.9785 48.2783 44.8926 48.2783 46.4922C48.2783 48.0918 47.3027 49.0146 45.5889 49.0146H43.3301V43.9785ZM55.248 47.1162C56.5752 47.1162 57.4717 48.1094 57.5156 49.5244H52.8926C52.9893 48.127 53.9209 47.1162 55.248 47.1162ZM57.5068 52.2842C57.252 53.0928 56.4521 53.6377 55.3711 53.6377C53.8506 53.6377 52.8838 52.5742 52.8838 50.9658V50.8516H59.4141V50.2012C59.4141 47.3975 57.8145 45.5869 55.248 45.5869C52.6377 45.5869 50.9678 47.5205 50.9678 50.4209C50.9678 53.3389 52.6113 55.1758 55.3271 55.1758C57.4453 55.1758 59.0449 53.9717 59.3086 52.2842H57.5068ZM60.8906 55H62.7891V49.4629C62.7891 48.1533 63.5449 47.3359 64.7666 47.3359C65.1357 47.3359 65.4697 47.3799 65.6191 47.4414V45.6748C65.4785 45.6484 65.2412 45.6045 64.9688 45.6045C63.8789 45.6045 63.0527 46.2461 62.7451 47.3271H62.7012V45.7539H60.8906V55ZM67.3506 55H69.2578V47.2568H71.1035V45.7715H69.2314V44.9014C69.2314 44.084 69.6182 43.6709 70.4443 43.6709C70.6992 43.6709 70.9541 43.6885 71.1387 43.7236V42.3174C70.8926 42.2734 70.4619 42.2295 70.0752 42.2295C68.1943 42.2295 67.3506 43.0732 67.3506 44.8662V45.7715H66.0762V47.2568H67.3506V55ZM76.1836 55.1758C78.8291 55.1758 80.5693 53.3564 80.5693 50.377C80.5693 47.4062 78.8203 45.5869 76.1836 45.5869C73.5469 45.5869 71.7979 47.4062 71.7979 50.377C71.7979 53.3564 73.5381 55.1758 76.1836 55.1758ZM76.1836 53.6113C74.6982 53.6113 73.7314 52.4336 73.7314 50.377C73.7314 48.3291 74.6982 47.1514 76.1836 47.1514C77.6689 47.1514 78.6357 48.3291 78.6357 50.377C78.6357 52.4336 77.6777 53.6113 76.1836 53.6113ZM82.0371 55H83.9355V49.4629C83.9355 48.1533 84.6914 47.3359 85.9131 47.3359C86.2822 47.3359 86.6162 47.3799 86.7656 47.4414V45.6748C86.625 45.6484 86.3877 45.6045 86.1152 45.6045C85.0254 45.6045 84.1992 46.2461 83.8916 47.3271H83.8477V45.7539H82.0371V55ZM87.9434 55H89.8418V49.2871C89.8418 48.1006 90.6416 47.2217 91.7666 47.2217C92.8389 47.2217 93.5156 47.8984 93.5156 48.9619V55H95.3789V49.2256C95.3789 48.0566 96.1611 47.2217 97.2861 47.2217C98.4111 47.2217 99.0527 47.9072 99.0527 49.1025V55H100.96V48.6455C100.96 46.8086 99.7646 45.5957 97.9365 45.5957C96.6182 45.5957 95.5283 46.2812 95.0537 47.4062H95.0098C94.6406 46.2549 93.709 45.5957 92.4258 45.5957C91.1777 45.5957 90.2109 46.2812 89.7979 47.3096H89.7539V45.7539H87.9434V55ZM106.031 53.6553C105.012 53.6553 104.344 53.1279 104.344 52.3193C104.344 51.5283 104.985 51.0273 106.119 50.9482L108.396 50.8076V51.5371C108.396 52.7412 107.358 53.6553 106.031 53.6553ZM105.504 55.1582C106.717 55.1582 107.886 54.5078 108.422 53.4795H108.466V55H110.285V48.6279C110.285 46.7734 108.853 45.5869 106.611 45.5869C104.326 45.5869 102.902 46.8174 102.797 48.4873H104.59C104.757 47.6611 105.442 47.1338 106.541 47.1338C107.701 47.1338 108.396 47.749 108.396 48.7773V49.4893L105.864 49.6387C103.667 49.7617 102.428 50.7549 102.428 52.3721C102.428 54.0332 103.693 55.1582 105.504 55.1582ZM112.131 55H114.029V49.6123C114.029 48.1797 114.891 47.2305 116.227 47.2305C117.545 47.2305 118.195 47.9951 118.195 49.3838V55H120.103V49.0146C120.103 46.8965 118.934 45.5957 116.895 45.5957C115.471 45.5957 114.486 46.2461 113.985 47.3008H113.941V45.7539H112.131V55ZM129.876 48.9355C129.709 47.1162 128.259 45.5869 125.877 45.5869C123.249 45.5869 121.526 47.4414 121.526 50.377C121.526 53.3652 123.249 55.1758 125.895 55.1758C128.118 55.1758 129.691 53.8398 129.894 51.8711H128.065C127.846 52.9434 127.081 53.585 125.912 53.585C124.436 53.585 123.46 52.4072 123.46 50.377C123.46 48.3906 124.427 47.1689 125.895 47.1689C127.134 47.1689 127.872 47.9512 128.065 48.9355H129.876ZM135.105 47.1162C136.433 47.1162 137.329 48.1094 137.373 49.5244H132.75C132.847 48.127 133.778 47.1162 135.105 47.1162ZM137.364 52.2842C137.109 53.0928 136.31 53.6377 135.229 53.6377C133.708 53.6377 132.741 52.5742 132.741 50.9658V50.8516H139.271V50.2012C139.271 47.3975 137.672 45.5869 135.105 45.5869C132.495 45.5869 130.825 47.5205 130.825 50.4209C130.825 53.3389 132.469 55.1758 135.185 55.1758C137.303 55.1758 138.902 53.9717 139.166 52.2842H137.364ZM44.209 78H46.1074V72.2871C46.1074 71.1006 46.9072 70.2217 48.0322 70.2217C49.1045 70.2217 49.7812 70.8984 49.7812 71.9619V78H51.6445V72.2256C51.6445 71.0566 52.4268 70.2217 53.5518 70.2217C54.6768 70.2217 55.3184 70.9072 55.3184 72.1025V78H57.2256V71.6455C57.2256 69.8086 56.0303 68.5957 54.2021 68.5957C52.8838 68.5957 51.7939 69.2812 51.3193 70.4062H51.2754C50.9062 69.2549 49.9746 68.5957 48.6914 68.5957C47.4434 68.5957 46.4766 69.2812 46.0635 70.3096H46.0195V68.7539H44.209V78ZM62.2969 76.6553C61.2773 76.6553 60.6094 76.1279 60.6094 75.3193C60.6094 74.5283 61.251 74.0273 62.3848 73.9482L64.6611 73.8076V74.5371C64.6611 75.7412 63.624 76.6553 62.2969 76.6553ZM61.7695 78.1582C62.9824 78.1582 64.1514 77.5078 64.6875 76.4795H64.7314V78H66.5508V71.6279C66.5508 69.7734 65.1182 68.5869 62.877 68.5869C60.5918 68.5869 59.168 69.8174 59.0625 71.4873H60.8555C61.0225 70.6611 61.708 70.1338 62.8066 70.1338C63.9668 70.1338 64.6611 70.749 64.6611 71.7773V72.4893L62.1299 72.6387C59.9326 72.7617 58.6934 73.7549 58.6934 75.3721C58.6934 77.0332 59.959 78.1582 61.7695 78.1582ZM68.3965 78H70.2949V72.6123C70.2949 71.1797 71.1562 70.2305 72.4922 70.2305C73.8105 70.2305 74.4609 70.9951 74.4609 72.3838V78H76.3682V72.0146C76.3682 69.8965 75.1992 68.5957 73.1602 68.5957C71.7363 68.5957 70.752 69.2461 70.251 70.3008H70.207V68.7539H68.3965V78ZM81.4395 76.6553C80.4199 76.6553 79.752 76.1279 79.752 75.3193C79.752 74.5283 80.3936 74.0273 81.5273 73.9482L83.8037 73.8076V74.5371C83.8037 75.7412 82.7666 76.6553 81.4395 76.6553ZM80.9121 78.1582C82.125 78.1582 83.2939 77.5078 83.8301 76.4795H83.874V78H85.6934V71.6279C85.6934 69.7734 84.2607 68.5869 82.0195 68.5869C79.7344 68.5869 78.3105 69.8174 78.2051 71.4873H79.998C80.165 70.6611 80.8506 70.1338 81.9492 70.1338C83.1094 70.1338 83.8037 70.749 83.8037 71.7773V72.4893L81.2725 72.6387C79.0752 72.7617 77.8359 73.7549 77.8359 75.3721C77.8359 77.0332 79.1016 78.1582 80.9121 78.1582ZM91.4766 76.4619C90.0176 76.4619 89.0684 75.2842 89.0684 73.3506C89.0684 71.4258 90.0176 70.2041 91.4766 70.2041C92.9619 70.2041 93.9375 71.4521 93.9375 73.3506C93.9375 75.2578 92.9619 76.4619 91.4766 76.4619ZM91.4941 81.4805C94.1309 81.4805 95.8359 80.0391 95.8359 77.833V68.7539H93.9902V70.3359H93.9551C93.3926 69.2637 92.3203 68.6045 91.0107 68.6045C88.6377 68.6045 87.126 70.4326 87.126 73.3418C87.126 76.2246 88.6465 78.0352 90.9668 78.0352C92.2852 78.0352 93.375 77.376 93.8936 76.374H93.9287V77.8945C93.9287 79.1602 93.0498 80.0039 91.5645 80.0039C90.4834 80.0039 89.6396 79.4941 89.3672 78.7207H87.46C87.6973 80.3203 89.3145 81.4805 91.4941 81.4805ZM97.7168 78H99.6152V72.2871C99.6152 71.1006 100.415 70.2217 101.54 70.2217C102.612 70.2217 103.289 70.8984 103.289 71.9619V78H105.152V72.2256C105.152 71.0566 105.935 70.2217 107.06 70.2217C108.185 70.2217 108.826 70.9072 108.826 72.1025V78H110.733V71.6455C110.733 69.8086 109.538 68.5957 107.71 68.5957C106.392 68.5957 105.302 69.2812 104.827 70.4062H104.783C104.414 69.2549 103.482 68.5957 102.199 68.5957C100.951 68.5957 99.9844 69.2812 99.5713 70.3096H99.5273V68.7539H97.7168V78ZM116.438 70.1162C117.765 70.1162 118.661 71.1094 118.705 72.5244H114.082C114.179 71.127 115.11 70.1162 116.438 70.1162ZM118.696 75.2842C118.441 76.0928 117.642 76.6377 116.561 76.6377C115.04 76.6377 114.073 75.5742 114.073 73.9658V73.8516H120.604V73.2012C120.604 70.3975 119.004 68.5869 116.438 68.5869C113.827 68.5869 112.157 70.5205 112.157 73.4209C112.157 76.3389 113.801 78.1758 116.517 78.1758C118.635 78.1758 120.234 76.9717 120.498 75.2842H118.696ZM122.08 78H123.979V72.6123C123.979 71.1797 124.84 70.2305 126.176 70.2305C127.494 70.2305 128.145 70.9951 128.145 72.3838V78H130.052V72.0146C130.052 69.8965 128.883 68.5957 126.844 68.5957C125.42 68.5957 124.436 69.2461 123.935 70.3008H123.891V68.7539H122.08V78ZM132.442 66.5654V68.7539H131.098V70.2568H132.442V75.5654C132.442 77.3496 133.172 78.0615 135.044 78.0615C135.466 78.0615 135.888 78.0264 136.099 77.9736V76.4707C135.976 76.4971 135.668 76.5146 135.475 76.5146C134.701 76.5146 134.35 76.1543 134.35 75.3545V70.2568H136.107V68.7539H134.35V66.5654H132.442Z" fill="white"/>
<rect x="294" width="180" height="121" rx="20" fill="url(#paint1_linear_479_145)"/>
<path d="M321.413 67H326.045C329.842 67 332.074 64.6445 332.074 60.6279V60.6104C332.074 56.6025 329.824 54.3174 326.045 54.3174H321.413V67ZM323.681 65.084V56.2334H325.808C328.33 56.2334 329.763 57.7891 329.763 60.6191V60.6367C329.763 63.5283 328.356 65.084 325.808 65.084H323.681ZM336.372 67.1582C337.603 67.1582 338.64 66.543 339.176 65.5674H339.229V67H341.417V60.5928C341.417 58.7207 339.914 57.4902 337.585 57.4902C335.221 57.4902 333.788 58.7295 333.656 60.3818L333.647 60.4873H335.678L335.695 60.4082C335.836 59.7227 336.469 59.2393 337.506 59.2393C338.613 59.2393 339.229 59.8105 339.229 60.751V61.3926L336.794 61.542C334.535 61.6826 333.252 62.6758 333.252 64.3281V64.3457C333.252 66.0068 334.509 67.1582 336.372 67.1582ZM335.432 64.2578V64.249C335.432 63.5107 336.021 63.0449 337.102 62.9746L339.229 62.8428V63.5459C339.229 64.6533 338.279 65.4883 337.022 65.4883C336.064 65.4883 335.432 65.0225 335.432 64.2578ZM346.646 67.1846C347.086 67.1846 347.473 67.1406 347.728 67.1055V65.4619C347.578 65.4707 347.411 65.4971 347.2 65.4971C346.4 65.4971 345.996 65.207 345.996 64.293V59.3711H347.728V57.6836H345.996V55.3193H343.772V57.6836H342.454V59.3711H343.772V64.4775C343.772 66.3936 344.695 67.1846 346.646 67.1846ZM351.858 67.1582C353.089 67.1582 354.126 66.543 354.662 65.5674H354.715V67H356.903V60.5928C356.903 58.7207 355.4 57.4902 353.071 57.4902C350.707 57.4902 349.274 58.7295 349.143 60.3818L349.134 60.4873H351.164L351.182 60.4082C351.322 59.7227 351.955 59.2393 352.992 59.2393C354.1 59.2393 354.715 59.8105 354.715 60.751V61.3926L352.28 61.542C350.021 61.6826 348.738 62.6758 348.738 64.3281V64.3457C348.738 66.0068 349.995 67.1582 351.858 67.1582ZM350.918 64.2578V64.249C350.918 63.5107 351.507 63.0449 352.588 62.9746L354.715 62.8428V63.5459C354.715 64.6533 353.766 65.4883 352.509 65.4883C351.551 65.4883 350.918 65.0225 350.918 64.2578ZM362.493 67H364.761V54.3174H362.493V67ZM366.773 67H368.962V61.5947C368.962 60.25 369.762 59.3359 371.019 59.3359C372.267 59.3359 372.882 60.083 372.882 61.4102V67H375.07V60.9707C375.07 58.8086 373.901 57.4902 371.854 57.4902C370.438 57.4902 369.489 58.1406 369.006 59.1426H368.962V57.6836H366.773V67ZM380.291 67.1846C380.73 67.1846 381.117 67.1406 381.372 67.1055V65.4619C381.223 65.4707 381.056 65.4971 380.845 65.4971C380.045 65.4971 379.641 65.207 379.641 64.293V59.3711H381.372V57.6836H379.641V55.3193H377.417V57.6836H376.099V59.3711H377.417V64.4775C377.417 66.3936 378.34 67.1846 380.291 67.1846ZM386.795 67.1846C389.229 67.1846 390.601 65.7432 390.891 64.3105L390.917 64.2139H388.869L388.852 64.2754C388.641 64.8994 387.929 65.4795 386.839 65.4795C385.415 65.4795 384.519 64.5127 384.483 62.8779H391.005V62.1748C391.005 59.3623 389.353 57.4902 386.689 57.4902C384.026 57.4902 382.312 59.4238 382.312 62.3594V62.3682C382.312 65.3301 384 67.1846 386.795 67.1846ZM386.716 59.2041C387.876 59.2041 388.72 59.9424 388.878 61.4189H384.51C384.686 59.9863 385.556 59.2041 386.716 59.2041ZM396.621 70.2607C399.319 70.2607 401.016 68.8457 401.016 66.7363V57.6836H398.827V59.2656H398.774C398.247 58.1934 397.228 57.4902 395.909 57.4902C393.554 57.4902 392.033 59.3008 392.033 62.2451V62.2539C392.033 65.1543 393.536 66.9473 395.874 66.9473C397.21 66.9473 398.265 66.3145 398.783 65.3213H398.827V66.666C398.827 67.8525 398.045 68.6084 396.621 68.6084C395.479 68.6084 394.731 68.2041 394.494 67.668L394.468 67.5977H392.314L392.332 67.6768C392.596 69.1357 394.151 70.2607 396.621 70.2607ZM396.56 65.2598C395.153 65.2598 394.266 64.126 394.266 62.2891V62.2803C394.266 60.4697 395.153 59.3359 396.56 59.3359C397.913 59.3359 398.836 60.4873 398.836 62.2891V62.2979C398.836 64.1084 397.922 65.2598 396.56 65.2598ZM402.809 67H404.997V61.5947C404.997 60.2148 405.744 59.4326 406.983 59.4326C407.353 59.4326 407.687 59.4854 407.871 59.5557V57.5781C407.704 57.5342 407.449 57.4902 407.177 57.4902C406.104 57.4902 405.331 58.167 405.041 59.292H404.997V57.6836H402.809V67ZM411.536 67.1582C412.767 67.1582 413.804 66.543 414.34 65.5674H414.393V67H416.581V60.5928C416.581 58.7207 415.078 57.4902 412.749 57.4902C410.385 57.4902 408.952 58.7295 408.82 60.3818L408.812 60.4873H410.842L410.859 60.4082C411 59.7227 411.633 59.2393 412.67 59.2393C413.777 59.2393 414.393 59.8105 414.393 60.751V61.3926L411.958 61.542C409.699 61.6826 408.416 62.6758 408.416 64.3281V64.3457C408.416 66.0068 409.673 67.1582 411.536 67.1582ZM410.596 64.2578V64.249C410.596 63.5107 411.185 63.0449 412.266 62.9746L414.393 62.8428V63.5459C414.393 64.6533 413.443 65.4883 412.187 65.4883C411.229 65.4883 410.596 65.0225 410.596 64.2578ZM421.811 67.1846C422.25 67.1846 422.637 67.1406 422.892 67.1055V65.4619C422.742 65.4707 422.575 65.4971 422.364 65.4971C421.564 65.4971 421.16 65.207 421.16 64.293V59.3711H422.892V57.6836H421.16V55.3193H418.937V57.6836H417.618V59.3711H418.937V64.4775C418.937 66.3936 419.859 67.1846 421.811 67.1846ZM425.555 56.3477C426.24 56.3477 426.768 55.8027 426.768 55.1523C426.768 54.4844 426.24 53.9482 425.555 53.9482C424.869 53.9482 424.333 54.4844 424.333 55.1523C424.333 55.8027 424.869 56.3477 425.555 56.3477ZM424.456 67H426.645V57.6836H424.456V67ZM432.63 67.1846C435.363 67.1846 437.139 65.3652 437.139 62.3418V62.3242C437.139 59.3184 435.337 57.4902 432.621 57.4902C429.914 57.4902 428.121 59.3359 428.121 62.3242V62.3418C428.121 65.3564 429.888 67.1846 432.63 67.1846ZM432.639 65.418C431.241 65.418 430.354 64.3018 430.354 62.3418V62.3242C430.354 60.3906 431.259 59.2656 432.621 59.2656C434.01 59.2656 434.906 60.3818 434.906 62.3242V62.3418C434.906 64.293 434.019 65.418 432.639 65.418ZM438.545 67H440.733V61.5947C440.733 60.25 441.533 59.3359 442.79 59.3359C444.038 59.3359 444.653 60.083 444.653 61.4102V67H446.842V60.9707C446.842 58.8086 445.673 57.4902 443.625 57.4902C442.21 57.4902 441.261 58.1406 440.777 59.1426H440.733V57.6836H438.545V67Z" fill="white"/>
<rect x="588" width="180" height="121" rx="20" fill="url(#paint2_linear_479_145)"/>
<path d="M654.255 55H656.522V50.8076H659.142C661.708 50.8076 663.457 49.1025 663.457 46.5713V46.5537C663.457 44.0137 661.708 42.3174 659.142 42.3174H654.255V55ZM658.579 44.1719C660.205 44.1719 661.154 45.042 661.154 46.5625V46.5801C661.154 48.1006 660.205 48.9795 658.579 48.9795H656.522V44.1719H658.579ZM666.964 55.1582C668.194 55.1582 669.231 54.543 669.768 53.5674H669.82V55H672.009V48.5928C672.009 46.7207 670.506 45.4902 668.177 45.4902C665.812 45.4902 664.38 46.7295 664.248 48.3818L664.239 48.4873H666.27L666.287 48.4082C666.428 47.7227 667.061 47.2393 668.098 47.2393C669.205 47.2393 669.82 47.8105 669.82 48.751V49.3926L667.386 49.542C665.127 49.6826 663.844 50.6758 663.844 52.3281V52.3457C663.844 54.0068 665.101 55.1582 666.964 55.1582ZM666.023 52.2578V52.249C666.023 51.5107 666.612 51.0449 667.693 50.9746L669.82 50.8428V51.5459C669.82 52.6533 668.871 53.4883 667.614 53.4883C666.656 53.4883 666.023 53.0225 666.023 52.2578ZM677.238 55.1846C677.678 55.1846 678.064 55.1406 678.319 55.1055V53.4619C678.17 53.4707 678.003 53.4971 677.792 53.4971C676.992 53.4971 676.588 53.207 676.588 52.293V47.3711H678.319V45.6836H676.588V43.3193H674.364V45.6836H673.046V47.3711H674.364V52.4775C674.364 54.3936 675.287 55.1846 677.238 55.1846ZM680.982 44.3477C681.668 44.3477 682.195 43.8027 682.195 43.1523C682.195 42.4844 681.668 41.9482 680.982 41.9482C680.297 41.9482 679.761 42.4844 679.761 43.1523C679.761 43.8027 680.297 44.3477 680.982 44.3477ZM679.884 55H682.072V45.6836H679.884V55ZM688.031 55.1846C690.466 55.1846 691.837 53.7432 692.127 52.3105L692.153 52.2139H690.105L690.088 52.2754C689.877 52.8994 689.165 53.4795 688.075 53.4795C686.651 53.4795 685.755 52.5127 685.72 50.8779H692.241V50.1748C692.241 47.3623 690.589 45.4902 687.926 45.4902C685.263 45.4902 683.549 47.4238 683.549 50.3594V50.3682C683.549 53.3301 685.236 55.1846 688.031 55.1846ZM687.952 47.2041C689.112 47.2041 689.956 47.9424 690.114 49.4189H685.746C685.922 47.9863 686.792 47.2041 687.952 47.2041ZM693.656 55H695.845V49.5947C695.845 48.25 696.645 47.3359 697.901 47.3359C699.149 47.3359 699.765 48.083 699.765 49.4102V55H701.953V48.9707C701.953 46.8086 700.784 45.4902 698.736 45.4902C697.321 45.4902 696.372 46.1406 695.889 47.1426H695.845V45.6836H693.656V55ZM707.174 55.1846C707.613 55.1846 708 55.1406 708.255 55.1055V53.4619C708.105 53.4707 707.938 53.4971 707.728 53.4971C706.928 53.4971 706.523 53.207 706.523 52.293V47.3711H708.255V45.6836H706.523V43.3193H704.3V45.6836H702.981V47.3711H704.3V52.4775C704.3 54.3936 705.223 55.1846 707.174 55.1846ZM635.385 78.2197C638.479 78.2197 640.342 76.7168 640.342 74.3525V74.3438C640.342 72.3662 639.19 71.2939 636.554 70.749L635.183 70.4678C633.653 70.1514 632.959 69.624 632.959 68.7275V68.7188C632.959 67.708 633.882 67.0137 635.367 67.0049C636.791 67.0049 637.767 67.6641 637.916 68.7715L637.934 68.877H640.104L640.096 68.7275C639.964 66.5566 638.153 65.0977 635.385 65.0977C632.651 65.0977 630.691 66.6094 630.683 68.8418V68.8506C630.683 70.7402 631.913 71.9004 634.409 72.4189L635.771 72.7002C637.406 73.043 638.065 73.5527 638.065 74.502V74.5107C638.065 75.6006 637.063 76.3125 635.464 76.3125C633.873 76.3125 632.757 75.6357 632.59 74.5459L632.572 74.4404H630.401L630.41 74.5723C630.56 76.8486 632.476 78.2197 635.385 78.2197ZM645.281 78.1846C645.721 78.1846 646.107 78.1406 646.362 78.1055V76.4619C646.213 76.4707 646.046 76.4971 645.835 76.4971C645.035 76.4971 644.631 76.207 644.631 75.293V70.3711H646.362V68.6836H644.631V66.3193H642.407V68.6836H641.089V70.3711H642.407V75.4775C642.407 77.3936 643.33 78.1846 645.281 78.1846ZM647.865 78H650.054V72.5947C650.054 71.2148 650.801 70.4326 652.04 70.4326C652.409 70.4326 652.743 70.4854 652.928 70.5557V68.5781C652.761 68.5342 652.506 68.4902 652.233 68.4902C651.161 68.4902 650.388 69.167 650.098 70.292H650.054V68.6836H647.865V78ZM656.593 78.1582C657.823 78.1582 658.86 77.543 659.396 76.5674H659.449V78H661.638V71.5928C661.638 69.7207 660.135 68.4902 657.806 68.4902C655.441 68.4902 654.009 69.7295 653.877 71.3818L653.868 71.4873H655.898L655.916 71.4082C656.057 70.7227 656.689 70.2393 657.727 70.2393C658.834 70.2393 659.449 70.8105 659.449 71.751V72.3926L657.015 72.542C654.756 72.6826 653.473 73.6758 653.473 75.3281V75.3457C653.473 77.0068 654.729 78.1582 656.593 78.1582ZM655.652 75.2578V75.249C655.652 74.5107 656.241 74.0449 657.322 73.9746L659.449 73.8428V74.5459C659.449 75.6533 658.5 76.4883 657.243 76.4883C656.285 76.4883 655.652 76.0225 655.652 75.2578ZM666.867 78.1846C667.307 78.1846 667.693 78.1406 667.948 78.1055V76.4619C667.799 76.4707 667.632 76.4971 667.421 76.4971C666.621 76.4971 666.217 76.207 666.217 75.293V70.3711H667.948V68.6836H666.217V66.3193H663.993V68.6836H662.675V70.3711H663.993V75.4775C663.993 77.3936 664.916 78.1846 666.867 78.1846ZM670.611 67.3477C671.297 67.3477 671.824 66.8027 671.824 66.1523C671.824 65.4844 671.297 64.9482 670.611 64.9482C669.926 64.9482 669.39 65.4844 669.39 66.1523C669.39 66.8027 669.926 67.3477 670.611 67.3477ZM669.513 78H671.701V68.6836H669.513V78ZM674.171 78H676.359V70.3711H678.188V68.6836H676.315V67.8574C676.315 67.1016 676.711 66.7061 677.563 66.7061C677.801 66.7061 678.047 66.7236 678.223 66.75V65.2207C677.95 65.168 677.484 65.1328 677.054 65.1328C675.032 65.1328 674.171 65.9766 674.171 67.7959V68.6836H672.896V70.3711H674.171V78ZM680.789 67.3477C681.475 67.3477 682.002 66.8027 682.002 66.1523C682.002 65.4844 681.475 64.9482 680.789 64.9482C680.104 64.9482 679.567 65.4844 679.567 66.1523C679.567 66.8027 680.104 67.3477 680.789 67.3477ZM679.69 78H681.879V68.6836H679.69V78ZM687.855 78.1846C690.211 78.1846 691.784 76.708 691.951 74.7656L691.96 74.7041H689.895L689.877 74.7832C689.675 75.7588 688.972 76.418 687.864 76.418C686.484 76.418 685.588 75.293 685.588 73.3506V73.3418C685.588 71.4346 686.476 70.2656 687.855 70.2656C689.016 70.2656 689.684 70.9951 689.868 71.9004L689.886 71.9795H691.951L691.942 71.9092C691.811 70.0459 690.281 68.4902 687.829 68.4902C685.113 68.4902 683.355 70.3535 683.355 73.3242V73.333C683.355 76.3213 685.087 78.1846 687.855 78.1846ZM696.021 78.1582C697.251 78.1582 698.288 77.543 698.824 76.5674H698.877V78H701.065V71.5928C701.065 69.7207 699.562 68.4902 697.233 68.4902C694.869 68.4902 693.437 69.7295 693.305 71.3818L693.296 71.4873H695.326L695.344 71.4082C695.484 70.7227 696.117 70.2393 697.154 70.2393C698.262 70.2393 698.877 70.8105 698.877 71.751V72.3926L696.442 72.542C694.184 72.6826 692.9 73.6758 692.9 75.3281V75.3457C692.9 77.0068 694.157 78.1582 696.021 78.1582ZM695.08 75.2578V75.249C695.08 74.5107 695.669 74.0449 696.75 73.9746L698.877 73.8428V74.5459C698.877 75.6533 697.928 76.4883 696.671 76.4883C695.713 76.4883 695.08 76.0225 695.08 75.2578ZM706.295 78.1846C706.734 78.1846 707.121 78.1406 707.376 78.1055V76.4619C707.227 76.4707 707.06 76.4971 706.849 76.4971C706.049 76.4971 705.645 76.207 705.645 75.293V70.3711H707.376V68.6836H705.645V66.3193H703.421V68.6836H702.103V70.3711H703.421V75.4775C703.421 77.3936 704.344 78.1846 706.295 78.1846ZM710.039 67.3477C710.725 67.3477 711.252 66.8027 711.252 66.1523C711.252 65.4844 710.725 64.9482 710.039 64.9482C709.354 64.9482 708.817 65.4844 708.817 66.1523C708.817 66.8027 709.354 67.3477 710.039 67.3477ZM708.94 78H711.129V68.6836H708.94V78ZM717.114 78.1846C719.848 78.1846 721.623 76.3652 721.623 73.3418V73.3242C721.623 70.3184 719.821 68.4902 717.105 68.4902C714.398 68.4902 712.605 70.3359 712.605 73.3242V73.3418C712.605 76.3564 714.372 78.1846 717.114 78.1846ZM717.123 76.418C715.726 76.418 714.838 75.3018 714.838 73.3418V73.3242C714.838 71.3906 715.743 70.2656 717.105 70.2656C718.494 70.2656 719.391 71.3818 719.391 73.3242V73.3418C719.391 75.293 718.503 76.418 717.123 76.418ZM723.029 78H725.218V72.5947C725.218 71.25 726.018 70.3359 727.274 70.3359C728.522 70.3359 729.138 71.083 729.138 72.4102V78H731.326V71.9707C731.326 69.8086 730.157 68.4902 728.109 68.4902C726.694 68.4902 725.745 69.1406 725.262 70.1426H725.218V68.6836H723.029V78Z" fill="white"/>
<rect x="294" y="202" width="180" height="121" rx="20" fill="url(#paint3_linear_479_145)"/>
<path d="M371.766 257.22C374.684 257.22 376.837 255.418 377.162 252.816L377.18 252.729H374.956L374.93 252.816C374.517 254.381 373.383 255.251 371.766 255.251C369.56 255.251 368.136 253.476 368.136 250.654V250.646C368.136 247.833 369.551 246.066 371.766 246.066C373.418 246.066 374.534 246.972 374.903 248.422L374.947 248.589H377.171L377.162 248.501C376.828 245.917 374.684 244.098 371.766 244.098C368.127 244.098 365.815 246.594 365.815 250.646V250.654C365.815 254.706 368.118 257.22 371.766 257.22ZM381.398 257.158C382.629 257.158 383.666 256.543 384.202 255.567H384.255V257H386.443V250.593C386.443 248.721 384.94 247.49 382.611 247.49C380.247 247.49 378.814 248.729 378.683 250.382L378.674 250.487H380.704L380.722 250.408C380.862 249.723 381.495 249.239 382.532 249.239C383.64 249.239 384.255 249.811 384.255 250.751V251.393L381.82 251.542C379.562 251.683 378.278 252.676 378.278 254.328V254.346C378.278 256.007 379.535 257.158 381.398 257.158ZM380.458 254.258V254.249C380.458 253.511 381.047 253.045 382.128 252.975L384.255 252.843V253.546C384.255 254.653 383.306 255.488 382.049 255.488C381.091 255.488 380.458 255.022 380.458 254.258ZM388.21 257H390.398V251.595C390.398 250.215 391.146 249.433 392.385 249.433C392.754 249.433 393.088 249.485 393.272 249.556V247.578C393.105 247.534 392.851 247.49 392.578 247.49C391.506 247.49 390.732 248.167 390.442 249.292H390.398V247.684H388.21V257ZM398.142 257.185C400.576 257.185 401.947 255.743 402.237 254.311L402.264 254.214H400.216L400.198 254.275C399.987 254.899 399.275 255.479 398.186 255.479C396.762 255.479 395.865 254.513 395.83 252.878H402.352V252.175C402.352 249.362 400.699 247.49 398.036 247.49C395.373 247.49 393.659 249.424 393.659 252.359V252.368C393.659 255.33 395.347 257.185 398.142 257.185ZM398.062 249.204C399.223 249.204 400.066 249.942 400.225 251.419H395.856C396.032 249.986 396.902 249.204 398.062 249.204ZM339.141 280.22C342.059 280.22 344.212 278.418 344.537 275.816L344.555 275.729H342.331L342.305 275.816C341.892 277.381 340.758 278.251 339.141 278.251C336.935 278.251 335.511 276.476 335.511 273.654V273.646C335.511 270.833 336.926 269.066 339.141 269.066C340.793 269.066 341.909 269.972 342.278 271.422L342.322 271.589H344.546L344.537 271.501C344.203 268.917 342.059 267.098 339.141 267.098C335.502 267.098 333.19 269.594 333.19 273.646V273.654C333.19 277.706 335.493 280.22 339.141 280.22ZM350.18 280.185C352.913 280.185 354.688 278.365 354.688 275.342V275.324C354.688 272.318 352.887 270.49 350.171 270.49C347.464 270.49 345.671 272.336 345.671 275.324V275.342C345.671 278.356 347.438 280.185 350.18 280.185ZM350.188 278.418C348.791 278.418 347.903 277.302 347.903 275.342V275.324C347.903 273.391 348.809 272.266 350.171 272.266C351.56 272.266 352.456 273.382 352.456 275.324V275.342C352.456 277.293 351.568 278.418 350.188 278.418ZM360.217 280.185C362.95 280.185 364.726 278.365 364.726 275.342V275.324C364.726 272.318 362.924 270.49 360.208 270.49C357.501 270.49 355.708 272.336 355.708 275.324V275.342C355.708 278.356 357.475 280.185 360.217 280.185ZM360.226 278.418C358.828 278.418 357.94 277.302 357.94 275.342V275.324C357.94 273.391 358.846 272.266 360.208 272.266C361.597 272.266 362.493 273.382 362.493 275.324V275.342C362.493 277.293 361.605 278.418 360.226 278.418ZM366.132 280H368.32V274.595C368.32 273.215 369.067 272.433 370.307 272.433C370.676 272.433 371.01 272.485 371.194 272.556V270.578C371.027 270.534 370.772 270.49 370.5 270.49C369.428 270.49 368.654 271.167 368.364 272.292H368.32V270.684H366.132V280ZM375.431 280.185C376.775 280.185 377.804 279.517 378.331 278.418H378.384V280H380.572V267.317H378.384V272.283H378.331C377.804 271.167 376.74 270.49 375.422 270.49C373.084 270.49 371.581 272.327 371.581 275.333V275.342C371.581 278.339 373.075 280.185 375.431 280.185ZM376.09 278.339C374.684 278.339 373.813 277.196 373.813 275.342V275.333C373.813 273.479 374.692 272.336 376.09 272.336C377.435 272.336 378.384 273.514 378.384 275.333V275.342C378.384 277.17 377.443 278.339 376.09 278.339ZM383.569 269.348C384.255 269.348 384.782 268.803 384.782 268.152C384.782 267.484 384.255 266.948 383.569 266.948C382.884 266.948 382.348 267.484 382.348 268.152C382.348 268.803 382.884 269.348 383.569 269.348ZM382.471 280H384.659V270.684H382.471V280ZM386.522 280H388.711V274.595C388.711 273.25 389.511 272.336 390.768 272.336C392.016 272.336 392.631 273.083 392.631 274.41V280H394.819V273.971C394.819 271.809 393.65 270.49 391.603 270.49C390.188 270.49 389.238 271.141 388.755 272.143H388.711V270.684H386.522V280ZM399.328 280.158C400.559 280.158 401.596 279.543 402.132 278.567H402.185V280H404.373V273.593C404.373 271.721 402.87 270.49 400.541 270.49C398.177 270.49 396.744 271.729 396.612 273.382L396.604 273.487H398.634L398.651 273.408C398.792 272.723 399.425 272.239 400.462 272.239C401.569 272.239 402.185 272.811 402.185 273.751V274.393L399.75 274.542C397.491 274.683 396.208 275.676 396.208 277.328V277.346C396.208 279.007 397.465 280.158 399.328 280.158ZM398.388 277.258V277.249C398.388 276.511 398.977 276.045 400.058 275.975L402.185 275.843V276.546C402.185 277.653 401.235 278.488 399.979 278.488C399.021 278.488 398.388 278.022 398.388 277.258ZM409.603 280.185C410.042 280.185 410.429 280.141 410.684 280.105V278.462C410.534 278.471 410.367 278.497 410.156 278.497C409.356 278.497 408.952 278.207 408.952 277.293V272.371H410.684V270.684H408.952V268.319H406.729V270.684H405.41V272.371H406.729V277.478C406.729 279.394 407.651 280.185 409.603 280.185ZM413.347 269.348C414.032 269.348 414.56 268.803 414.56 268.152C414.56 267.484 414.032 266.948 413.347 266.948C412.661 266.948 412.125 267.484 412.125 268.152C412.125 268.803 412.661 269.348 413.347 269.348ZM412.248 280H414.437V270.684H412.248V280ZM420.422 280.185C423.155 280.185 424.931 278.365 424.931 275.342V275.324C424.931 272.318 423.129 270.49 420.413 270.49C417.706 270.49 415.913 272.336 415.913 275.324V275.342C415.913 278.356 417.68 280.185 420.422 280.185ZM420.431 278.418C419.033 278.418 418.146 277.302 418.146 275.342V275.324C418.146 273.391 419.051 272.266 420.413 272.266C421.802 272.266 422.698 273.382 422.698 275.324V275.342C422.698 277.293 421.811 278.418 420.431 278.418ZM426.337 280H428.525V274.595C428.525 273.25 429.325 272.336 430.582 272.336C431.83 272.336 432.445 273.083 432.445 274.41V280H434.634V273.971C434.634 271.809 433.465 270.49 431.417 270.49C430.002 270.49 429.053 271.141 428.569 272.143H428.525V270.684H426.337V280Z" fill="white"/>
<rect x="588" y="202" width="180" height="121" rx="20" fill="url(#paint4_linear_479_145)"/>
<path d="M651.255 257H653.522V252.808H656.142C658.708 252.808 660.457 251.103 660.457 248.571V248.554C660.457 246.014 658.708 244.317 656.142 244.317H651.255V257ZM655.579 246.172C657.205 246.172 658.154 247.042 658.154 248.562V248.58C658.154 250.101 657.205 250.979 655.579 250.979H653.522V246.172H655.579ZM663.964 257.158C665.194 257.158 666.231 256.543 666.768 255.567H666.82V257H669.009V250.593C669.009 248.721 667.506 247.49 665.177 247.49C662.812 247.49 661.38 248.729 661.248 250.382L661.239 250.487H663.27L663.287 250.408C663.428 249.723 664.061 249.239 665.098 249.239C666.205 249.239 666.82 249.811 666.82 250.751V251.393L664.386 251.542C662.127 251.683 660.844 252.676 660.844 254.328V254.346C660.844 256.007 662.101 257.158 663.964 257.158ZM663.023 254.258V254.249C663.023 253.511 663.612 253.045 664.693 252.975L666.82 252.843V253.546C666.82 254.653 665.871 255.488 664.614 255.488C663.656 255.488 663.023 255.022 663.023 254.258ZM674.238 257.185C674.678 257.185 675.064 257.141 675.319 257.105V255.462C675.17 255.471 675.003 255.497 674.792 255.497C673.992 255.497 673.588 255.207 673.588 254.293V249.371H675.319V247.684H673.588V245.319H671.364V247.684H670.046V249.371H671.364V254.478C671.364 256.394 672.287 257.185 674.238 257.185ZM677.982 246.348C678.668 246.348 679.195 245.803 679.195 245.152C679.195 244.484 678.668 243.948 677.982 243.948C677.297 243.948 676.761 244.484 676.761 245.152C676.761 245.803 677.297 246.348 677.982 246.348ZM676.884 257H679.072V247.684H676.884V257ZM685.031 257.185C687.466 257.185 688.837 255.743 689.127 254.311L689.153 254.214H687.105L687.088 254.275C686.877 254.899 686.165 255.479 685.075 255.479C683.651 255.479 682.755 254.513 682.72 252.878H689.241V252.175C689.241 249.362 687.589 247.49 684.926 247.49C682.263 247.49 680.549 249.424 680.549 252.359V252.368C680.549 255.33 682.236 257.185 685.031 257.185ZM684.952 249.204C686.112 249.204 686.956 249.942 687.114 251.419H682.746C682.922 249.986 683.792 249.204 684.952 249.204ZM690.656 257H692.845V251.595C692.845 250.25 693.645 249.336 694.901 249.336C696.149 249.336 696.765 250.083 696.765 251.41V257H698.953V250.971C698.953 248.809 697.784 247.49 695.736 247.49C694.321 247.49 693.372 248.141 692.889 249.143H692.845V247.684H690.656V257ZM704.174 257.185C704.613 257.185 705 257.141 705.255 257.105V255.462C705.105 255.471 704.938 255.497 704.728 255.497C703.928 255.497 703.523 255.207 703.523 254.293V249.371H705.255V247.684H703.523V245.319H701.3V247.684H699.981V249.371H701.3V254.478C701.3 256.394 702.223 257.185 704.174 257.185ZM628.482 280H636.691V278.093H630.75V274.48H636.366V272.644H630.75V269.225H636.691V267.317H628.482V280ZM638.44 280H640.629V274.595C640.629 273.25 641.429 272.336 642.686 272.336C643.934 272.336 644.549 273.083 644.549 274.41V280H646.737V273.971C646.737 271.809 645.568 270.49 643.521 270.49C642.105 270.49 641.156 271.141 640.673 272.143H640.629V270.684H638.44V280ZM652.696 283.261C655.395 283.261 657.091 281.846 657.091 279.736V270.684H654.902V272.266H654.85C654.322 271.193 653.303 270.49 651.984 270.49C649.629 270.49 648.108 272.301 648.108 275.245V275.254C648.108 278.154 649.611 279.947 651.949 279.947C653.285 279.947 654.34 279.314 654.858 278.321H654.902V279.666C654.902 280.853 654.12 281.608 652.696 281.608C651.554 281.608 650.807 281.204 650.569 280.668L650.543 280.598H648.39L648.407 280.677C648.671 282.136 650.227 283.261 652.696 283.261ZM652.635 278.26C651.229 278.26 650.341 277.126 650.341 275.289V275.28C650.341 273.47 651.229 272.336 652.635 272.336C653.988 272.336 654.911 273.487 654.911 275.289V275.298C654.911 277.108 653.997 278.26 652.635 278.26ZM661.635 280.158C662.865 280.158 663.902 279.543 664.438 278.567H664.491V280H666.68V273.593C666.68 271.721 665.177 270.49 662.848 270.49C660.483 270.49 659.051 271.729 658.919 273.382L658.91 273.487H660.94L660.958 273.408C661.099 272.723 661.731 272.239 662.769 272.239C663.876 272.239 664.491 272.811 664.491 273.751V274.393L662.057 274.542C659.798 274.683 658.515 275.676 658.515 277.328V277.346C658.515 279.007 659.771 280.158 661.635 280.158ZM660.694 277.258V277.249C660.694 276.511 661.283 276.045 662.364 275.975L664.491 275.843V276.546C664.491 277.653 663.542 278.488 662.285 278.488C661.327 278.488 660.694 278.022 660.694 277.258ZM672.647 283.261C675.346 283.261 677.042 281.846 677.042 279.736V270.684H674.854V272.266H674.801C674.273 271.193 673.254 270.49 671.936 270.49C669.58 270.49 668.06 272.301 668.06 275.245V275.254C668.06 278.154 669.562 279.947 671.9 279.947C673.236 279.947 674.291 279.314 674.81 278.321H674.854V279.666C674.854 280.853 674.071 281.608 672.647 281.608C671.505 281.608 670.758 281.204 670.521 280.668L670.494 280.598H668.341L668.358 280.677C668.622 282.136 670.178 283.261 672.647 283.261ZM672.586 278.26C671.18 278.26 670.292 277.126 670.292 275.289V275.28C670.292 273.47 671.18 272.336 672.586 272.336C673.939 272.336 674.862 273.487 674.862 275.289V275.298C674.862 277.108 673.948 278.26 672.586 278.26ZM682.931 280.185C685.365 280.185 686.736 278.743 687.026 277.311L687.053 277.214H685.005L684.987 277.275C684.776 277.899 684.064 278.479 682.975 278.479C681.551 278.479 680.654 277.513 680.619 275.878H687.141V275.175C687.141 272.362 685.488 270.49 682.825 270.49C680.162 270.49 678.448 272.424 678.448 275.359V275.368C678.448 278.33 680.136 280.185 682.931 280.185ZM682.852 272.204C684.012 272.204 684.855 272.942 685.014 274.419H680.646C680.821 272.986 681.691 272.204 682.852 272.204ZM688.556 280H690.744V274.296C690.744 273.162 691.482 272.336 692.537 272.336C693.557 272.336 694.189 272.986 694.189 274.032V280H696.316V274.243C696.316 273.118 697.037 272.336 698.092 272.336C699.164 272.336 699.762 272.995 699.762 274.146V280H701.95V273.602C701.95 271.738 700.746 270.49 698.909 270.49C697.564 270.49 696.457 271.211 696.009 272.371H695.956C695.613 271.176 694.673 270.49 693.372 270.49C692.142 270.49 691.184 271.158 690.788 272.178H690.744V270.684H688.556V280ZM707.804 280.185C710.238 280.185 711.609 278.743 711.899 277.311L711.926 277.214H709.878L709.86 277.275C709.649 277.899 708.938 278.479 707.848 278.479C706.424 278.479 705.527 277.513 705.492 275.878H712.014V275.175C712.014 272.362 710.361 270.49 707.698 270.49C705.035 270.49 703.321 272.424 703.321 275.359V275.368C703.321 278.33 705.009 280.185 707.804 280.185ZM707.725 272.204C708.885 272.204 709.729 272.942 709.887 274.419H705.519C705.694 272.986 706.564 272.204 707.725 272.204ZM713.429 280H715.617V274.595C715.617 273.25 716.417 272.336 717.674 272.336C718.922 272.336 719.537 273.083 719.537 274.41V280H721.726V273.971C721.726 271.809 720.557 270.49 718.509 270.49C717.094 270.49 716.145 271.141 715.661 272.143H715.617V270.684H713.429V280ZM726.946 280.185C727.386 280.185 727.772 280.141 728.027 280.105V278.462C727.878 278.471 727.711 278.497 727.5 278.497C726.7 278.497 726.296 278.207 726.296 277.293V272.371H728.027V270.684H726.296V268.319H724.072V270.684H722.754V272.371H724.072V277.478C724.072 279.394 724.995 280.185 726.946 280.185Z" fill="white"/>
<rect y="202" width="180" height="121" rx="20" fill="url(#paint5_linear_479_145)"/>
<path d="M41.125 269H43.3926V264.808H46.0117C48.5781 264.808 50.3271 263.103 50.3271 260.571V260.554C50.3271 258.014 48.5781 256.317 46.0117 256.317H41.125V269ZM45.4492 258.172C47.0752 258.172 48.0244 259.042 48.0244 260.562V260.58C48.0244 262.101 47.0752 262.979 45.4492 262.979H43.3926V258.172H45.4492ZM53.834 269.158C55.0645 269.158 56.1016 268.543 56.6377 267.567H56.6904V269H58.8789V262.593C58.8789 260.721 57.376 259.49 55.0469 259.49C52.6826 259.49 51.25 260.729 51.1182 262.382L51.1094 262.487H53.1396L53.1572 262.408C53.2979 261.723 53.9307 261.239 54.9678 261.239C56.0752 261.239 56.6904 261.811 56.6904 262.751V263.393L54.2559 263.542C51.9971 263.683 50.7139 264.676 50.7139 266.328V266.346C50.7139 268.007 51.9707 269.158 53.834 269.158ZM52.8936 266.258V266.249C52.8936 265.511 53.4824 265.045 54.5635 264.975L56.6904 264.843V265.546C56.6904 266.653 55.7412 267.488 54.4844 267.488C53.5264 267.488 52.8936 267.022 52.8936 266.258ZM64.1084 269.185C64.5479 269.185 64.9346 269.141 65.1895 269.105V267.462C65.04 267.471 64.873 267.497 64.6621 267.497C63.8623 267.497 63.458 267.207 63.458 266.293V261.371H65.1895V259.684H63.458V257.319H61.2344V259.684H59.916V261.371H61.2344V266.478C61.2344 268.394 62.1572 269.185 64.1084 269.185ZM67.8525 258.348C68.5381 258.348 69.0654 257.803 69.0654 257.152C69.0654 256.484 68.5381 255.948 67.8525 255.948C67.167 255.948 66.6309 256.484 66.6309 257.152C66.6309 257.803 67.167 258.348 67.8525 258.348ZM66.7539 269H68.9424V259.684H66.7539V269ZM74.9014 269.185C77.3359 269.185 78.707 267.743 78.9971 266.311L79.0234 266.214H76.9756L76.958 266.275C76.7471 266.899 76.0352 267.479 74.9453 267.479C73.5215 267.479 72.625 266.513 72.5898 264.878H79.1113V264.175C79.1113 261.362 77.459 259.49 74.7959 259.49C72.1328 259.49 70.4189 261.424 70.4189 264.359V264.368C70.4189 267.33 72.1064 269.185 74.9014 269.185ZM74.8223 261.204C75.9824 261.204 76.8262 261.942 76.9844 263.419H72.6162C72.792 261.986 73.6621 261.204 74.8223 261.204ZM80.5264 269H82.7148V263.595C82.7148 262.25 83.5146 261.336 84.7715 261.336C86.0195 261.336 86.6348 262.083 86.6348 263.41V269H88.8232V262.971C88.8232 260.809 87.6543 259.49 85.6064 259.49C84.1914 259.49 83.2422 260.141 82.7588 261.143H82.7148V259.684H80.5264V269ZM94.0439 269.185C94.4834 269.185 94.8701 269.141 95.125 269.105V267.462C94.9756 267.471 94.8086 267.497 94.5977 267.497C93.7979 267.497 93.3936 267.207 93.3936 266.293V261.371H95.125V259.684H93.3936V257.319H91.1699V259.684H89.8516V261.371H91.1699V266.478C91.1699 268.394 92.0928 269.185 94.0439 269.185ZM100.451 269H102.719V256.317H100.451V269ZM104.731 269H106.92V263.595C106.92 262.25 107.72 261.336 108.977 261.336C110.225 261.336 110.84 262.083 110.84 263.41V269H113.028V262.971C113.028 260.809 111.859 259.49 109.812 259.49C108.396 259.49 107.447 260.141 106.964 261.143H106.92V259.684H104.731V269ZM118.249 269.185C118.688 269.185 119.075 269.141 119.33 269.105V267.462C119.181 267.471 119.014 267.497 118.803 267.497C118.003 267.497 117.599 267.207 117.599 266.293V261.371H119.33V259.684H117.599V257.319H115.375V259.684H114.057V261.371H115.375V266.478C115.375 268.394 116.298 269.185 118.249 269.185ZM123.461 269.158C124.691 269.158 125.729 268.543 126.265 267.567H126.317V269H128.506V262.593C128.506 260.721 127.003 259.49 124.674 259.49C122.31 259.49 120.877 260.729 120.745 262.382L120.736 262.487H122.767L122.784 262.408C122.925 261.723 123.558 261.239 124.595 261.239C125.702 261.239 126.317 261.811 126.317 262.751V263.393L123.883 263.542C121.624 263.683 120.341 264.676 120.341 266.328V266.346C120.341 268.007 121.598 269.158 123.461 269.158ZM122.521 266.258V266.249C122.521 265.511 123.109 265.045 124.19 264.975L126.317 264.843V265.546C126.317 266.653 125.368 267.488 124.111 267.488C123.153 267.488 122.521 267.022 122.521 266.258ZM130.369 269H132.558V265.766L133.296 264.992L136.24 269H138.763L134.922 263.691L138.613 259.684H136.082L132.602 263.551H132.558V256.317H130.369V269ZM143.263 269.185C145.697 269.185 147.068 267.743 147.358 266.311L147.385 266.214H145.337L145.319 266.275C145.108 266.899 144.396 267.479 143.307 267.479C141.883 267.479 140.986 266.513 140.951 264.878H147.473V264.175C147.473 261.362 145.82 259.49 143.157 259.49C140.494 259.49 138.78 261.424 138.78 264.359V264.368C138.78 267.33 140.468 269.185 143.263 269.185ZM143.184 261.204C144.344 261.204 145.188 261.942 145.346 263.419H140.978C141.153 261.986 142.023 261.204 143.184 261.204Z" fill="white"/>
<path d="M267.075 60.0607C267.661 59.4749 267.661 58.5251 267.075 57.9393L257.529 48.3934C256.944 47.8076 255.994 47.8076 255.408 48.3934C254.822 48.9792 254.822 49.9289 255.408 50.5147L263.893 59L255.408 67.4853C254.822 68.0711 254.822 69.0208 255.408 69.6066C255.994 70.1924 256.944 70.1924 257.529 69.6066L267.075 60.0607ZM197.985 60.5H266.015V57.5H197.985V60.5Z" fill="#31456A"/>
<path d="M566.09 61.0607C566.676 60.4749 566.676 59.5251 566.09 58.9393L556.544 49.3934C555.958 48.8076 555.009 48.8076 554.423 49.3934C553.837 49.9792 553.837 50.9289 554.423 51.5147L562.908 60L554.423 68.4853C553.837 69.0711 553.837 70.0208 554.423 70.6066C555.009 71.1924 555.958 71.1924 556.544 70.6066L566.09 61.0607ZM497 61.5H565.029V58.5H497V61.5Z" fill="#31456A"/>
<path d="M495.94 260.919C495.354 261.504 495.353 262.454 495.939 263.04L505.479 272.591C506.064 273.178 507.014 273.178 507.6 272.593C508.186 272.007 508.187 271.058 507.601 270.471L499.121 261.981L507.612 253.501C508.198 252.915 508.198 251.966 507.613 251.38C507.027 250.793 506.078 250.793 505.491 251.378L495.94 260.919ZM565.03 260.52L497.001 260.48L496.999 263.48L565.028 263.52L565.03 260.52Z" fill="#31456A"/>
<path d="M206.94 271.439C206.354 272.024 206.353 272.974 206.939 273.56L216.479 283.112C217.064 283.698 218.014 283.698 218.6 283.113C219.186 282.527 219.187 281.578 218.602 280.992L210.121 272.501L218.612 264.021C219.198 263.436 219.198 262.486 218.613 261.9C218.027 261.314 217.078 261.313 216.492 261.898L206.94 271.439ZM276.03 271.04L208.001 271L207.999 274L276.028 274.04L276.03 271.04Z" fill="#31456A"/>
<path d="M681.981 181.101C682.581 181.672 683.53 181.649 684.101 181.049L693.408 171.27C693.979 170.67 693.956 169.72 693.356 169.149C692.756 168.578 691.806 168.601 691.235 169.201L682.962 177.894L674.27 169.621C673.67 169.05 672.72 169.074 672.149 169.674C671.578 170.274 671.601 171.223 672.201 171.794L681.981 181.101ZM680.5 139.037L681.515 180.052L684.514 179.978L683.5 138.963L680.5 139.037Z" fill="#31456A"/>
<path d="M91.0327 138.961C90.4597 138.363 89.5102 138.342 88.9119 138.915L79.1623 148.253C78.564 148.826 78.5435 149.776 79.1165 150.374C79.6895 150.972 80.6391 150.993 81.2373 150.42L89.9037 142.119L98.204 150.786C98.777 151.384 99.7265 151.404 100.325 150.831C100.923 150.258 100.944 149.309 100.371 148.711L91.0327 138.961ZM90.5641 181.049L91.4491 140.031L88.4498 139.966L87.5648 180.984L90.5641 181.049Z" fill="#31456A"/>
<defs>
<linearGradient id="paint0_linear_479_145" x1="0" y1="60.5" x2="180" y2="60.5" gradientUnits="userSpaceOnUse">
<stop stop-color="#36D1DC"/>
<stop offset="1" stop-color="#5B86E5"/>
</linearGradient>
<linearGradient id="paint1_linear_479_145" x1="294" y1="60.5" x2="474" y2="60.5" gradientUnits="userSpaceOnUse">
<stop stop-color="#36D1DC"/>
<stop offset="1" stop-color="#5B86E5"/>
</linearGradient>
<linearGradient id="paint2_linear_479_145" x1="588" y1="60.5" x2="768" y2="60.5" gradientUnits="userSpaceOnUse">
<stop stop-color="#36D1DC"/>
<stop offset="1" stop-color="#5B86E5"/>
</linearGradient>
<linearGradient id="paint3_linear_479_145" x1="294" y1="262.5" x2="474" y2="262.5" gradientUnits="userSpaceOnUse">
<stop stop-color="#36D1DC"/>
<stop offset="1" stop-color="#5B86E5"/>
</linearGradient>
<linearGradient id="paint4_linear_479_145" x1="588" y1="262.5" x2="768" y2="262.5" gradientUnits="userSpaceOnUse">
<stop stop-color="#36D1DC"/>
<stop offset="1" stop-color="#5B86E5"/>
</linearGradient>
<linearGradient id="paint5_linear_479_145" x1="0" y1="262.5" x2="180" y2="262.5" gradientUnits="userSpaceOnUse">
<stop stop-color="#36D1DC"/>
<stop offset="1" stop-color="#5B86E5"/>
</linearGradient>
</defs>
</svg>
