<svg width="392" height="784" viewBox="0 0 392 784" fill="none" xmlns="http://www.w3.org/2000/svg">
<path d="M106.312 539.549V646.276C106.312 662.435 102.734 678.325 95.9184 692.436C89.1028 706.546 79.2763 718.407 67.3735 726.891L33.3024 751.173" stroke="#6562CF" stroke-width="6" stroke-miterlimit="10" stroke-linecap="round"/>
<path d="M124.786 539.549V646.276C124.786 662.434 128.363 678.324 135.178 692.434C141.992 706.545 151.818 718.406 163.719 726.891L197.795 751.173" stroke="#6562CF" stroke-width="6" stroke-miterlimit="10" stroke-linecap="round"/>
<path d="M106.119 539.542H126.685C131.224 539.542 135.578 537.458 138.787 533.75C141.997 530.041 143.801 525.011 143.801 519.766H88.9873C88.9873 522.364 89.4305 524.937 90.2917 527.338C91.1529 529.739 92.415 531.92 94.0061 533.756C95.5971 535.593 97.4858 537.049 99.5643 538.042C101.643 539.035 103.87 539.544 106.119 539.542Z" fill="white" stroke="#6562CF" stroke-width="5" stroke-miterlimit="10"/>
<path d="M83.7725 485.59H67.1915L60.7303 443.978H77.3112L83.7725 485.59Z" fill="white" stroke="#6562CF" stroke-width="5" stroke-miterlimit="10"/>
<path d="M211.558 493.216V509.341C211.558 511.473 206.504 513.469 197.716 515.169C180.835 518.438 150.187 520.626 115.175 520.626C61.95 520.626 18.7968 515.57 18.7968 509.341V493.216C18.7968 496.368 29.8793 499.23 47.7386 501.251C65.1218 503.29 88.9234 504.526 115.159 504.526C141.394 504.526 165.217 503.29 182.6 501.3C188.398 500.633 193.48 499.885 197.7 499.069C206.504 497.345 211.558 495.349 211.558 493.216Z" fill="#D1D1FF" stroke="#6562CF" stroke-width="5" stroke-miterlimit="10"/>
<path d="M211.558 493.215C211.558 495.348 206.504 497.344 197.716 499.043C193.496 499.859 188.414 500.607 182.616 501.275C165.233 503.289 141.432 504.525 115.159 504.525C88.886 504.525 65.1058 503.289 47.7225 501.299C29.8633 499.254 18.7808 496.392 18.7808 493.265C18.7808 487.029 61.934 481.967 115.159 481.967C157.478 481.967 193.426 485.162 206.386 489.612C209.745 490.706 211.558 491.936 211.558 493.215Z" fill="white" stroke="#6562CF" stroke-width="5" stroke-miterlimit="10"/>
<path d="M75.5194 445.343H56.5209C39.7207 445.343 21.8186 420.48 16.5341 389.802L4.47818 319.804C-0.80632 289.126 8.52713 264.263 25.3381 264.263H44.3259C61.1208 264.263 79.0228 289.126 84.3073 319.804L96.3686 389.802C101.653 420.474 92.3196 445.343 75.5194 445.343Z" fill="#D1D1FF" stroke="#6562CF" stroke-width="5" stroke-miterlimit="10"/>
<path d="M86.7518 445.343H67.7533C50.953 445.343 33.051 420.48 27.7665 389.802L15.7105 319.804C10.426 289.126 19.7595 264.263 36.5704 264.263H55.5583C72.3532 264.263 90.2552 289.126 95.5397 319.804L107.601 389.802C112.886 420.474 103.552 445.343 86.7518 445.343Z" fill="white" stroke="#6562CF" stroke-width="5" stroke-miterlimit="10"/>
<path d="M31.7783 780.578C23.3505 780.578 16.5185 772.684 16.5185 762.946C16.5185 753.208 23.3505 745.313 31.7783 745.313C40.206 745.313 47.0381 753.208 47.0381 762.946C47.0381 772.684 40.206 780.578 31.7783 780.578Z" fill="#D1D1FF" stroke="#6562CF" stroke-width="5" stroke-miterlimit="10"/>
<path d="M198.122 780.578C189.694 780.578 182.862 772.684 182.862 762.946C182.862 753.208 189.694 745.313 198.122 745.313C206.55 745.313 213.382 753.208 213.382 762.946C213.382 772.684 206.55 780.578 198.122 780.578Z" fill="#D1D1FF" stroke="#6562CF" stroke-width="5" stroke-miterlimit="10"/>
<path d="M137.982 697.849C137.982 697.849 118.229 681.094 93.0903 697.849" stroke="#6562CF" stroke-width="5" stroke-miterlimit="10"/>
<path d="M64.8799 441.938C92.1582 486.603 201.421 459.286 201.421 459.286C202.143 441.932 201.047 396.396 227.699 370.426L166.077 372.281C117.404 377.54 81.3539 366.298 70.1376 360.501C60.51 376.681 45.6246 410.4 64.8799 441.938Z" fill="#6562CF"/>
<path d="M243.907 373.177C243.907 373.177 319.323 378.486 325.779 397.089C345.954 455.084 267.714 637.79 262.782 682.701C258.653 720.487 285.68 740.697 285.68 740.697C285.68 740.697 273.517 750.356 256.449 745.023C252.796 743.879 249.41 738.577 242.591 732.18C237.52 727.428 225.031 718.874 225.245 711.656C225.598 699.765 240.596 690.587 240.173 683.165C239.751 675.743 227.277 576.581 231.615 533.943C236.429 486.356 267.451 460.349 267.451 460.349L201.181 459.422C201.181 459.422 211.552 396.922 243.907 373.177Z" fill="#B65A18"/>
<path d="M200.138 459.329C200.138 459.329 194.458 399.171 229.021 369.228C231.754 366.861 239.381 369.753 243.767 370.754C245.372 371.125 245.794 373.226 244.837 374.79C221.929 412.842 221.463 445.473 223.041 464.755L200.138 459.329Z" fill="#8382D8"/>
<path d="M226.143 702.292C224.312 705.034 223.41 708.454 223.607 711.911C223.804 715.367 225.086 718.621 227.213 721.062L251.095 748.31C251.095 748.31 293.815 749.231 296.323 748.31C298.832 747.39 296.569 739.145 289.616 736.735C282.663 734.325 273.158 720.963 273.158 720.963C273.158 720.963 265.568 711.563 253.186 740.672L244.901 732.26C244.901 732.26 246.859 707.453 243.623 694.598H262.782C263.22 694.602 263.655 694.506 264.062 694.315C264.468 694.124 264.838 693.842 265.15 693.485C265.461 693.128 265.709 692.704 265.878 692.236C266.047 691.768 266.135 691.267 266.135 690.76C266.113 689.793 265.765 688.875 265.166 688.201C264.566 687.527 263.763 687.15 262.926 687.15H239.167C238.787 687.15 238.411 687.242 238.063 687.421C237.716 687.6 237.405 687.862 237.151 688.189L226.143 702.292Z" fill="#333B63"/>
<path d="M48.8342 461.096C60.4248 499.834 155.749 494.723 171.998 493.357C171.996 493.33 171.996 493.303 171.998 493.277C172.72 475.923 177.117 421.166 203.77 395.196L168.393 385.308L164.425 372.459C116.869 377.261 81.6697 366.378 70.3466 360.618C62.5375 372.62 35.9225 417.921 48.8342 461.096Z" fill="#8382D8"/>
<path d="M227.326 400.988C227.326 400.988 305.604 418.416 308.979 444.867C312.354 471.319 262.782 676.026 268.131 713.602C273.48 751.178 308.679 777.159 308.679 777.159C308.679 777.159 279.551 783.581 263.938 777.159C260.376 775.688 253.909 765.788 247.94 761.845C242.27 758.099 230.38 751.629 230.594 744.41C230.947 732.52 245.945 722.724 245.522 715.301C245.1 707.879 221.394 601.301 225.732 558.664C230.546 511.076 245.522 491.25 245.522 491.25L201.717 490.323C201.717 490.323 193.512 436.623 227.326 400.988Z" fill="#C36F0B"/>
<path d="M198.031 496.2L176.449 498.672C175.846 498.673 175.249 498.532 174.695 498.258C174.14 497.984 173.64 497.582 173.224 497.078C172.808 496.573 172.486 495.976 172.276 495.322C172.066 494.669 171.974 493.973 172.005 493.277C172.732 475.806 177.182 420.406 204.332 394.653C205.437 393.61 206.739 392.881 208.132 392.525C209.526 392.169 210.972 392.195 212.355 392.602L230.541 398.009C230.541 398.009 193.784 427.019 202.422 490.224C202.525 490.96 202.489 491.712 202.316 492.43C202.143 493.148 201.837 493.814 201.419 494.382C201.002 494.95 200.483 495.407 199.898 495.721C199.313 496.035 198.676 496.198 198.031 496.2Z" fill="#E5E6FF"/>
<path d="M232.081 733.472C230.208 736.27 229.286 739.763 229.489 743.293C229.692 746.822 231.006 750.144 233.183 752.631L257.546 780.441C257.546 780.441 306.583 781.381 309.145 780.441C311.707 779.502 309.396 771.091 302.299 768.631C295.201 766.171 285.509 752.563 285.509 752.563C285.509 752.563 272.308 742.971 259.68 772.667L251.224 764.082C251.224 764.082 253.224 738.744 249.924 725.66H269.479C269.927 725.665 270.371 725.568 270.785 725.373C271.2 725.179 271.578 724.892 271.896 724.528C272.214 724.164 272.467 723.731 272.639 723.254C272.812 722.777 272.901 722.265 272.902 721.748C272.881 720.757 272.526 719.815 271.913 719.122C271.299 718.43 270.476 718.041 269.618 718.04H245.383C244.995 718.039 244.611 718.133 244.256 718.315C243.901 718.497 243.584 718.764 243.324 719.097L232.081 733.472Z" fill="#3F4D79"/>
<path d="M112.885 129.707C105.499 134.2 87.9819 144.428 77.0011 166.232C66.0202 188.036 90.0893 267.341 89.7684 290.999C89.4475 314.657 70.0371 355.632 66.6567 357.486C63.2763 359.34 106.344 379.735 169.886 371.867C169.886 371.867 164.859 338.778 168.528 324.397C172.197 310.016 189.195 268.299 189.195 268.299C189.195 268.299 208.509 251.328 204.391 237.867C201.647 228.9 172.71 173.519 172.71 173.519L112.885 129.707Z" fill="#FFB000"/>
<path d="M48.6848 248.046C48.6848 248.046 68.3305 274.782 104.167 274.782C104.167 274.782 132.862 168.024 100.027 154.545C67.1912 141.065 48.6848 248.046 48.6848 248.046Z" fill="#FFC033"/>
<path d="M46.3796 318.29C48.0537 336.151 173.775 360.254 173.775 360.254L173.812 360.168C176.096 361.521 184.472 366.008 190.115 362.689C196.699 358.802 202.518 357.127 206.546 358.147C211.52 359.383 217.185 363.82 220.019 362.838C223.456 361.684 226.668 359.776 229.481 357.22C226.716 353.531 223.792 350.006 220.72 346.658C223.549 347.684 227.593 350.366 229.684 351.176C233.038 352.51 234.311 348.753 234.311 348.753C234.311 348.753 226.256 342.189 224.063 340.719C220.233 338.209 211.622 335.774 209.258 335.774C205.123 335.898 182.969 339.13 172.004 341.423C153.995 330.552 108.216 303.279 90.4474 296.307L96.4914 273.787C96.4914 273.787 70.9889 270.913 53.0654 252.156C53.0654 252.211 44.6519 299.818 46.3796 318.29Z" fill="#C36F0B"/>
<path d="M225.876 358.438C225.876 358.438 213.778 346.354 211.119 346.076C206.434 345.557 200.315 344.84 200.315 344.84" stroke="#A55F2B" stroke-width="4" stroke-miterlimit="10" stroke-linecap="round"/>
<path d="M221.94 361.069C221.94 361.069 211.243 351.181 208.568 350.878C203.883 350.359 197.764 349.642 197.764 349.642" stroke="#A55F2B" stroke-width="4" stroke-miterlimit="10" stroke-linecap="round"/>
<path d="M50.2256 270.115C58.1149 275.468 72.3852 282.581 94.7267 280.467L96.4971 273.861C96.4971 273.861 70.9892 270.993 53.0711 252.23C53.0711 252.211 51.7232 259.788 50.2256 270.115Z" fill="#B65A18"/>
<path d="M90.3188 67.1014C90.3188 67.1014 94.448 133.563 215.344 151.634C215.344 151.634 231.118 136.833 221.763 121.895C212.408 106.958 202.053 101.463 210.889 91.3402C219.725 81.217 232.07 60.2352 214.237 40.8973C196.405 21.5595 155.642 -4.06987 126.032 14.65C96.4217 33.3698 132.734 67.6947 90.3188 67.1014Z" fill="#3F4D79"/>
<path d="M221.207 151.671C221.207 151.671 236.98 136.869 227.625 121.938C218.27 107.006 208.948 101.506 217.789 91.3828C226.63 81.2596 235.755 56.9404 215.617 40.9088C192.233 22.294 167.656 13.8333 138.762 26.6943" stroke="#3F4D79" stroke-width="4" stroke-miterlimit="10"/>
<path d="M144.041 71.7305C144.041 71.7305 139.126 111.717 112.976 129.701C112.976 129.701 130.092 169.335 173.748 175.744C173.748 175.744 161.286 149.533 161.318 141.184C161.35 132.834 167.041 108.682 167.041 108.682L144.041 71.7305Z" fill="#C36F0B"/>
<path d="M142.693 86.6367C142.255 105.295 153.562 119.886 163.104 127.581C164.773 118.36 167.041 108.681 167.041 108.681L144.041 71.73C143.682 74.3136 143.205 76.8737 142.613 79.3996C142.725 81.5998 142.758 84.0224 142.693 86.6367Z" fill="#B65A18"/>
<path d="M146.716 55.2533C155.616 43.5108 169.047 35.2045 181.274 39.7408C200.074 46.7245 202.572 82.6998 178.434 115.356C175.572 119.225 147.791 107.112 144.978 81.402C143.507 67.9723 146.716 55.2533 146.716 55.2533Z" fill="#C36F0B"/>
<path d="M145.646 57.8121L154.964 14.0003C156.638 6.53457 162.762 1.8623 169.116 3.2405L187.489 7.77062C193.373 9.05611 196.721 16.7073 196.694 23.9134" stroke="#FFB000" stroke-width="5" stroke-miterlimit="10" stroke-linecap="round"/>
<path d="M144.976 54.4783L146.593 54.928C153.064 56.7271 157.047 64.2465 155.49 71.7231L155.101 73.5918C153.544 81.0684 147.036 85.671 140.566 83.8718L138.948 83.4222C132.478 81.6231 128.494 74.1036 130.052 66.627L130.441 64.7583C131.998 57.2817 138.505 52.6792 144.976 54.4783Z" fill="white"/>
<path d="M137.431 81.7114C133.152 96.5439 117.945 130.065 137.431 168.525C156.916 206.984 181.728 235.741 162.725 276.406C146.229 311.708 147.32 365.945 191.607 365.945" stroke="white" stroke-width="5" stroke-miterlimit="10" stroke-linecap="round"/>
<path d="M318.173 362.121H326.399C328.237 362.122 330.035 361.504 331.573 360.343C333.111 359.181 334.322 357.527 335.059 355.582L388.214 214.444C388.84 212.784 389.099 210.969 388.966 209.165C388.834 207.36 388.314 205.622 387.455 204.107C386.596 202.592 385.424 201.349 384.044 200.488C382.665 199.628 381.122 199.178 379.555 199.179L318.173 362.121Z" fill="white" stroke="#6562CF" stroke-width="6" stroke-miterlimit="10"/>
<path d="M148.748 377.744H311.396C313.172 377.744 314.93 377.34 316.57 376.555C318.21 375.769 319.701 374.619 320.956 373.168C322.211 371.717 323.206 369.994 323.885 368.099C324.564 366.203 324.913 364.172 324.913 362.12H162.27C158.684 362.12 155.244 363.766 152.709 366.696C150.173 369.626 148.748 373.6 148.748 377.744Z" fill="white" stroke="#6562CF" stroke-width="6" stroke-miterlimit="10"/>
</svg>
