<svg width="428" height="702" viewBox="0 0 428 702" fill="none" xmlns="http://www.w3.org/2000/svg">
<g clip-path="url(#clip0)">
<path d="M254.114 525.167H381.498C393.443 525.167 404.898 519.581 413.345 509.638C421.791 499.695 426.536 486.209 426.536 472.148V383.88C426.536 378.002 424.553 372.366 421.023 368.21C417.492 364.054 412.704 361.719 407.712 361.719H311.564C309.933 361.716 308.318 362.092 306.811 362.825C305.304 363.558 303.935 364.634 302.782 365.992C301.629 367.349 300.715 368.961 300.092 370.735C299.469 372.509 299.15 374.41 299.152 376.33V472.148C299.152 486.209 294.407 499.695 285.961 509.638C277.515 519.581 266.059 525.167 254.114 525.167Z" fill="white" stroke="#D8BAA3" stroke-width="6" stroke-miterlimit="10"/>
<path d="M234.792 513.906C234.792 516.892 235.799 519.755 237.592 521.867C239.385 523.978 241.817 525.166 244.353 525.167H381.498C387.412 525.167 393.269 523.796 398.733 521.131C404.198 518.467 409.163 514.561 413.345 509.638C417.527 504.715 420.844 498.87 423.108 492.437C425.371 486.005 426.536 479.11 426.536 472.148V383.88C426.536 378.002 424.553 372.366 421.023 368.21C417.492 364.054 412.704 361.719 407.712 361.719H406.247C408.04 363.782 409.463 366.246 410.433 368.967C411.403 371.687 411.9 374.609 411.894 377.56V465.828C411.899 471.517 411.125 477.171 409.6 482.57C407.947 488.426 404.769 493.52 400.517 497.129C396.266 500.739 391.157 502.681 385.915 502.679H244.377C243.122 502.675 241.878 502.963 240.716 503.525C239.555 504.087 238.499 504.913 237.609 505.956C236.719 506.998 236.012 508.237 235.529 509.601C235.045 510.965 234.795 512.428 234.792 513.906Z" fill="#F0E1D4" stroke="#D8BAA3" stroke-width="6" stroke-miterlimit="10"/>
<path d="M356.206 525.138H286.677V535.153C286.677 537.31 287.405 539.38 288.701 540.905C289.997 542.431 291.755 543.288 293.588 543.288H349.3C351.133 543.288 352.891 542.431 354.187 540.905C355.483 539.38 356.211 537.31 356.211 535.153V525.138H356.206Z" fill="white" stroke="#D8BAA3" stroke-width="6" stroke-miterlimit="10"/>
<path d="M314.121 543.311H328.763V681.33H314.121V543.311Z" fill="#F0E1D4" stroke="#D8BAA3" stroke-width="6" stroke-miterlimit="10"/>
<path d="M313.262 681.329H329.622C332.921 681.329 335.596 684.478 335.596 688.362V709.902C335.596 713.786 332.921 716.934 329.622 716.934H313.262C309.963 716.934 307.288 713.786 307.288 709.902V688.362C307.288 684.478 309.963 681.329 313.262 681.329Z" fill="white" stroke="#D8BAA3" stroke-width="6" stroke-miterlimit="10"/>
<path d="M363.727 361.857C363.727 361.857 426.145 467.143 361.623 494.285C324.624 509.855 255.451 510.723 203.175 508.649C183.348 507.847 164.227 499.79 148.472 485.599C132.717 471.408 121.111 451.788 115.27 429.47L113.362 422.196C113.362 422.196 123.967 379.254 287.072 361.713C287.072 361.713 321.529 369.912 363.727 361.857Z" fill="#722D54"/>
<path d="M0.000274658 749H36.1802C40.685 749 49.3578 727.523 52.4863 727.707C55.6148 727.891 58.3821 749 58.3821 749H61.164C73.5998 707.058 56.6397 699.652 56.6397 699.652L56.5421 699.727C53.2965 719.836 29.2497 723.858 24.3301 724.478L23.4516 725.15C23.4516 725.15 11.9626 738.675 6.36946 739.589C0.776291 740.502 0.000274658 749 0.000274658 749Z" fill="#722D54"/>
<path d="M117.076 418.048C94.5864 426.155 83.5367 609.58 23.4466 725.15C23.4466 725.15 53.4916 722.68 56.6347 699.652C56.6347 699.652 147.844 591.487 150.279 526.914C152.714 462.34 130.908 413.061 117.076 418.048Z" fill="#B65A18"/>
<path d="M97.5833 749H133.753C138.258 749 146.931 727.523 150.055 727.707C153.178 727.891 155.955 749 155.955 749H158.737C171.173 707.058 154.213 699.652 154.213 699.652L154.14 699.709L154.11 699.818C159.709 720.64 122.914 725.88 120.049 726.248C117.164 729.511 108.55 738.83 103.943 739.583C98.3495 740.502 97.5833 749 97.5833 749Z" fill="#722D54"/>
<path d="M154.11 699.801C154.11 699.801 191.291 561.691 181.354 507.551C169.25 441.645 136.662 405.982 121.059 418.048C105.456 430.114 147.824 615.785 132.333 699.801C130.425 710.143 119.873 726.231 119.873 726.231C119.873 726.231 159.933 721.479 154.11 699.801Z" fill="#C36F0B"/>
<path d="M286.096 154.117C286.096 154.117 284.354 188.464 255.305 249.636C242.971 275.611 268.892 293.302 269.619 296.427C270.347 299.553 286.096 364.586 286.096 364.586C286.096 364.586 319.773 376.566 364.83 364.586C364.83 364.586 378.154 209.205 369.677 186.344C362.166 166.097 325.581 141.282 325.581 141.282C325.581 141.282 308.381 154.399 286.096 154.117Z" fill="#F0E1D4"/>
<path d="M336.913 151.802C321.837 176.571 305.233 171.796 305.233 171.796L294.593 155.312C294.593 155.312 288.044 170.854 283.91 174.272" stroke="#D8BAA3" stroke-width="5" stroke-linecap="round" stroke-linejoin="round"/>
<path d="M319.729 275.945C309.435 297.163 285.301 288.585 285.301 288.585" stroke="#D8BAA3" stroke-width="5" stroke-miterlimit="10" stroke-linecap="round"/>
<path d="M213.063 351.371C213.743 351.892 214.553 352.128 215.361 352.042C216.169 351.955 216.929 351.551 217.519 350.895C218.939 349.452 221.355 345.999 223.302 344.109C221.895 347.542 220.648 351.064 219.568 354.658C222.684 355.053 225.832 354.859 228.895 354.083C231.472 353.474 234.752 347.735 238.046 344.425C241.341 341.116 247.505 343.736 253.991 343.339C260.478 342.943 265.963 332.578 265.963 332.578C265.963 332.578 369.803 360.007 386.134 339.473C390.155 334.422 391.912 329.625 391.62 325.385C392.786 310.079 391.488 290.418 388.906 271.647C380.428 275.152 364.928 280.886 349.432 283.19C350.759 293.066 352.131 302.058 353.175 308.59C337.22 310.01 270.668 316.002 261.483 317.864C251.634 319.84 231.941 331.417 228.578 333.152C225.728 334.342 220.54 339.616 218.944 341.604C217.348 343.592 213.063 351.371 213.063 351.371Z" fill="#C36F0B"/>
<path d="M349.422 283.184C349.671 285.057 349.91 286.896 350.179 288.688C367.749 285.505 383.474 287.901 390.917 289.498C390.395 283.569 389.707 277.559 388.892 271.641C380.433 275.146 364.938 280.88 349.422 283.184Z" fill="#B65A18"/>
<path d="M363.088 174.962C372.849 185.631 385.085 223.988 395.5 268.763C395.5 268.763 370.399 280.742 346.416 283.592C346.416 283.592 335.273 224.844 335.517 194.611C335.761 164.379 350.188 160.908 363.088 174.962Z" fill="#F0E1D4"/>
<path d="M345.962 283.592C345.962 283.592 341.677 262.546 337.392 236.812" stroke="#D8BAA3" stroke-width="5" stroke-miterlimit="10" stroke-linecap="round"/>
<path d="M222.736 353.457C222.736 353.457 228.768 340.886 230.823 339.559C234.415 337.186 239.12 334.066 239.12 334.066" stroke="#B65A18" stroke-width="3" stroke-miterlimit="10" stroke-linecap="round"/>
<path d="M226.963 353.199C226.963 353.199 232.302 342.857 234.343 341.506C237.935 339.134 242.64 336.014 242.64 336.014" stroke="#B65A18" stroke-width="3" stroke-miterlimit="10" stroke-linecap="round"/>
<path d="M311.773 99.0753C311.773 99.0753 309.591 125.884 325.58 141.282C325.58 141.282 305.233 157.254 286.096 154.117L279.312 120.179L311.773 99.0753Z" fill="#C36F0B"/>
<path d="M279.307 120.179L286.091 154.117L286.93 154.238C308.942 141.965 311.465 111.204 311.738 105.51C311.629 103.367 311.64 101.217 311.772 99.0753L279.307 120.179Z" fill="#B65A18"/>
<path d="M311.772 99.0753C311.772 99.0753 308.488 134.152 270.692 139.713C270.692 139.713 251.98 126.659 254.152 83.8038C255.909 49.0838 289.59 40.8735 302.309 60.1266C315.028 79.3798 311.772 99.0753 311.772 99.0753Z" fill="#C36F0B"/>
<path d="M264.909 34.8636C255.573 37.2423 234.903 51.6232 245.206 81.4021" stroke="#FFB000" stroke-width="3" stroke-miterlimit="10"/>
<path d="M311.075 34.1742C311.075 34.1742 302.446 9.07787 317.781 0.781372" stroke="#FFB000" stroke-width="3" stroke-miterlimit="10"/>
<path d="M285.047 75.8061C293.441 69.486 296.98 56.461 295.891 51.6233" stroke="#FFB000" stroke-width="3" stroke-miterlimit="10"/>
<path d="M312.202 108.55C312.202 108.55 335.512 94.8351 331.129 61.7583C330.788 59.2846 330.237 56.8574 329.485 54.5132C332.964 54.743 346.796 54.4558 352.887 36.4322C358.9 18.6613 345.595 -4.90668 322.764 2.91294C311.778 6.67623 311.143 24.0678 311.358 31.1578C310.193 30.588 308.996 30.1138 307.776 29.7387C292.519 25.0963 269.614 30.7671 261.727 35.4841C253.206 40.5804 237.324 58.7706 252.678 84.1945C253.106 84.9061 253.566 85.5908 254.055 86.2456C254.055 85.4412 254.113 84.6311 254.152 83.8038C254.261 81.5695 254.519 79.3487 254.924 77.162C264.016 73.9215 274.163 75.1166 279.927 75.6222C287.37 70.2559 292.543 59.3337 295.301 53.2837C295.877 53.6342 296.438 54.0191 296.98 54.4328C296.98 54.4328 297.346 79.012 312.11 94.7432C312.081 96.195 311.965 97.6426 311.763 99.0753L312.202 108.55Z" fill="#FFB000"/>
<path d="M258.136 105.137C252.429 105.137 247.803 99.6911 247.803 92.9736C247.803 86.256 252.429 80.8104 258.136 80.8104C263.842 80.8104 268.468 86.256 268.468 92.9736C268.468 99.6911 263.842 105.137 258.136 105.137Z" stroke="#F0E1D4" stroke-width="5" stroke-miterlimit="10"/>
<path d="M283.9 105.137C278.194 105.137 273.568 99.6911 273.568 92.9736C273.568 86.256 278.194 80.8104 283.9 80.8104C289.607 80.8104 294.232 86.256 294.232 92.9736C294.232 99.6911 289.607 105.137 283.9 105.137Z" stroke="#F0E1D4" stroke-width="5" stroke-miterlimit="10"/>
<path d="M268.463 92.9736H273.573" stroke="#F0E1D4" stroke-width="5" stroke-miterlimit="10"/>
<path d="M294.232 90.9626L307.229 87.2855" stroke="#F0E1D4" stroke-width="5" stroke-miterlimit="10"/>
<path d="M312.251 88.2048L304.032 30.9912C303.775 29.2971 303.237 27.6792 302.448 26.2301C301.659 24.7809 300.636 23.5289 299.436 22.5456C298.237 21.5622 296.884 20.8668 295.456 20.499C294.028 20.1312 292.552 20.0984 291.113 20.4022L273.372 24.3839C272.277 24.6373 271.311 25.3886 270.683 26.4748C270.056 27.5611 269.817 28.8948 270.019 30.1868" stroke="#3F4D79" stroke-width="4" stroke-miterlimit="10" stroke-linecap="round"/>
<path d="M312.328 100.201L312.719 109.245C312.792 114.1 310.61 119.236 306.272 120.161L271.131 127.964" stroke="#3F4D79" stroke-width="4" stroke-miterlimit="10" stroke-linecap="round"/>
<path d="M312.726 104.225C308.405 104.194 304.927 99.261 304.957 93.2067C304.986 87.1525 308.513 82.2697 312.834 82.3007C317.155 82.3318 320.633 87.2649 320.603 93.3192C320.574 99.3734 317.047 104.256 312.726 104.225Z" fill="#3F4D79"/>
<path d="M270.934 132.604C268.595 132.588 266.707 130.699 266.719 128.386C266.731 126.073 268.637 124.211 270.977 124.227C273.316 124.244 275.203 126.132 275.192 128.445C275.18 130.758 273.274 132.62 270.934 132.604Z" fill="#3F4D79"/>
<path d="M149.685 362.61H141.636C139.835 362.61 138.074 361.99 136.568 360.828C135.062 359.665 133.877 358.01 133.159 356.066L81.1072 215.301C80.5013 213.644 80.2539 211.835 80.387 210.038C80.5202 208.24 81.0297 206.51 81.87 205.001C82.7104 203.492 83.8554 202.252 85.2025 201.391C86.5496 200.531 88.057 200.076 89.5897 200.07L149.685 362.61Z" fill="white" stroke="#D8BAA3" stroke-width="6" stroke-miterlimit="10"/>
<path d="M295.541 378.191H154.789C148.327 378.191 143.076 371.216 143.076 362.61H283.842C290.304 362.61 295.556 369.585 295.556 378.191H295.541Z" fill="white" stroke="#D8BAA3" stroke-width="6" stroke-miterlimit="10"/>
</g>
<defs>
<clipPath id="clip0">
<rect width="428" height="749" fill="white" transform="matrix(-1 0 0 1 428 0)"/>
</clipPath>
</defs>
</svg>
