<svg width="49" height="49" viewBox="0 0 49 49" fill="none" xmlns="http://www.w3.org/2000/svg">
<path d="M31.3364 4.71674C32.1855 4.71475 32.8569 5.37442 32.8589 6.25398L32.8609 7.75322C38.3702 8.18501 42.0094 11.9391 42.0154 17.6962L42.0371 34.5478C42.045 40.8247 38.1016 44.6867 31.7807 44.6967L16.3409 44.7167C10.0595 44.7247 6.06676 40.7707 6.05886 34.4758L6.03712 17.8222C6.02924 12.0271 9.54018 8.28296 15.0495 7.77721L15.0475 6.27796C15.0455 5.3984 15.6972 4.73673 16.566 4.73673C17.4348 4.73474 18.0865 5.39441 18.0885 6.27397L18.0904 7.67326L29.8199 7.65727L29.8179 6.25797C29.8159 5.37841 30.4676 4.71874 31.3364 4.71674ZM32.1421 33.1005H32.1223C31.214 33.1225 30.4853 33.8841 30.5051 34.8037C30.5071 35.7232 31.2397 36.4808 32.148 36.5008C33.0741 36.4988 33.8245 35.7372 33.8225 34.7977C33.8225 33.8582 33.0702 33.1005 32.1421 33.1005ZM15.8709 33.1025C14.9626 33.1425 14.2517 33.9041 14.2537 34.8237C14.2951 35.7432 15.0455 36.4628 15.9539 36.4209C16.8444 36.3809 17.5533 35.6193 17.5119 34.6997C17.4921 33.8002 16.7595 33.1005 15.8709 33.1025ZM24.0065 33.0925C23.0982 33.1345 22.3893 33.8941 22.3893 34.8137C22.4307 35.7332 23.1811 36.4509 24.0894 36.4109C24.978 36.3689 25.6889 35.6093 25.6474 34.6877C25.6277 33.7902 24.8951 33.0905 24.0065 33.0925ZM15.861 25.9061C14.9527 25.9461 14.2438 26.7077 14.2458 27.6273C14.2853 28.5468 15.0376 29.2664 15.946 29.2245C16.8346 29.1845 17.5435 28.4229 17.502 27.5033C17.4822 26.6038 16.7516 25.9041 15.861 25.9061ZM23.9986 25.8362C23.0903 25.8761 22.3794 26.6378 22.3814 27.5573C22.4209 28.4768 23.1732 29.1945 24.0815 29.1545C24.9701 29.1125 25.679 28.3529 25.6395 27.4334C25.6178 26.5338 24.8872 25.8342 23.9986 25.8362ZM32.1342 25.8462C31.2258 25.8662 30.515 26.6058 30.5169 27.5253V27.5473C30.5367 28.4668 31.2871 29.1645 32.1974 29.1445C33.086 29.1225 33.7949 28.3609 33.7751 27.4414C33.7337 26.5618 33.0208 25.8442 32.1342 25.8462ZM29.8238 10.7357L18.0944 10.7517L18.0964 12.3689C18.0964 13.2305 17.4467 13.9101 16.5778 13.9101C15.709 13.9121 15.0554 13.2345 15.0554 12.3729L15.0534 10.8337C11.2028 11.2195 9.07218 13.4824 9.07809 17.8182L9.08008 18.4399L38.9764 18.3999V17.7002C38.8915 13.4024 36.7351 11.1475 32.8648 10.8117L32.8668 12.3509C32.8668 13.2105 32.1974 13.8921 31.3483 13.8921C30.4794 13.8941 29.8258 13.2145 29.8258 12.3549L29.8238 10.7357Z" fill="#31456A"/>
</svg>
