<svg width="429" height="616" viewBox="0 0 429 616" fill="none" xmlns="http://www.w3.org/2000/svg">
<g clip-path="url(#clip0)">
<path d="M204.998 112.222H140.628" stroke="white" stroke-width="12.98" stroke-linecap="round" stroke-linejoin="round"/>
<path d="M204.998 142.939H147.681" stroke="white" stroke-width="12.98" stroke-linecap="round" stroke-linejoin="round"/>
<path d="M378.98 541.319V1.17938" stroke="#DFDFDF" stroke-width="2.93" stroke-linecap="round"/>
<path d="M241.962 541.319V1.17938" stroke="#DFDFDF" stroke-width="2.93" stroke-linecap="round"/>
<path d="M104.943 541.319V1.17938" stroke="#DFDFDF" stroke-width="2.93" stroke-linecap="round"/>
<path fill-rule="evenodd" clip-rule="evenodd" d="M264.649 146.258H200.759V239.518H264.649V146.258Z" fill="#31456A"/>
<path fill-rule="evenodd" clip-rule="evenodd" d="M264.649 146.258H200.759V167.089H264.649V146.258Z" fill="#B9CCE2"/>
<path fill-rule="evenodd" clip-rule="evenodd" d="M338.141 257.27C334.812 256.201 322.966 256.66 319.795 254.182C316.625 251.703 277.489 208.901 273.552 203.073C269.614 197.246 264.745 192.188 261.225 185.851C257.706 179.513 261.109 197.076 264.184 200.534C264.54 205.232 264.629 215.068 264.629 215.068C265.443 214.859 266.277 214.903 267.079 215.198C267.88 215.493 268.63 216.031 269.278 216.777C271.497 219.316 303.586 274.443 303.586 274.443C303.586 274.443 341.469 258.35 338.141 257.27Z" fill="#E49D75"/>
<path fill-rule="evenodd" clip-rule="evenodd" d="M367.21 421.96C369.196 432.955 373.024 509.922 361.253 548.426C366.361 576.584 392.308 707.808 392.308 707.808L379.406 724.401L312.9 577.464C312.9 577.464 326.746 416.722 367.21 421.96Z" fill="#5FC5D1"/>
<path fill-rule="evenodd" clip-rule="evenodd" d="M299.307 417.202C296.616 428.127 269.115 571.466 269.115 571.466L262.897 745.582L277.127 747.221L321.33 571.896C326.726 562.97 361.006 443.161 362.547 427.787C355.809 417.332 301.998 406.267 299.307 417.202Z" fill="#6BD5E1"/>
<path fill-rule="evenodd" clip-rule="evenodd" d="M348.789 250.323C343.372 250.323 312.694 261.178 306.928 278.671C303.757 288.287 289.849 405.847 297.574 424.329C305.298 442.811 358.52 442.021 368.901 428.087C374.742 420.271 376.625 250.263 348.789 250.323Z" fill="#FFD98E"/>
<path fill-rule="evenodd" clip-rule="evenodd" d="M516 0H-33V72.3092H516V0Z" fill="#E0E0E0" fill-opacity="0.54"/>
<path d="M490.561 114.661H405.346" stroke="white" stroke-width="12.98" stroke-linecap="round" stroke-linejoin="round"/>
<path fill-rule="evenodd" clip-rule="evenodd" d="M355.582 230.312H343.831V263.597C348.056 268.505 355.582 263.597 355.582 263.597V230.312Z" fill="#E49D75"/>
<path fill-rule="evenodd" clip-rule="evenodd" d="M370.612 200.225C370.612 179.483 360.964 162.671 349.055 162.671C337.147 162.671 327.505 179.483 327.505 200.225C327.505 220.966 337.154 237.788 349.055 237.788C360.957 237.788 370.612 220.966 370.612 200.225Z" fill="#E49D75"/>
<path fill-rule="evenodd" clip-rule="evenodd" d="M351.652 156.493C344.75 156.263 335.978 162.67 335.978 167.119C335.978 174.815 344.154 192.268 350.242 199.425C348.537 205.172 346.975 208.971 346.975 213.849C346.975 218.727 352.173 237.838 352.173 250.833C352.173 261.029 350.611 267.966 350.611 276.422C350.611 299.522 360.938 313.506 375.873 313.506C390.808 313.506 400.84 289.866 400.902 270.674C400.977 247.144 383.098 218.267 378.763 200.524C375.113 185.551 368.204 156.493 351.652 156.493Z" fill="black"/>
<path fill-rule="evenodd" clip-rule="evenodd" d="M356.213 202.164C356.213 200.605 355.896 199.082 355.303 197.787C354.71 196.491 353.867 195.482 352.88 194.886C351.894 194.29 350.808 194.134 349.762 194.439C348.715 194.744 347.753 195.495 346.999 196.598C346.244 197.7 345.731 199.105 345.524 200.633C345.316 202.162 345.424 203.746 345.833 205.185C346.243 206.624 346.936 207.853 347.824 208.718C348.712 209.582 349.756 210.042 350.824 210.04C351.532 210.04 352.233 209.837 352.888 209.441C353.542 209.045 354.136 208.464 354.637 207.733C355.137 207.001 355.534 206.133 355.805 205.177C356.075 204.222 356.214 203.198 356.213 202.164Z" fill="#E49D75"/>
<path fill-rule="evenodd" clip-rule="evenodd" d="M298.163 314.226C292.109 316.325 267.313 322.392 262.554 320.223C257.794 318.054 208.764 249.803 204.943 244.756C201.121 239.708 193.452 232.561 192.527 223.824C191.603 215.088 192.527 207.611 200.841 203.233C200.683 208.871 200.533 217.667 200.697 216.358C202.101 209.561 202.265 201.854 204.806 201.944C206.175 208.301 204.244 220.286 207.613 228.313C211.482 234.45 262.869 283.669 268.265 286.158C275.304 286.158 293.355 277.162 293.355 277.162C293.355 277.162 304.209 312.127 298.163 314.226Z" fill="#E49D75"/>
<path fill-rule="evenodd" clip-rule="evenodd" d="M338.407 278.971C334.217 253.282 297.45 266.866 291.267 274.073C289.103 283.859 292.506 312.886 297.909 318.274C306.024 319.993 342.872 306.299 338.407 278.971Z" fill="#FFE4AD"/>
<path d="M490.561 169.348H426.191" stroke="white" stroke-width="12.98" stroke-linecap="round" stroke-linejoin="round"/>
<path d="M490.561 298.742H426.191" stroke="white" stroke-width="12.98" stroke-linecap="round" stroke-linejoin="round"/>
<path d="M490.561 329.459H433.244" stroke="white" stroke-width="12.98" stroke-linecap="round" stroke-linejoin="round"/>
<path d="M81.29 110.303H-3.92475" stroke="white" stroke-width="12.98" stroke-linecap="round" stroke-linejoin="round"/>
<path d="M81.29 144.378H21.7136" stroke="white" stroke-width="12.98" stroke-linecap="round" stroke-linejoin="round"/>
<path d="M81.29 180.633H1.26598" stroke="white" stroke-width="12.98" stroke-linecap="round" stroke-linejoin="round"/>
<path d="M81.29 213.619H40.9562" stroke="white" stroke-width="12.98" stroke-linecap="round" stroke-linejoin="round"/>
<path d="M223.111 189.258H223.194L227.48 192.567L228.124 188.888L222.769 184.71H219.948V220.455H223.111V189.258Z" fill="#A4A4A4"/>
<path d="M247.172 184.71V187.921L238.555 220.71H235.789L244.368 188.858V188.747H234.694V184.72L247.172 184.71Z" fill="#A4A4A4"/>
</g>
<defs>
<clipPath id="clip0">
<rect width="484" height="774" fill="white" transform="matrix(-1 0 0 1 484 0)"/>
</clipPath>
</defs>
</svg>
