<svg width="32" height="32" viewBox="0 0 32 32" fill="none" xmlns="http://www.w3.org/2000/svg">
<path d="M23.0907 0.102667C24.7147 0.177333 25.8373 0.416 26.8747 0.818667C27.8582 1.18641 28.7487 1.76639 29.4827 2.51733C30.2336 3.25132 30.8136 4.14176 31.1813 5.12533C31.584 6.164 31.8227 7.28533 31.8973 8.90933C31.9893 10.9227 32 11.632 32 16C32 20.368 31.9893 21.0773 31.8973 23.0907C31.8227 24.7147 31.584 25.8373 31.1813 26.876C30.8134 27.8591 30.2334 28.7491 29.4827 29.4827C28.7487 30.2336 27.8583 30.8136 26.8747 31.1813C25.836 31.584 24.7147 31.8227 23.0907 31.8973C21.0773 31.9893 20.3693 32 16 32C11.6307 32 10.9213 31.9893 8.90933 31.8973C7.28533 31.8227 6.16267 31.584 5.124 31.1813C4.14089 30.8135 3.2509 30.2335 2.51733 29.4827C1.76639 28.7487 1.18641 27.8582 0.818667 26.8747C0.416 25.836 0.177333 24.7147 0.102667 23.0907C0.0106667 21.08 0 20.3707 0 16C0 11.6307 0.0106667 10.92 0.102667 8.90933C0.177333 7.28533 0.416 6.16267 0.818667 5.12533C1.18641 4.14176 1.76639 3.25132 2.51733 2.51733C3.25093 1.76655 4.14091 1.18659 5.124 0.818667C6.164 0.416 7.28533 0.177333 8.90933 0.102667C10.92 0.0106667 11.6293 0 16 0C20.3693 0 21.08 0.0106667 23.0907 0.102667ZM16 3.556C11.68 3.556 11.0187 3.56533 9.07067 3.65467C7.83467 3.71067 7.09333 3.868 6.412 4.13333C5.832 4.36 5.46267 4.6 5.03067 5.03067C4.59867 5.46267 4.35867 5.832 4.13333 6.412C3.86933 7.092 3.71067 7.83467 3.65467 9.07067C3.56533 11.0187 3.556 11.68 3.556 16C3.556 20.32 3.56533 20.9813 3.65467 22.9293C3.71067 24.1653 3.868 24.9067 4.13333 25.5867C4.36 26.168 4.6 26.5373 5.03067 26.9693C5.46267 27.4013 5.832 27.6413 6.412 27.8667C7.092 28.1307 7.83467 28.2893 9.07067 28.3453C11.02 28.4347 11.6813 28.444 16 28.444C20.32 28.444 20.98 28.4347 22.9293 28.3453C24.1653 28.2893 24.9067 28.132 25.588 27.8667C26.168 27.64 26.5373 27.4 26.9693 26.9693C27.4013 26.5373 27.6413 26.168 27.8667 25.588C28.1307 24.908 28.2893 24.1653 28.3453 22.9293C28.4347 20.98 28.444 20.3187 28.444 16C28.444 11.6813 28.4347 11.02 28.3453 9.07067C28.2893 7.83467 28.132 7.09333 27.8667 6.41333C27.6781 5.88944 27.371 5.41623 26.9693 5.03067C26.5838 4.62895 26.1106 4.32184 25.5867 4.13333C24.9067 3.86933 24.164 3.71067 22.928 3.65467C20.98 3.56533 20.3187 3.556 15.9987 3.556H16ZM16 24.296C13.7998 24.296 11.6896 23.422 10.1338 21.8662C8.57804 20.3104 7.704 18.2002 7.704 16C7.704 13.7998 8.57804 11.6896 10.1338 10.1338C11.6896 8.57804 13.7998 7.704 16 7.704C18.2002 7.704 20.3104 8.57804 21.8662 10.1338C23.422 11.6896 24.296 13.7998 24.296 16C24.296 18.2002 23.422 20.3104 21.8662 21.8662C20.3104 23.422 18.2002 24.296 16 24.296ZM16 20.7413C17.2575 20.7413 18.4635 20.2418 19.3526 19.3526C20.2418 18.4635 20.7413 17.2575 20.7413 16C20.7413 14.7425 20.2418 13.5365 19.3526 12.6474C18.4635 11.7582 17.2575 11.2587 16 11.2587C14.7425 11.2587 13.5365 11.7582 12.6474 12.6474C11.7582 13.5365 11.2587 14.7425 11.2587 16C11.2587 17.2575 11.7582 18.4635 12.6474 19.3526C13.5365 20.2418 14.7425 20.7413 16 20.7413ZM24.296 9.48133C23.8244 9.48133 23.3722 9.29401 23.0388 8.96057C22.7053 8.62713 22.518 8.17489 22.518 7.70333C22.518 7.23178 22.7053 6.77954 23.0388 6.4461C23.3722 6.11266 23.8244 5.92533 24.296 5.92533C24.7676 5.92533 25.2198 6.11266 25.5532 6.4461C25.8867 6.77954 26.074 7.23178 26.074 7.70333C26.074 8.17489 25.8867 8.62713 25.5532 8.96057C25.2198 9.29401 24.7676 9.48133 24.296 9.48133Z" fill="#31456A"/>
</svg>
