<svg width="245" height="466" viewBox="0 0 245 466" fill="none" xmlns="http://www.w3.org/2000/svg">
<path d="M119.642 440.428C115.167 440.636 109.481 449.82 114.004 462.942H116.333C116.333 462.942 116.84 454.363 121.185 454.259C126.203 454.142 128.649 462.942 133.213 462.942H155.721C155.721 462.942 155.387 458.5 149.481 457.791C136.683 456.256 135.099 442.865 135.099 442.865L119.642 440.428Z" fill="#E5B21A"/>
<path d="M165.165 377.973C165.165 377.973 132.611 422.539 135.363 444.493C136.6 454.453 121.377 447.097 117.895 437.697C109.033 413.752 110.068 385.482 110.068 385.482C110.068 385.482 140.74 383.435 165.165 377.973Z" fill="#D49046"/>
<path d="M165.162 377.973C165.162 377.973 163.81 379.824 161.68 382.959C144.771 387.1 127.503 389.929 110.065 391.415C109.987 387.701 110.065 385.482 110.065 385.482C110.065 385.482 140.739 383.435 165.162 377.973Z" fill="#CB7C2D"/>
<path d="M24.9946 435.625C20.5604 435.064 13.0463 443.092 14.7285 456.755L17.0136 457.155C17.0136 457.155 19.3142 448.82 23.6031 449.472C28.5506 450.223 29.1041 459.276 33.5878 460.068C38.7271 460.97 55.6817 462.43 55.6817 462.43C55.6817 462.43 56.3001 458.01 50.6383 456.296C38.3962 452.584 39.6579 440.683 39.6579 440.683L24.9946 435.625Z" fill="#E5B21A"/>
<path d="M78.5515 385.939C78.5515 385.939 41.5038 420.301 39.5897 442.33C38.7239 452.324 25.3099 442.473 23.872 432.645C20.2046 407.613 27.1652 379.007 27.1652 379.007C27.1652 379.007 53.0779 386.009 78.5515 385.939Z" fill="#D49046"/>
<path d="M27.1653 379.007C27.1653 379.007 53.0626 386.009 78.5486 385.93C78.5486 385.93 76.1243 388.171 72.4878 391.896C56.9773 390.908 41.1977 388.255 26.2871 383.085C26.7942 380.502 27.1653 379.007 27.1653 379.007Z" fill="#CB7C2D"/>
<path d="M203.733 242.968C203.733 234.582 211.118 227.781 220.224 227.781C229.334 227.781 236.718 234.582 236.718 242.968V462.942" stroke="#E5B21A" stroke-width="5" stroke-miterlimit="10"/>
<path d="M240.132 462.942H233.088C231.641 462.942 230.577 462.029 230.923 461.082L232.587 456.399C232.896 455.528 234.056 454.912 235.37 454.912H237.844C239.173 454.912 240.317 455.528 240.627 456.399L242.321 461.074C242.63 462.029 241.579 462.942 240.132 462.942Z" fill="white" stroke="#E5B21A" stroke-width="5" stroke-miterlimit="10"/>
<path d="M210.808 207.903C211.102 210.012 212.58 211.99 215.867 212.945C220.363 214.233 233.981 218.569 236.511 225.907C238.137 230.63 239.872 234.26 239.872 234.26C239.872 234.26 236.035 235.643 233.199 232.792C228.252 227.82 219.009 227.501 215.805 227.728C212.602 227.955 203.746 226.101 199.516 215.566C195.285 205.032 210.808 207.903 210.808 207.903Z" fill="#D49046"/>
<path d="M124.368 66.5368C147.337 67.3911 178.343 80.4071 190.341 134.56C202.338 188.714 219.327 210.805 219.327 210.805L200.836 222.434C200.836 222.434 167.35 211.264 156.852 197.052C156.852 197.052 165.383 234.335 175.612 270.207C192.146 328.186 177.344 375.242 177.344 375.242C177.344 375.242 90.1437 399.008 20.1794 377.071C20.1794 377.071 0.952031 277.162 0.921108 247.867C0.819066 148.89 37.9039 63.3102 124.368 66.5368Z" fill="#6464C8"/>
<path d="M128.898 146.041C128.898 146.041 129.01 173.732 159.867 201.814" stroke="white" stroke-width="4" stroke-miterlimit="10"/>
<g opacity="0.36">
<path opacity="0.36" d="M190.1 214.606C192.431 214.606 194.321 212.894 194.321 210.782C194.321 208.671 192.431 206.959 190.1 206.959C187.769 206.959 185.879 208.671 185.879 210.782C185.879 212.894 187.769 214.606 190.1 214.606Z" fill="white"/>
<path opacity="0.36" d="M204.045 202.444C206.376 202.444 208.266 200.732 208.266 198.621C208.266 196.509 206.376 194.797 204.045 194.797C201.714 194.797 199.824 196.509 199.824 198.621C199.824 200.732 201.714 202.444 204.045 202.444Z" fill="white"/>
<path opacity="0.36" d="M77.843 99.7307C80.1741 99.7307 82.0638 98.019 82.0638 95.9075C82.0638 93.7959 80.1741 92.0842 77.843 92.0842C75.5118 92.0842 73.6221 93.7959 73.6221 95.9075C73.6221 98.019 75.5118 99.7307 77.843 99.7307Z" fill="white"/>
<path opacity="0.36" d="M107.831 90.5633C110.162 90.5633 112.052 88.8515 112.052 86.74C112.052 84.6285 110.162 82.9167 107.831 82.9167C105.5 82.9167 103.61 84.6285 103.61 86.74C103.61 88.8515 105.5 90.5633 107.831 90.5633Z" fill="white"/>
<path opacity="0.36" d="M105.116 119.791C107.447 119.791 109.337 118.079 109.337 115.968C109.337 113.856 107.447 112.145 105.116 112.145C102.785 112.145 100.896 113.856 100.896 115.968C100.896 118.079 102.785 119.791 105.116 119.791Z" fill="white"/>
<path opacity="0.36" d="M95.1193 104.725C97.4504 104.725 99.3401 103.013 99.3401 100.902C99.3401 98.79 97.4504 97.0783 95.1193 97.0783C92.7882 97.0783 90.8984 98.79 90.8984 100.902C90.8984 103.013 92.7882 104.725 95.1193 104.725Z" fill="white"/>
<path opacity="0.36" d="M93.9933 79.5052C96.3244 79.5052 98.2142 77.7935 98.2142 75.6819C98.2142 73.5704 96.3244 71.8587 93.9933 71.8587C91.6622 71.8587 89.7725 73.5704 89.7725 75.6819C89.7725 77.7935 91.6622 79.5052 93.9933 79.5052Z" fill="white"/>
<path opacity="0.36" d="M74.9739 80.4491C74.9757 81.4326 74.5589 82.3789 73.8103 83.0912C73.0617 83.8036 72.0388 84.2273 70.9543 84.2741C69.8698 84.321 68.807 83.9875 67.9869 83.343C67.1668 82.6985 66.6525 81.7924 66.5508 80.8133C68.6349 79.5267 70.7737 78.3204 72.9671 77.1945C73.5802 77.5369 74.0865 78.0158 74.4377 78.5854C74.789 79.1551 74.9736 79.7966 74.9739 80.4491Z" fill="white"/>
<path opacity="0.36" d="M122.073 74.9985C124.405 74.9985 126.294 73.2867 126.294 71.1752C126.294 69.0637 124.405 67.3519 122.073 67.3519C119.742 67.3519 117.853 69.0637 117.853 71.1752C117.853 73.2867 119.742 74.9985 122.073 74.9985Z" fill="white"/>
<path opacity="0.36" d="M124.788 103.554C127.119 103.554 129.009 101.842 129.009 99.7308C129.009 97.6193 127.119 95.9075 124.788 95.9075C122.457 95.9075 120.567 97.6193 120.567 99.7308C120.567 101.842 122.457 103.554 124.788 103.554Z" fill="white"/>
<path opacity="0.36" d="M137.034 88.0985C139.365 88.0985 141.255 86.3867 141.255 84.2752C141.255 82.1636 139.365 80.4519 137.034 80.4519C134.703 80.4519 132.813 82.1636 132.813 84.2752C132.813 86.3867 134.703 88.0985 137.034 88.0985Z" fill="white"/>
<path opacity="0.36" d="M156.24 76.6427C155.597 77.395 154.668 77.9033 153.634 78.0686C152.599 78.2339 151.534 78.0443 150.646 77.5367C149.758 77.0291 149.11 76.24 148.829 75.3233C148.549 74.4065 148.655 73.428 149.128 72.5785C151.604 73.775 153.981 75.1333 156.24 76.6427Z" fill="white"/>
<path opacity="0.36" d="M161.076 97.0783C163.407 97.0783 165.297 95.3666 165.297 93.255C165.297 91.1435 163.407 89.4318 161.076 89.4318C158.745 89.4318 156.855 91.1435 156.855 93.255C156.855 95.3666 158.745 97.0783 161.076 97.0783Z" fill="white"/>
<path opacity="0.36" d="M146.864 108.548C149.196 108.548 151.085 106.836 151.085 104.725C151.085 102.613 149.196 100.902 146.864 100.902C144.533 100.902 142.644 102.613 142.644 104.725C142.644 106.836 144.533 108.548 146.864 108.548Z" fill="white"/>
<path opacity="0.36" d="M124.788 128.312C127.119 128.312 129.009 126.6 129.009 124.488C129.009 122.377 127.119 120.665 124.788 120.665C122.457 120.665 120.567 122.377 120.567 124.488C120.567 126.6 122.457 128.312 124.788 128.312Z" fill="white"/>
<path opacity="0.36" d="M105.116 145.352C107.447 145.352 109.337 143.641 109.337 141.529C109.337 139.418 107.447 137.706 105.116 137.706C102.785 137.706 100.896 139.418 100.896 141.529C100.896 143.641 102.785 145.352 105.116 145.352Z" fill="white"/>
<path opacity="0.36" d="M80.4465 124.488C82.7776 124.488 84.6673 122.776 84.6673 120.665C84.6673 118.553 82.7776 116.842 80.4465 116.842C78.1153 116.842 76.2256 118.553 76.2256 120.665C76.2256 122.776 78.1153 124.488 80.4465 124.488Z" fill="white"/>
<path opacity="0.36" d="M58.2043 104.725C60.5354 104.725 62.4251 103.013 62.4251 100.902C62.4251 98.79 60.5354 97.0783 58.2043 97.0783C55.8731 97.0783 53.9834 98.79 53.9834 100.902C53.9834 103.013 55.8731 104.725 58.2043 104.725Z" fill="white"/>
<path opacity="0.36" d="M55.7062 126.849C58.0373 126.849 59.9271 125.138 59.9271 123.026C59.9271 120.915 58.0373 119.203 55.7062 119.203C53.3751 119.203 51.4854 120.915 51.4854 123.026C51.4854 125.138 53.3751 126.849 55.7062 126.849Z" fill="white"/>
<path opacity="0.36" d="M70.7521 146.296C73.0832 146.296 74.973 144.585 74.973 142.473C74.973 140.362 73.0832 138.65 70.7521 138.65C68.421 138.65 66.5312 140.362 66.5312 142.473C66.5312 144.585 68.421 146.296 70.7521 146.296Z" fill="white"/>
<path opacity="0.36" d="M145.476 132.135C147.807 132.135 149.697 130.423 149.697 128.312C149.697 126.2 147.807 124.488 145.476 124.488C143.145 124.488 141.255 126.2 141.255 128.312C141.255 130.423 143.145 132.135 145.476 132.135Z" fill="white"/>
<path opacity="0.36" d="M165.297 116.195C167.628 116.195 169.518 114.483 169.518 112.371C169.518 110.26 167.628 108.548 165.297 108.548C162.966 108.548 161.076 110.26 161.076 112.371C161.076 114.483 162.966 116.195 165.297 116.195Z" fill="white"/>
<path opacity="0.36" d="M188.247 126.191C187.701 126.527 187.075 126.743 186.42 126.82C185.765 126.897 185.1 126.834 184.476 126.636C183.853 126.438 183.29 126.11 182.832 125.679C182.375 125.247 182.035 124.725 181.841 124.153C181.647 123.581 181.603 122.976 181.714 122.386C181.825 121.796 182.088 121.238 182.48 120.757C182.873 120.276 183.384 119.885 183.974 119.615C184.564 119.346 185.215 119.206 185.876 119.206H186.092C186.853 121.443 187.571 123.771 188.247 126.191Z" fill="white"/>
<path opacity="0.36" d="M169.518 142.473C171.849 142.473 173.739 140.761 173.739 138.65C173.739 136.538 171.849 134.827 169.518 134.827C167.187 134.827 165.297 136.538 165.297 138.65C165.297 140.761 167.187 142.473 169.518 142.473Z" fill="white"/>
<path opacity="0.36" d="M142.644 153.943C144.975 153.943 146.865 152.231 146.865 150.12C146.865 148.008 144.975 146.296 142.644 146.296C140.313 146.296 138.423 148.008 138.423 150.12C138.423 152.231 140.313 153.943 142.644 153.943Z" fill="white"/>
<path opacity="0.36" d="M161.076 163.424C163.407 163.424 165.297 161.712 165.297 159.601C165.297 157.489 163.407 155.778 161.076 155.778C158.745 155.778 156.855 157.489 156.855 159.601C156.855 161.712 158.745 163.424 161.076 163.424Z" fill="white"/>
<path opacity="0.36" d="M187.158 153.943C189.489 153.943 191.379 152.231 191.379 150.12C191.379 148.008 189.489 146.296 187.158 146.296C184.827 146.296 182.938 148.008 182.938 150.12C182.938 152.231 184.827 153.943 187.158 153.943Z" fill="white"/>
<path opacity="0.36" d="M181.654 171.667C183.986 171.667 185.875 169.956 185.875 167.844C185.875 165.732 183.986 164.021 181.654 164.021C179.323 164.021 177.434 165.732 177.434 167.844C177.434 169.956 179.323 171.667 181.654 171.667Z" fill="white"/>
<path opacity="0.36" d="M148.59 175.491C150.921 175.491 152.811 173.779 152.811 171.667C152.811 169.556 150.921 167.844 148.59 167.844C146.259 167.844 144.369 169.556 144.369 171.667C144.369 173.779 146.259 175.491 148.59 175.491Z" fill="white"/>
<path opacity="0.36" d="M165.297 187.991C167.628 187.991 169.518 186.279 169.518 184.168C169.518 182.056 167.628 180.345 165.297 180.345C162.966 180.345 161.076 182.056 161.076 184.168C161.076 186.279 162.966 187.991 165.297 187.991Z" fill="white"/>
<path opacity="0.36" d="M195.604 184.168C197.935 184.168 199.825 182.456 199.825 180.345C199.825 178.233 197.935 176.521 195.604 176.521C193.273 176.521 191.383 178.233 191.383 180.345C191.383 182.456 193.273 184.168 195.604 184.168Z" fill="white"/>
<path opacity="0.36" d="M182.938 196.329C185.269 196.329 187.158 194.618 187.158 192.506C187.158 190.395 185.269 188.683 182.938 188.683C180.607 188.683 178.717 190.395 178.717 192.506C178.717 194.618 180.607 196.329 182.938 196.329Z" fill="white"/>
<path opacity="0.36" d="M161.076 200.861C163.407 200.861 165.297 199.15 165.297 197.038C165.297 194.927 163.407 193.215 161.076 193.215C158.745 193.215 156.855 194.927 156.855 197.038C156.855 199.15 158.745 200.861 161.076 200.861Z" fill="white"/>
<path opacity="0.36" d="M88.8879 161.592C91.219 161.592 93.1087 159.881 93.1087 157.769C93.1087 155.657 91.219 153.946 88.8879 153.946C86.5567 153.946 84.667 155.657 84.667 157.769C84.667 159.881 86.5567 161.592 88.8879 161.592Z" fill="white"/>
<path opacity="0.36" d="M51.4845 150.12C53.8156 150.12 55.7054 148.408 55.7054 146.296C55.7054 144.185 53.8156 142.473 51.4845 142.473C49.1534 142.473 47.2637 144.185 47.2637 146.296C47.2637 148.408 49.1534 150.12 51.4845 150.12Z" fill="white"/>
<path opacity="0.36" d="M29.2892 137.706C31.6203 137.706 33.5101 135.994 33.5101 133.883C33.5101 131.771 31.6203 130.059 29.2892 130.059C26.9581 130.059 25.0684 131.771 25.0684 133.883C25.0684 135.994 26.9581 137.706 29.2892 137.706Z" fill="white"/>
<path opacity="0.36" d="M40.0255 110.78C40.0257 111.485 39.8111 112.175 39.4055 112.776C38.9999 113.377 38.4191 113.864 37.7269 114.185C37.0348 114.506 36.2584 114.647 35.4832 114.593C34.7081 114.54 33.9643 114.293 33.334 113.881C34.7873 111.67 36.2984 109.523 37.8672 107.439C38.5227 107.772 39.0684 108.257 39.4478 108.844C39.8272 109.431 40.0267 110.1 40.0255 110.78Z" fill="white"/>
<path opacity="0.36" d="M118.178 169.239C120.509 169.239 122.399 167.527 122.399 165.416C122.399 163.304 120.509 161.592 118.178 161.592C115.847 161.592 113.957 163.304 113.957 165.416C113.957 167.527 115.847 169.239 118.178 169.239Z" fill="white"/>
<path opacity="0.36" d="M99.3859 185.201C101.717 185.201 103.607 183.49 103.607 181.378C103.607 179.267 101.717 177.555 99.3859 177.555C97.0548 177.555 95.165 179.267 95.165 181.378C95.165 183.49 97.0548 185.201 99.3859 185.201Z" fill="white"/>
<path opacity="0.36" d="M68.2785 176.521C70.6096 176.521 72.4994 174.81 72.4994 172.698C72.4994 170.586 70.6096 168.875 68.2785 168.875C65.9474 168.875 64.0576 170.586 64.0576 172.698C64.0576 174.81 65.9474 176.521 68.2785 176.521Z" fill="white"/>
<path opacity="0.36" d="M33.5099 165.416C35.841 165.416 37.7308 163.704 37.7308 161.592C37.7308 159.481 35.841 157.769 33.5099 157.769C31.1788 157.769 29.2891 159.481 29.2891 161.592C29.2891 163.704 31.1788 165.416 33.5099 165.416Z" fill="white"/>
<path opacity="0.36" d="M44.2492 189.025C46.5803 189.025 48.4701 187.313 48.4701 185.201C48.4701 183.09 46.5803 181.378 44.2492 181.378C41.9181 181.378 40.0283 183.09 40.0283 185.201C40.0283 187.313 41.9181 189.025 44.2492 189.025Z" fill="white"/>
<path opacity="0.36" d="M14.3937 181.378C16.7248 181.378 18.6146 179.666 18.6146 177.555C18.6146 175.443 16.7248 173.732 14.3937 173.732C12.0626 173.732 10.1729 175.443 10.1729 177.555C10.1729 179.666 12.0626 181.378 14.3937 181.378Z" fill="white"/>
<path opacity="0.36" d="M22.839 202.444C25.1701 202.444 27.0599 200.732 27.0599 198.621C27.0599 196.509 25.1701 194.797 22.839 194.797C20.5079 194.797 18.6182 196.509 18.6182 198.621C18.6182 200.732 20.5079 202.444 22.839 202.444Z" fill="white"/>
<path opacity="0.36" d="M68.2785 202.444C70.6096 202.444 72.4994 200.732 72.4994 198.621C72.4994 196.509 70.6096 194.797 68.2785 194.797C65.9474 194.797 64.0576 196.509 64.0576 198.621C64.0576 200.732 65.9474 202.444 68.2785 202.444Z" fill="white"/>
<path opacity="0.36" d="M44.2492 218.429C46.5803 218.429 48.4701 216.717 48.4701 214.606C48.4701 212.494 46.5803 210.782 44.2492 210.782C41.9181 210.782 40.0283 212.494 40.0283 214.606C40.0283 216.717 41.9181 218.429 44.2492 218.429Z" fill="white"/>
<path opacity="0.36" d="M93.1096 214.603C95.4407 214.603 97.3304 212.891 97.3304 210.78C97.3304 208.668 95.4407 206.956 93.1096 206.956C90.7784 206.956 88.8887 208.668 88.8887 210.78C88.8887 212.891 90.7784 214.603 93.1096 214.603Z" fill="white"/>
<path opacity="0.36" d="M126.622 200.153C128.953 200.153 130.843 198.441 130.843 196.33C130.843 194.218 128.953 192.506 126.622 192.506C124.291 192.506 122.401 194.218 122.401 196.33C122.401 198.441 124.291 200.153 126.622 200.153Z" fill="white"/>
<path opacity="0.36" d="M148.59 210.78C150.921 210.78 152.811 209.068 152.811 206.956C152.811 204.845 150.921 203.133 148.59 203.133C146.259 203.133 144.369 204.845 144.369 206.956C144.369 209.068 146.259 210.78 148.59 210.78Z" fill="white"/>
<path opacity="0.36" d="M117.559 222.252C119.89 222.252 121.78 220.54 121.78 218.429C121.78 216.317 119.89 214.606 117.559 214.606C115.228 214.606 113.338 216.317 113.338 218.429C113.338 220.54 115.228 222.252 117.559 222.252Z" fill="white"/>
<path opacity="0.36" d="M73.6222 230.403C75.9533 230.403 77.8431 228.691 77.8431 226.58C77.8431 224.468 75.9533 222.756 73.6222 222.756C71.2911 222.756 69.4014 224.468 69.4014 226.58C69.4014 228.691 71.2911 230.403 73.6222 230.403Z" fill="white"/>
<path opacity="0.36" d="M97.3302 239.923C99.6613 239.923 101.551 238.212 101.551 236.1C101.551 233.988 99.6613 232.277 97.3302 232.277C94.9991 232.277 93.1094 233.988 93.1094 236.1C93.1094 238.212 94.9991 239.923 97.3302 239.923Z" fill="white"/>
<path opacity="0.36" d="M53.9836 238.299C56.3147 238.299 58.2045 236.587 58.2045 234.475C58.2045 232.364 56.3147 230.652 53.9836 230.652C51.6524 230.652 49.7627 232.364 49.7627 234.475C49.7627 236.587 51.6524 238.299 53.9836 238.299Z" fill="white"/>
<path opacity="0.36" d="M25.0685 227.473C27.3996 227.473 29.2894 225.761 29.2894 223.65C29.2894 221.538 27.3996 219.827 25.0685 219.827C22.7374 219.827 20.8477 221.538 20.8477 223.65C20.8477 225.761 22.7374 227.473 25.0685 227.473Z" fill="white"/>
<path opacity="0.36" d="M8.32699 216.124C8.32763 216.799 8.13107 217.462 7.75727 218.045C7.38346 218.629 6.84574 219.113 6.19872 219.447C5.55171 219.782 4.81845 219.955 4.07345 219.95C3.32845 219.945 2.59825 219.761 1.95703 219.418C2.12607 217.123 2.32294 214.841 2.54764 212.572C3.1878 212.342 3.88023 212.258 4.56464 212.326C5.24905 212.394 5.90469 212.613 6.47447 212.963C7.04425 213.313 7.5109 213.784 7.83378 214.335C8.15666 214.886 8.32597 215.5 8.32699 216.124Z" fill="white"/>
<path opacity="0.36" d="M12.4025 247.573C14.7336 247.573 16.6234 245.861 16.6234 243.749C16.6234 241.638 14.7336 239.926 12.4025 239.926C10.0714 239.926 8.18164 241.638 8.18164 243.749C8.18164 245.861 10.0714 247.573 12.4025 247.573Z" fill="white"/>
<path opacity="0.36" d="M38.4728 257.491C40.8039 257.491 42.6937 255.779 42.6937 253.667C42.6937 251.556 40.8039 249.844 38.4728 249.844C36.1417 249.844 34.252 251.556 34.252 253.667C34.252 255.779 36.1417 257.491 38.4728 257.491Z" fill="white"/>
<path opacity="0.36" d="M74.9767 259.488C77.3078 259.488 79.1975 257.776 79.1975 255.665C79.1975 253.553 77.3078 251.841 74.9767 251.841C72.6456 251.841 70.7559 253.553 70.7559 255.665C70.7559 257.776 72.6456 259.488 74.9767 259.488Z" fill="white"/>
<path opacity="0.36" d="M58.2043 274.033C60.5354 274.033 62.4251 272.321 62.4251 270.21C62.4251 268.098 60.5354 266.386 58.2043 266.386C55.8731 266.386 53.9834 268.098 53.9834 270.21C53.9834 272.321 55.8731 274.033 58.2043 274.033Z" fill="white"/>
<path opacity="0.36" d="M138.422 231.296C140.753 231.296 142.643 229.585 142.643 227.473C142.643 225.362 140.753 223.65 138.422 223.65C136.091 223.65 134.201 225.362 134.201 227.473C134.201 229.585 136.091 231.296 138.422 231.296Z" fill="white"/>
<path opacity="0.36" d="M116.344 255.984C118.675 255.984 120.565 254.272 120.565 252.161C120.565 250.049 118.675 248.337 116.344 248.337C114.013 248.337 112.123 250.049 112.123 252.161C112.123 254.272 114.013 255.984 116.344 255.984Z" fill="white"/>
<path opacity="0.36" d="M151.085 250.514C153.416 250.514 155.306 248.802 155.306 246.69C155.306 244.579 153.416 242.867 151.085 242.867C148.754 242.867 146.864 244.579 146.864 246.69C146.864 248.802 148.754 250.514 151.085 250.514Z" fill="white"/>
<path opacity="0.36" d="M137.034 272.666C139.365 272.666 141.255 270.954 141.255 268.843C141.255 266.731 139.365 265.02 137.034 265.02C134.703 265.02 132.813 266.731 132.813 268.843C132.813 270.954 134.703 272.666 137.034 272.666Z" fill="white"/>
<path opacity="0.36" d="M95.1652 274.033C97.4963 274.033 99.3861 272.321 99.3861 270.21C99.3861 268.098 97.4963 266.386 95.1652 266.386C92.8341 266.386 90.9443 268.098 90.9443 270.21C90.9443 272.321 92.8341 274.033 95.1652 274.033Z" fill="white"/>
<path opacity="0.36" d="M113.957 290.032C116.288 290.032 118.178 288.32 118.178 286.209C118.178 284.097 116.288 282.385 113.957 282.385C111.626 282.385 109.736 284.097 109.736 286.209C109.736 288.32 111.626 290.032 113.957 290.032Z" fill="white"/>
<path opacity="0.36" d="M163.362 272.666C165.693 272.666 167.582 270.954 167.582 268.843C167.582 266.731 165.693 265.02 163.362 265.02C161.03 265.02 159.141 266.731 159.141 268.843C159.141 270.954 161.03 272.666 163.362 272.666Z" fill="white"/>
<path opacity="0.36" d="M144.369 298.278C146.7 298.278 148.59 296.566 148.59 294.455C148.59 292.343 146.7 290.631 144.369 290.631C142.038 290.631 140.148 292.343 140.148 294.455C140.148 296.566 142.038 298.278 144.369 298.278Z" fill="white"/>
<path opacity="0.36" d="M74.9767 296.04C77.3078 296.04 79.1975 294.328 79.1975 292.217C79.1975 290.105 77.3078 288.393 74.9767 288.393C72.6456 288.393 70.7559 290.105 70.7559 292.217C70.7559 294.328 72.6456 296.04 74.9767 296.04Z" fill="white"/>
<path opacity="0.36" d="M35.8078 281.562C38.1389 281.562 40.0286 279.85 40.0286 277.739C40.0286 275.627 38.1389 273.915 35.8078 273.915C33.4767 273.915 31.5869 275.627 31.5869 277.739C31.5869 279.85 33.4767 281.562 35.8078 281.562Z" fill="white"/>
<path opacity="0.36" d="M12.4025 274.033C14.7336 274.033 16.6234 272.321 16.6234 270.21C16.6234 268.098 14.7336 266.386 12.4025 266.386C10.0714 266.386 8.18164 268.098 8.18164 270.21C8.18164 272.321 10.0714 274.033 12.4025 274.033Z" fill="white"/>
<path opacity="0.36" d="M21.5646 302.101C23.8957 302.101 25.7854 300.39 25.7854 298.278C25.7854 296.166 23.8957 294.455 21.5646 294.455C19.2335 294.455 17.3438 296.166 17.3438 298.278C17.3438 300.39 19.2335 302.101 21.5646 302.101Z" fill="white"/>
<path opacity="0.36" d="M49.7628 313.386C52.094 313.386 53.9837 311.675 53.9837 309.563C53.9837 307.451 52.094 305.74 49.7628 305.74C47.4317 305.74 45.542 307.451 45.542 309.563C45.542 311.675 47.4317 313.386 49.7628 313.386Z" fill="white"/>
<path opacity="0.36" d="M95.1652 311.518C97.4963 311.518 99.3861 309.806 99.3861 307.695C99.3861 305.583 97.4963 303.871 95.1652 303.871C92.8341 303.871 90.9443 305.583 90.9443 307.695C90.9443 309.806 92.8341 311.518 95.1652 311.518Z" fill="white"/>
<path opacity="0.36" d="M76.2257 326.918C78.5569 326.918 80.4466 325.206 80.4466 323.094C80.4466 320.983 78.5569 319.271 76.2257 319.271C73.8946 319.271 72.0049 320.983 72.0049 323.094C72.0049 325.206 73.8946 326.918 76.2257 326.918Z" fill="white"/>
<path opacity="0.36" d="M31.5832 323.091C33.9143 323.091 35.804 321.38 35.804 319.268C35.804 317.157 33.9143 315.445 31.5832 315.445C29.252 315.445 27.3623 317.157 27.3623 319.268C27.3623 321.38 29.252 323.091 31.5832 323.091Z" fill="white"/>
<path opacity="0.36" d="M18.6144 337.553C18.6144 338.566 18.1701 339.538 17.3791 340.254C16.5881 340.971 15.5153 341.373 14.3967 341.373C14.1437 341.373 13.8912 341.352 13.6422 341.312C13.234 338.998 12.8165 336.614 12.4053 334.18C13.0213 333.883 13.7082 333.728 14.4059 333.727C15.5238 333.73 16.5947 334.134 17.3836 334.851C18.1726 335.569 18.6153 336.54 18.6144 337.553Z" fill="white"/>
<path opacity="0.36" d="M49.7628 345.205C52.094 345.205 53.9837 343.493 53.9837 341.382C53.9837 339.27 52.094 337.558 49.7628 337.558C47.4317 337.558 45.542 339.27 45.542 341.382C45.542 343.493 47.4317 345.205 49.7628 345.205Z" fill="white"/>
<path opacity="0.36" d="M31.5832 358.697C33.9143 358.697 35.804 356.985 35.804 354.874C35.804 352.762 33.9143 351.05 31.5832 351.05C29.252 351.05 27.3623 352.762 27.3623 354.874C27.3623 356.985 29.252 358.697 31.5832 358.697Z" fill="white"/>
<path opacity="0.36" d="M74.3302 352.972C76.6614 352.972 78.5511 351.26 78.5511 349.149C78.5511 347.037 76.6614 345.325 74.3302 345.325C71.9991 345.325 70.1094 347.037 70.1094 349.149C70.1094 351.26 71.9991 352.972 74.3302 352.972Z" fill="white"/>
<path opacity="0.36" d="M53.9836 372.13C56.3147 372.13 58.2045 370.419 58.2045 368.307C58.2045 366.196 56.3147 364.484 53.9836 364.484C51.6524 364.484 49.7627 366.196 49.7627 368.307C49.7627 370.419 51.6524 372.13 53.9836 372.13Z" fill="white"/>
<path opacity="0.36" d="M90.9445 369.411C93.2757 369.411 95.1654 367.699 95.1654 365.587C95.1654 363.476 93.2757 361.764 90.9445 361.764C88.6134 361.764 86.7236 363.476 86.7236 365.587C86.7236 367.699 88.6134 369.411 90.9445 369.411Z" fill="white"/>
<path opacity="0.36" d="M124.788 321.033C127.119 321.033 129.009 319.321 129.009 317.21C129.009 315.098 127.119 313.386 124.788 313.386C122.457 313.386 120.567 315.098 120.567 317.21C120.567 319.321 122.457 321.033 124.788 321.033Z" fill="white"/>
<path opacity="0.36" d="M103.608 341.382C105.939 341.382 107.828 339.67 107.828 337.558C107.828 335.447 105.939 333.735 103.608 333.735C101.276 333.735 99.3867 335.447 99.3867 337.558C99.3867 339.67 101.276 341.382 103.608 341.382Z" fill="white"/>
<path opacity="0.36" d="M148.59 329.679C150.921 329.679 152.811 327.968 152.811 325.856C152.811 323.745 150.921 322.033 148.59 322.033C146.259 322.033 144.369 323.745 144.369 325.856C144.369 327.968 146.259 329.679 148.59 329.679Z" fill="white"/>
<path opacity="0.36" d="M169.518 307.695C171.849 307.695 173.739 305.983 173.739 303.871C173.739 301.76 171.849 300.048 169.518 300.048C167.187 300.048 165.297 301.76 165.297 303.871C165.297 305.983 167.187 307.695 169.518 307.695Z" fill="white"/>
<path opacity="0.36" d="M183.371 332.01C183.322 334.001 183.244 335.931 183.142 337.83C182.4 338.366 181.478 338.656 180.529 338.654C179.843 338.655 179.166 338.504 178.559 338.215C177.951 337.926 177.43 337.506 177.042 336.994C176.653 336.481 176.409 335.89 176.329 335.272C176.25 334.655 176.338 334.029 176.586 333.449C176.834 332.869 177.234 332.353 177.752 331.945C178.271 331.537 178.891 331.249 179.559 331.108C180.228 330.966 180.924 330.974 181.588 331.131C182.253 331.288 182.865 331.59 183.371 332.01Z" fill="white"/>
<path opacity="0.36" d="M161.076 352.972C163.407 352.972 165.297 351.26 165.297 349.149C165.297 347.037 163.407 345.325 161.076 345.325C158.745 345.325 156.855 347.037 156.855 349.149C156.855 351.26 158.745 352.972 161.076 352.972Z" fill="white"/>
<path opacity="0.36" d="M129.01 352.972C131.341 352.972 133.231 351.26 133.231 349.149C133.231 347.037 131.341 345.325 129.01 345.325C126.679 345.325 124.789 347.037 124.789 349.149C124.789 351.26 126.679 352.972 129.01 352.972Z" fill="white"/>
<path opacity="0.36" d="M144.369 373.234C146.7 373.234 148.59 371.522 148.59 369.411C148.59 367.299 146.7 365.587 144.369 365.587C142.038 365.587 140.148 367.299 140.148 369.411C140.148 371.522 142.038 373.234 144.369 373.234Z" fill="white"/>
<path opacity="0.36" d="M113.957 375.954C116.288 375.954 118.178 374.242 118.178 372.13C118.178 370.019 116.288 368.307 113.957 368.307C111.626 368.307 109.736 370.019 109.736 372.13C109.736 374.242 111.626 375.954 113.957 375.954Z" fill="white"/>
<path opacity="0.36" d="M25.4451 373.175C25.4451 374.189 25.0008 375.161 24.21 375.878C23.4191 376.594 22.3463 376.998 21.2274 376.998C20.8618 377 20.4977 376.957 20.1451 376.87C20.0214 376.206 19.5545 373.789 18.8525 370.018C19.4867 369.627 20.2267 369.399 20.993 369.36C21.7593 369.321 22.5229 369.472 23.2016 369.797C23.8802 370.121 24.4484 370.607 24.8448 371.203C25.2412 371.798 25.4509 372.48 25.4513 373.175H25.4451Z" fill="white"/>
<path opacity="0.36" d="M77.6848 383.354C80.0159 383.354 81.9056 381.642 81.9056 379.53C81.9056 377.419 80.0159 375.707 77.6848 375.707C75.3536 375.707 73.4639 377.419 73.4639 379.53C73.4639 381.642 75.3536 383.354 77.6848 383.354Z" fill="white"/>
</g>
<path d="M138.837 25.8589C141.605 39.6451 154.075 49.6389 148.064 59.4506C140.451 71.8755 111.799 72.276 104 66.4529C89.4668 55.5797 93.8516 27.6179 109.306 23.7358C124.761 19.8537 138.837 25.8589 138.837 25.8589Z" fill="#D49046"/>
<path d="M150.908 46.1942C151.996 46.0195 152.316 43.0095 151.624 39.4712C150.932 35.9329 149.489 33.2061 148.401 33.3807C147.313 33.5554 146.992 36.5653 147.684 40.1037C148.376 43.642 149.82 46.3688 150.908 46.1942Z" stroke="#6464C8" stroke-width="2" stroke-miterlimit="10"/>
<path d="M137.767 43.3171C138.841 43.3171 139.712 42.5283 139.712 41.5553C139.712 40.5823 138.841 39.7935 137.767 39.7935C136.693 39.7935 135.822 40.5823 135.822 41.5553C135.822 42.5283 136.693 43.3171 137.767 43.3171Z" fill="#41465A"/>
<path d="M132.204 52.084C132.204 52.084 136.907 55.28 145.318 52.084" stroke="#41465A" stroke-width="2" stroke-linecap="round" stroke-linejoin="round"/>
<path d="M125.133 44.1405L150.77 39.2809" stroke="#6464C8" stroke-width="2" stroke-linecap="round" stroke-linejoin="round"/>
<path d="M122.059 30.8725C122.059 30.8725 145.81 34.9283 150.745 25.4947C155.68 16.0612 137.687 13.5347 137.687 13.5347C137.687 13.5347 138.197 0.572008 120.287 0.513188C103.119 0.457169 103.153 12.9577 101.183 11.801C98.6506 10.3109 93.4742 12.2267 92.5249 15.2097C92.5249 15.2097 80.054 10.7282 73.9407 19.5736C67.8274 28.4189 75.357 34.1664 75.357 34.1664C75.357 34.1664 71.804 35.0067 72.642 38.2138C73.48 41.4209 60.066 45.8827 65.2392 54.406C70.4125 62.9292 82.4134 60.6941 82.4134 60.6941C82.4134 60.6941 82.3484 71.1276 95.1656 70.4974C107.983 69.8672 111.864 59.9547 109.013 54.2043C106.162 48.454 117.219 55.0446 124.273 46.5326C131.326 38.0205 122.059 30.8725 122.059 30.8725Z" fill="#E7F0FD"/>
<path d="M140.977 43.3171C140.977 43.3171 137.452 46.2665 135.822 47.2384" stroke="#41465A" stroke-width="2" stroke-linecap="round" stroke-linejoin="round"/>
</svg>
