<svg width="133" height="133" viewBox="0 0 133 133" fill="none" xmlns="http://www.w3.org/2000/svg">
<g filter="url(#filter0_ddddii)">
<rect x="15" y="15" width="100" height="100" rx="50" fill="url(#paint0_linear)"/>
</g>
<g clip-path="url(#clip0)">
<path d="M61.7594 80.1198C60.5629 80.1198 59.3752 79.7502 58.2159 79.0151C56.2772 77.786 54.3109 77.7859 52.372 79.0151C50.0499 80.4874 47.5951 80.4872 45.2732 79.0151C44.9999 78.8418 44.9189 78.4798 45.0922 78.2065C45.2654 77.9331 45.6276 77.8522 45.9007 78.0254C47.8396 79.2547 49.8056 79.2546 51.7446 78.0254C54.0667 76.5533 56.5214 76.5533 58.8434 78.0254C60.1008 78.8226 61.3813 79.1043 62.65 78.8629C62.9679 78.8022 63.2747 79.0111 63.3351 79.329C63.3957 79.6468 63.187 79.9536 62.8691 80.0142C62.4986 80.0846 62.1286 80.1198 61.7594 80.1198ZM74.7079 80.1193C73.5137 80.1193 72.3195 79.7512 71.1585 79.0152C69.2196 77.786 67.2536 77.786 65.3146 79.0152C65.0415 79.1885 64.6793 79.1075 64.506 78.8341C64.3327 78.5608 64.4137 78.1988 64.6871 78.0255C67.0091 76.5532 69.464 76.5533 71.7858 78.0255C73.7247 79.2547 75.6909 79.2547 77.6298 78.0255C79.9519 76.5533 82.4067 76.5534 84.7285 78.0255C85.0018 78.1988 85.0829 78.5608 84.9096 78.8341C84.7362 79.1075 84.374 79.1884 84.101 79.0152C82.162 77.786 80.196 77.7861 78.2571 79.0152C77.0962 79.7512 75.9021 80.1193 74.7079 80.1193ZM79.7274 75.4114H54.7666C49.3818 75.4114 45.001 71.0306 45.001 65.6458C45.001 60.2611 49.3818 55.8802 54.7666 55.8802H62.224C62.5477 55.8802 62.81 56.1426 62.81 56.4662C62.81 56.7897 62.5477 57.0521 62.224 57.0521H54.7666C53.7973 57.0521 53.0088 57.8406 53.0088 58.8099V72.4817C53.0088 73.451 53.7973 74.2395 54.7666 74.2395H79.7274C80.6966 74.2395 81.4852 73.451 81.4852 72.4817V58.8099C81.4852 57.8406 80.6966 57.0521 79.7274 57.0521H64.5678C64.2441 57.0521 63.9818 56.7897 63.9818 56.4662C63.9818 56.1426 64.2441 55.8802 64.5678 55.8802H79.7274C81.3429 55.8802 82.6571 57.1944 82.6571 58.8099V62.9114H84.4149C84.7386 62.9114 85.0008 63.1738 85.0008 63.4974V67.7942C85.0008 68.1178 84.7386 68.3802 84.4149 68.3802H82.6571V72.4817C82.6571 74.0971 81.3429 75.4114 79.7274 75.4114ZM52.1706 57.4526C48.6968 58.5558 46.1728 61.8115 46.1728 65.6457C46.1728 69.4799 48.6969 72.7357 52.1706 73.8388C51.9574 73.4329 51.8369 72.9711 51.8369 72.4816V58.8098C51.8369 58.3204 51.9575 57.8586 52.1706 57.4526ZM82.6571 67.2083H83.829V64.0833H82.6571V67.2083ZM78.7125 73.0677H72.34C72.0163 73.0677 71.7541 72.8053 71.7541 72.4817C71.7541 72.1581 72.0163 71.8958 72.34 71.8958H78.1266V59.3958H56.5244V71.8958H69.9962C70.3199 71.8958 70.5821 72.1581 70.5821 72.4817C70.5821 72.8053 70.3199 73.0677 69.9962 73.0677H55.9384C55.6148 73.0677 55.3525 72.8053 55.3525 72.4817V58.8099C55.3525 58.4863 55.6148 58.224 55.9384 58.224H78.7125C79.0362 58.224 79.2984 58.4863 79.2984 58.8099V72.4817C79.2984 72.8053 79.0361 73.0677 78.7125 73.0677ZM60.2531 69.7787C58.8432 69.7787 57.6962 68.6317 57.6962 67.2217V64.0697C57.6962 62.6599 58.8432 61.5128 60.2531 61.5128C61.6629 61.5128 62.81 62.6598 62.81 64.0697V67.2217C62.81 68.6317 61.6629 69.7787 60.2531 69.7787ZM60.2531 62.6847C59.4894 62.6847 58.868 63.306 58.868 64.0698V67.2218C58.868 67.9855 59.4894 68.6069 60.2531 68.6069C61.0169 68.6069 61.6381 67.9856 61.6381 67.2218V64.0698C61.6381 63.306 61.0169 62.6847 60.2531 62.6847ZM67.003 70.9302H67.0012L64.7539 70.9233C64.5313 70.9226 64.3283 70.7958 64.23 70.5959C64.1317 70.3961 64.1552 70.1579 64.2905 69.9811C64.2966 69.973 64.4936 69.7101 65.8454 67.7786L65.8931 67.7106C66.1207 67.3869 66.23 67.221 66.23 66.9866C66.23 66.6874 65.9867 66.4441 65.6875 66.4441C65.4288 66.4441 65.205 66.6278 65.1554 66.8807C65.093 67.1983 64.7853 67.4049 64.4675 67.3428C64.15 67.2804 63.943 66.9724 64.0054 66.6549C64.1629 65.8537 64.8702 65.2721 65.6875 65.2721C66.6329 65.2721 67.4019 66.0412 67.4019 66.9865C67.4019 67.6021 67.1221 67.9999 66.8516 68.3846L66.8053 68.4504C66.4107 69.0144 66.1135 69.4375 65.8898 69.7548L67.0047 69.7582C67.3283 69.7592 67.5898 70.0224 67.5889 70.3459C67.5879 70.6691 67.3258 70.9302 67.003 70.9302ZM72.3399 69.7787C72.2009 69.7787 72.0618 69.7294 71.9509 69.6309C68.9449 66.9615 67.7252 65.8173 67.7252 64.2887C67.7252 62.7581 68.9704 61.5129 70.501 61.5129C71.1895 61.5129 71.839 61.7652 72.3399 62.21C72.8408 61.7652 73.4903 61.5129 74.1788 61.5129C75.7095 61.5129 76.9546 62.7581 76.9546 64.2887C76.9546 65.8172 75.7348 66.9614 72.729 69.6309C72.6181 69.7294 72.4791 69.7787 72.3399 69.7787ZM70.501 62.6847C69.6166 62.6847 68.8971 63.4043 68.8971 64.2887C68.8971 65.1779 69.6427 66.0004 72.3399 68.4082C75.0372 66.0003 75.7827 65.1779 75.7827 64.2887C75.7827 63.4043 75.0632 62.6847 74.1788 62.6847C73.6333 62.6847 73.1298 62.9597 72.832 63.4203C72.724 63.5873 72.5388 63.6882 72.3399 63.6882C72.1411 63.6882 71.9559 63.5874 71.8479 63.4204C71.55 62.9597 71.0466 62.6847 70.501 62.6847Z" fill="#31456A"/>
</g>
<defs>
<filter id="filter0_ddddii" x="0" y="0" width="133" height="133" filterUnits="userSpaceOnUse" color-interpolation-filters="sRGB">
<feFlood flood-opacity="0" result="BackgroundImageFix"/>
<feColorMatrix in="SourceAlpha" type="matrix" values="0 0 0 0 0 0 0 0 0 0 0 0 0 0 0 0 0 0 127 0"/>
<feOffset dx="5" dy="5"/>
<feGaussianBlur stdDeviation="6.5"/>
<feColorMatrix type="matrix" values="0 0 0 0 0.717647 0 0 0 0 0.796078 0 0 0 0 0.862745 0 0 0 0.9 0"/>
<feBlend mode="normal" in2="BackgroundImageFix" result="effect1_dropShadow"/>
<feColorMatrix in="SourceAlpha" type="matrix" values="0 0 0 0 0 0 0 0 0 0 0 0 0 0 0 0 0 0 127 0"/>
<feOffset dx="-5" dy="-5"/>
<feGaussianBlur stdDeviation="5"/>
<feColorMatrix type="matrix" values="0 0 0 0 0.87451 0 0 0 0 0.972549 0 0 0 0 1 0 0 0 0.9 0"/>
<feBlend mode="normal" in2="effect1_dropShadow" result="effect2_dropShadow"/>
<feColorMatrix in="SourceAlpha" type="matrix" values="0 0 0 0 0 0 0 0 0 0 0 0 0 0 0 0 0 0 127 0"/>
<feOffset dx="5" dy="-5"/>
<feGaussianBlur stdDeviation="5"/>
<feColorMatrix type="matrix" values="0 0 0 0 0.717647 0 0 0 0 0.796078 0 0 0 0 0.862745 0 0 0 0.2 0"/>
<feBlend mode="normal" in2="effect2_dropShadow" result="effect3_dropShadow"/>
<feColorMatrix in="SourceAlpha" type="matrix" values="0 0 0 0 0 0 0 0 0 0 0 0 0 0 0 0 0 0 127 0"/>
<feOffset dx="-5" dy="5"/>
<feGaussianBlur stdDeviation="5"/>
<feColorMatrix type="matrix" values="0 0 0 0 0.717647 0 0 0 0 0.796078 0 0 0 0 0.862745 0 0 0 0.2 0"/>
<feBlend mode="normal" in2="effect3_dropShadow" result="effect4_dropShadow"/>
<feBlend mode="normal" in="SourceGraphic" in2="effect4_dropShadow" result="shape"/>
<feColorMatrix in="SourceAlpha" type="matrix" values="0 0 0 0 0 0 0 0 0 0 0 0 0 0 0 0 0 0 127 0" result="hardAlpha"/>
<feOffset dx="-1" dy="-1"/>
<feGaussianBlur stdDeviation="1"/>
<feComposite in2="hardAlpha" operator="arithmetic" k2="-1" k3="1"/>
<feColorMatrix type="matrix" values="0 0 0 0 0.717647 0 0 0 0 0.796078 0 0 0 0 0.862745 0 0 0 0.5 0"/>
<feBlend mode="normal" in2="shape" result="effect5_innerShadow"/>
<feColorMatrix in="SourceAlpha" type="matrix" values="0 0 0 0 0 0 0 0 0 0 0 0 0 0 0 0 0 0 127 0" result="hardAlpha"/>
<feOffset dx="1" dy="1"/>
<feGaussianBlur stdDeviation="1"/>
<feComposite in2="hardAlpha" operator="arithmetic" k2="-1" k3="1"/>
<feColorMatrix type="matrix" values="0 0 0 0 0.87451 0 0 0 0 0.972549 0 0 0 0 1 0 0 0 0.3 0"/>
<feBlend mode="normal" in2="effect5_innerShadow" result="effect6_innerShadow"/>
</filter>
<linearGradient id="paint0_linear" x1="15" y1="15" x2="115" y2="115" gradientUnits="userSpaceOnUse">
<stop stop-color="#D5ECFF"/>
<stop offset="1" stop-color="#C1D6E9"/>
</linearGradient>
<clipPath id="clip0">
<rect width="40" height="40" fill="white" transform="translate(45 48)"/>
</clipPath>
</defs>
</svg>
