<svg width="440" height="437" viewBox="0 0 440 437" fill="none" xmlns="http://www.w3.org/2000/svg">
<path d="M439.603 194.721L421.074 246.402C417.222 257.15 406.495 264.387 394.421 264.387H289.589C277.515 264.387 266.788 257.15 262.933 246.402L247.696 203.894C245.038 196.486 250.907 188.813 259.23 188.813H270.967C276.496 188.813 281.182 184.998 281.954 179.846L288.805 134.25C290.438 123.363 300.357 115.268 312.062 115.268H406.462C420.728 115.268 431.702 127.116 429.721 140.389L423.85 179.726C423.135 184.528 427.103 188.813 432.265 188.813H435.098C438.343 188.813 440.642 191.819 439.603 194.721Z" fill="#6464C8"/>
<path d="M349.269 262.999H333.903V360.51H349.269V262.999Z" fill="white" stroke="#6464C8" stroke-width="7.4" stroke-miterlimit="10"/>
<path d="M383.482 373.491V368.969C383.482 364.297 377.191 360.508 369.431 360.508H314.668C306.923 360.508 300.617 364.297 300.617 368.969V373.491" stroke="#6464C6" stroke-width="8.88" stroke-miterlimit="10"/>
<path d="M300.909 391.893C306.861 391.893 311.686 387.773 311.686 382.692C311.686 377.61 306.861 373.491 300.909 373.491C294.956 373.491 290.131 377.61 290.131 382.692C290.131 387.773 294.956 391.893 300.909 391.893Z" fill="white" stroke="#E3B03D" stroke-width="7.4" stroke-miterlimit="10"/>
<path d="M383.289 391.893C389.241 391.893 394.066 387.773 394.066 382.692C394.066 377.61 389.241 373.491 383.289 373.491C377.336 373.491 372.511 377.61 372.511 382.692C372.511 387.773 377.336 391.893 383.289 391.893Z" fill="white" stroke="#E3B03D" stroke-width="7.4" stroke-miterlimit="10"/>
<path d="M206.532 346.281C205.153 350.701 200.145 365.815 201.942 371.237C203.738 376.659 208.772 380.647 207.384 386.176C205.895 392.063 165.45 388.34 164.207 388.103C162.965 387.867 185.689 377.097 185.954 369.083C186.219 361.07 183.225 346.281 183.225 346.281H206.532Z" fill="#D28E46"/>
<path d="M157.737 392.325H207.736C208.925 392.325 209.89 391.502 209.89 390.487V390.484C209.89 389.469 208.925 388.645 207.736 388.645H157.737C156.548 388.645 155.583 389.469 155.583 390.484V390.487C155.583 391.502 156.548 392.325 157.737 392.325Z" fill="#94BCD3"/>
<path d="M193.544 388.882C193.544 388.882 188.289 383.414 180.886 381.807C172.772 380.044 168.836 380.983 164.46 382.872C160.221 384.701 157.85 388.648 157.85 388.648L193.544 388.882Z" fill="#CFE0F9"/>
<path d="M193.723 388.798C193.723 388.798 193.276 375.983 203.202 374.317C203.202 374.317 212.734 381.58 207.462 388.798H193.723Z" fill="#CFE0F9"/>
<path d="M206.532 346.281H183.228C183.228 346.281 183.802 349.125 184.419 352.99C192.897 353.672 201.611 351.271 205.325 350.071C205.817 348.489 206.234 347.169 206.532 346.281Z" fill="#C97C2D"/>
<path d="M261.39 259.25C248.515 259.232 235.315 259.141 217.897 258.917C220.033 271.719 222.255 287.627 221.916 300.673C221.594 312.966 218.639 314.624 218.758 319.802C218.96 328.126 212.463 330.885 214.563 336.841C218.097 346.81 206.52 346.289 206.52 346.289C206.52 346.289 191.366 348.672 179.877 346.289L168.139 243.292C164.764 233.72 179.573 222.184 194.196 216.589C219.372 206.963 314.895 170.161 327.409 203.802C330.728 212.751 320.045 259.337 261.39 259.25Z" fill="#C5D7F9"/>
<path d="M277.529 346.281C276.15 350.701 271.145 365.815 272.939 371.237C274.732 376.659 279.769 380.647 278.384 386.176C276.895 392.063 236.45 388.34 235.207 388.103C233.965 387.867 256.686 377.097 256.954 369.083C257.222 361.07 254.228 346.281 254.228 346.281H277.529Z" fill="#D28E46"/>
<path d="M228.749 392.325H278.748C279.937 392.325 280.901 391.502 280.901 390.486V390.484C280.901 389.468 279.937 388.645 278.748 388.645H228.749C227.559 388.645 226.595 389.468 226.595 390.484V390.486C226.595 391.502 227.559 392.325 228.749 392.325Z" fill="#94BCD3"/>
<path d="M264.556 388.882C264.556 388.882 259.298 383.414 251.896 381.807C243.784 380.044 239.846 380.983 235.47 382.872C231.231 384.701 228.859 388.648 228.859 388.648L264.556 388.882Z" fill="#CFE0F9"/>
<path d="M264.735 388.797C264.735 388.797 264.285 375.983 274.211 374.317C274.211 374.317 283.744 381.58 278.471 388.797H264.735Z" fill="#CFE0F9"/>
<path d="M277.529 346.281H254.237C254.237 346.281 254.815 349.125 255.428 352.99C263.909 353.672 272.623 351.271 276.338 350.071C276.835 348.489 277.252 347.169 277.529 346.281Z" fill="#C97C2D"/>
<path d="M323.578 259.25C310.703 259.232 297.503 259.141 280.085 258.917C282.221 271.719 284.443 287.626 284.104 300.673C283.782 312.966 285.23 314.624 285.358 319.802C285.561 328.126 283.472 330.885 285.572 336.841C289.105 346.81 277.529 346.289 277.529 346.289C277.529 346.289 262.375 348.672 250.886 346.289L230.331 243.292C226.959 233.72 232.943 222.184 247.567 216.589C272.745 206.963 365.122 161.866 380.339 212.461C383.059 221.546 382.237 259.337 323.578 259.25Z" fill="#CFE0F9"/>
<path d="M287.187 80.5082C288.787 89.0557 296.464 93.6613 268.301 152.891C257.618 175.362 235.967 164.64 237.561 153.107C239.155 141.574 256.867 96.4537 262.951 85.9454C269.546 74.5471 285.856 73.3874 287.187 80.5082Z" fill="#D1E2FB"/>
<path d="M258.271 162.514C237.883 171.194 158.434 166.169 158.205 161.81C157.94 156.724 228.347 145.305 243.337 143.906C261.22 142.238 270.425 157.342 258.271 162.514Z" fill="#E38E32"/>
<path d="M172.235 158.997C171.726 157.436 157.555 157.647 152.905 158.743C148.255 159.839 141.883 164.445 140.989 165.459C140.096 166.474 138.01 171.769 138.01 171.769C138.01 171.769 139.833 173.737 142.452 170.713C145.07 167.69 151.731 164.488 153.337 165.406C156.944 167.468 148.636 169.009 147.632 170.238C146.628 171.466 147.063 172.272 147.063 172.272C147.063 172.272 155.678 170.805 157.016 170.726C158.354 170.647 162.882 169.058 165.536 167.224C168.19 165.391 172.986 161.299 172.235 158.997Z" fill="#E38E32"/>
<path d="M379.368 220.823C392.177 233.679 364.953 175.695 359.838 161.06C357.419 154.137 362.939 127.307 368.828 105.456C374.786 83.2981 365.411 75.3381 349.295 71.9074C331.32 68.0774 308.079 69.0845 302.588 69.7076C285.23 71.6709 281.03 73.418 273.037 77.0827C269.066 78.9035 269.275 114.212 268.113 123.505C266.951 132.798 272.706 138.428 279.496 142.261C281.435 143.357 285.504 149.16 285.409 162.86C285.313 176.56 282.984 183.922 276.537 191.628C276.537 191.628 342.891 184.243 379.368 220.823Z" fill="#E7F0FD"/>
<path d="M344.47 71.2563L303.429 112.694L285.313 71.9837" stroke="white" stroke-width="8.88" stroke-miterlimit="10"/>
<path d="M364.301 78.0745C371.748 83.9593 381.248 95.9527 401.886 157.4C409.712 180.71 391.847 180.034 384.769 170.116C377.691 160.197 347.803 115.049 344.893 103.595C339.829 83.6516 358.101 73.1662 364.301 78.0745Z" fill="#D1E2FB"/>
<path d="M398.323 176.448C377.173 185.532 290.738 175.81 290.485 171.283C290.187 165.991 364.22 161.189 379.788 159.684C398.353 157.891 410.927 171.044 398.323 176.448Z" fill="#E38E32"/>
<path d="M302.261 172.186C302.368 173.806 288.871 177.498 284.051 177.727C279.231 177.956 271.464 175.355 270.231 174.643C268.998 173.93 265.021 169.488 265.021 169.488C265.021 169.488 266.007 167.125 269.624 169.269C273.24 171.413 280.756 172.616 281.93 171.303C284.566 168.358 276.124 169.182 274.706 168.292C273.288 167.402 273.404 166.512 273.404 166.512C273.404 166.512 282.111 165.536 283.407 165.241C284.703 164.946 289.588 165.213 292.794 166.217C295.999 167.222 302.106 169.8 302.261 172.186Z" fill="#E38E32"/>
<path d="M326.822 39.9757C333.882 38.7881 343.337 27.6695 340.096 18.1378C336.855 8.60608 321.007 -2.61935 304.796 1.83878C288.584 6.2969 278.637 12.9472 280.565 26.5962C282.096 37.4478 321.88 72.8814 349.295 71.5361C360.317 70.9969 371.435 51.2113 357.04 43.8311C342.646 36.4509 326.822 39.9757 326.822 39.9757Z" fill="#E5B21A"/>
<path d="M363.541 43.8311C348.979 32.4301 327.227 39.6298 327.227 39.6298" stroke="#E5B21A" stroke-width="5.92" stroke-miterlimit="10"/>
<path d="M324.6 38.7993C324.6 38.7993 322.285 61.2756 336.137 70.0596L306.541 99.4838L293.643 71.1811C293.643 71.1811 308.09 68.8923 302.13 38.7993H324.6Z" fill="#D49046"/>
<path d="M324.457 43.1496C324.409 43.5565 324.376 43.8006 324.376 43.8006C324.376 47.9357 314.507 63.782 300.822 65.0994C303.303 60.5217 304.858 52.5821 302.127 38.7881H324.6C324.6 38.7881 324.424 40.4945 324.457 43.1496Z" fill="#CB7C2D"/>
<path d="M324.421 40.6624C324.394 40.8912 324.376 41.0209 324.376 41.0209C324.797 44.1032 310.375 56.4196 298.99 57.5513C293.878 58.06 286.273 45.4613 285.022 41.1939C283.198 34.9734 283.097 28.8368 283.005 26.6039C282.856 22.985 283.124 13.9213 295.338 13.9213C307.629 13.9213 314.54 37.0257 323.602 32.3565C323.769 32.036 325.321 29.32 329.262 31.4689C332.169 33.0609 327.775 38.933 324.421 40.6624Z" fill="#D49046"/>
<path d="M294.864 32.4301L293.643 40.6088L296.038 43.0629" stroke="#40465C" stroke-width="2" stroke-linecap="round" stroke-linejoin="round"/>
<path d="M285.447 41.1328C289.579 41.1328 292.928 38.2738 292.928 34.747C292.928 31.2202 289.579 28.3612 285.447 28.3612C281.316 28.3612 277.967 31.2202 277.967 34.747C277.967 38.2738 281.316 41.1328 285.447 41.1328Z" stroke="#6464C8" stroke-width="2" stroke-miterlimit="10"/>
<path d="M305.398 41.1328C309.529 41.1328 312.878 38.2738 312.878 34.747C312.878 31.2202 309.529 28.3612 305.398 28.3612C301.266 28.3612 297.917 31.2202 297.917 34.747C297.917 38.2738 301.266 41.1328 305.398 41.1328Z" stroke="#6464C8" stroke-width="2" stroke-miterlimit="10"/>
<path d="M292.928 34.7469H297.917" stroke="#6464C8" stroke-width="2" stroke-miterlimit="10"/>
<path d="M312.88 34.3987C312.88 34.3987 324.909 28.0663 330.072 31.4639" stroke="#6464C8" stroke-width="2" stroke-miterlimit="10"/>
<path d="M288.447 36.2347C289.436 36.2347 290.237 35.5504 290.237 34.7063C290.237 33.8622 289.436 33.1779 288.447 33.1779C287.458 33.1779 286.657 33.8622 286.657 34.7063C286.657 35.5504 287.458 36.2347 288.447 36.2347Z" fill="#40465C"/>
<path d="M302.675 36.2347C303.664 36.2347 304.465 35.5504 304.465 34.7063C304.465 33.8622 303.664 33.1779 302.675 33.1779C301.686 33.1779 300.884 33.8622 300.884 34.7063C300.884 35.5504 301.686 36.2347 302.675 36.2347Z" fill="#40465C"/>
<path d="M296.246 47.6662C296.246 47.6662 300.253 48.2842 303.005 45.0341" stroke="#40465C" stroke-width="2" stroke-linecap="round" stroke-linejoin="round"/>
<path d="M254.436 139.71H123.58C121.441 139.71 119.354 139.143 117.608 138.089C115.861 137.035 114.54 135.544 113.827 133.823L87.0906 69.3566C86.7067 68.432 86.5885 67.4422 86.7458 66.4704C86.9031 65.4987 87.3313 64.5734 87.9945 63.7722C88.6577 62.9711 89.5364 62.3176 90.5568 61.8666C91.5773 61.4156 92.7097 61.1802 93.8588 61.1804H225.788C227.614 61.1801 229.395 61.6633 230.886 62.5633C232.378 63.4632 233.505 64.7358 234.114 66.2057L261.222 131.531C261.607 132.457 261.725 133.449 261.566 134.422C261.408 135.395 260.978 136.321 260.313 137.123C259.648 137.924 258.767 138.578 257.744 139.028C256.721 139.478 255.587 139.712 254.436 139.71Z" fill="white"/>
<path d="M250.367 143.184H119.508C117.369 143.184 115.283 142.618 113.536 141.564C111.79 140.51 110.468 139.02 109.755 137.299L83.0186 72.833C82.6348 71.908 82.5167 70.9179 82.6742 69.9459C82.8316 68.9738 83.2601 68.0482 83.9235 67.2469C84.5869 66.4455 85.466 65.7918 86.4868 65.3407C87.5076 64.8895 88.6403 64.6542 89.7898 64.6543H221.725C223.553 64.6529 225.337 65.1354 226.831 66.0353C228.324 66.9353 229.455 68.2085 230.066 69.6795L257.156 135.008C257.541 135.934 257.659 136.925 257.5 137.898C257.342 138.871 256.912 139.798 256.246 140.599C255.581 141.401 254.699 142.054 253.676 142.504C252.653 142.954 251.518 143.187 250.367 143.184Z" fill="#E7F0FD"/>
<path d="M254.437 139.361H123.58C121.441 139.362 119.355 138.796 117.608 137.742C115.862 136.688 114.541 135.198 113.827 133.477L87.0909 69.0107C86.7072 68.0859 86.589 67.096 86.7463 66.1241C86.9036 65.1522 87.3318 64.2268 87.9949 63.4255C88.658 62.6242 89.5367 61.9705 90.5571 61.5192C91.5775 61.0679 92.7098 60.8322 93.8591 60.8319H225.788C227.614 60.832 229.395 61.3153 230.886 62.2152C232.377 63.1151 233.505 64.3875 234.114 65.8572L261.223 131.183C261.607 132.109 261.725 133.1 261.567 134.073C261.408 135.046 260.979 135.972 260.313 136.774C259.648 137.576 258.767 138.229 257.744 138.68C256.722 139.13 255.587 139.364 254.437 139.361V139.361Z" stroke="#96BED5" stroke-width="2" stroke-miterlimit="10"/>
<path d="M186.177 157.176H147.277L159.488 113.04H198.39L186.177 157.176Z" fill="white" stroke="#96BED5" stroke-width="2" stroke-miterlimit="10"/>
<path d="M195.844 37.7021C199.937 37.7021 202.761 34.2917 202.761 30.7059V10.6329C202.761 9.70625 202.548 8.78861 202.133 7.93241C201.717 7.0762 201.109 6.29821 200.341 5.64285C199.574 4.9875 198.663 4.46762 197.66 4.11293C196.657 3.75825 195.583 3.57568 194.497 3.57568H140.995C139.909 3.57535 138.834 3.75767 137.831 4.11221C136.828 4.46674 135.917 4.98656 135.149 5.64195C134.381 6.29734 133.772 7.07545 133.357 7.93182C132.942 8.78819 132.728 9.70604 132.729 10.6329V30.7059C132.729 31.6325 132.942 32.5501 133.358 33.4062C133.773 34.2623 134.382 35.0401 135.15 35.6952C135.918 36.3503 136.829 36.8699 137.832 37.2243C138.835 37.5787 139.91 37.7609 140.995 37.7606H172.364C180.043 37.7606 184.181 48.307 184.181 48.307C184.181 48.307 186.797 37.7021 195.844 37.7021Z" fill="white" stroke="#E5B21A" stroke-width="2" stroke-miterlimit="10"/>
<path d="M152.443 23.1273C154.148 23.1273 155.529 21.9477 155.529 20.4926C155.529 19.0375 154.148 17.8579 152.443 17.8579C150.739 17.8579 149.357 19.0375 149.357 20.4926C149.357 21.9477 150.739 23.1273 152.443 23.1273Z" fill="white" stroke="#E5B21A" stroke-width="2" stroke-miterlimit="10"/>
<path d="M167.743 23.3003C169.448 23.3003 170.83 22.1207 170.83 20.6656C170.83 19.2105 169.448 18.0309 167.743 18.0309C166.039 18.0309 164.657 19.2105 164.657 20.6656C164.657 22.1207 166.039 23.3003 167.743 23.3003Z" fill="white" stroke="#E5B21A" stroke-width="2" stroke-miterlimit="10"/>
<path d="M183.04 23.3003C184.745 23.3003 186.127 22.1207 186.127 20.6656C186.127 19.2105 184.745 18.0309 183.04 18.0309C181.336 18.0309 179.954 19.2105 179.954 20.6656C179.954 22.1207 181.336 23.3003 183.04 23.3003Z" fill="white" stroke="#E5B21A" stroke-width="2" stroke-miterlimit="10"/>
<path d="M2 414.21V160H330V437" fill="#B9CCE2"/>
<path d="M2 414.21V160H330V437" stroke="#6464C8" stroke-width="3" stroke-miterlimit="10"/>
</svg>
