<svg width="448" height="743" viewBox="0 0 448 743" fill="none" xmlns="http://www.w3.org/2000/svg">
<g clip-path="url(#clip0)">
<path d="M25.1478 586.684H425.373L425.373 10.4549H25.1478L25.1478 586.684Z" fill="#CBE1FD"/>
<path opacity="0.35" d="M27.8027 362.352V307.568L419.766 13.5162H422.713V66.0904L27.8027 362.352Z" fill="white"/>
<path opacity="0.35" d="M27.8027 283.409V13.5162H387.565L27.8027 283.409Z" fill="white"/>
<path d="M434.109 1.19897H16.4033V595.94H434.109V1.19897Z" stroke="#CBE1FD" stroke-width="6" stroke-miterlimit="10"/>
<path d="M446.878 10.4549H1.12207V21.6931H446.878V10.4549Z" fill="white" stroke="#CBE1FD" stroke-width="6" stroke-miterlimit="10"/>
<path d="M446.878 29.1906H1.12207V40.4287H446.878V29.1906Z" fill="white" stroke="#CBE1FD" stroke-width="6" stroke-miterlimit="10"/>
<path d="M446.878 47.9222H1.12207V59.1604H446.878V47.9222Z" fill="white" stroke="#CBE1FD" stroke-width="6" stroke-miterlimit="10"/>
<path d="M446.878 66.6578H1.12207V77.896H446.878V66.6578Z" fill="white" stroke="#CBE1FD" stroke-width="6" stroke-miterlimit="10"/>
<path d="M446.878 85.3936H1.12207V96.6318H446.878V85.3936Z" fill="white" stroke="#CBE1FD" stroke-width="6" stroke-miterlimit="10"/>
<path d="M252.801 725.931H312.656C313.195 725.931 313.632 725.464 313.632 724.888V723.217C313.632 722.641 313.195 722.174 312.656 722.174H252.801C252.262 722.174 251.825 722.641 251.825 723.217V724.888C251.825 725.464 252.262 725.931 252.801 725.931Z" fill="#88BED7"/>
<path d="M305.798 701.448H284.241C284.241 701.448 281.66 707.367 267.568 708.91C251.834 710.636 252.952 722.178 252.952 722.178H311.917C311.917 722.178 314.759 713.442 305.798 701.448Z" fill="#40465C"/>
<path d="M210.378 701.448H188.829C188.829 701.448 186.248 707.743 172.156 709.297C156.5 711.02 157.54 722.178 157.54 722.178H216.505C216.505 722.178 219.34 713.442 210.378 701.448Z" fill="#40465C"/>
<path d="M157.035 725.931H217.608C218.147 725.931 218.584 725.464 218.584 724.888V723.217C218.584 722.641 218.147 722.174 217.608 722.174H157.035C156.496 722.174 156.059 722.641 156.059 723.217V724.888C156.059 725.464 156.496 725.931 157.035 725.931Z" fill="#88BED7"/>
<path d="M287.108 375.464C287.639 394.004 289.839 537.471 305.318 577.764C321.008 618.6 312.021 701.656 312.021 701.656C290.523 705.285 281.79 701.256 281.79 701.256C281.79 701.256 250.808 563.453 229.007 466.985C226.808 504.44 224.519 560.147 228.211 587.336C234.094 630.578 221.296 701.808 221.296 701.808C202.738 704.885 181.457 701.808 181.457 701.808C181.457 701.808 177.264 633.228 174.852 554.996C173.73 518.652 167.14 385.084 167.421 376.228L287.108 375.464Z" fill="#88BED7"/>
<path d="M247.883 196.101C252.719 196.101 298.579 205.864 298.538 227.206C298.493 250.581 275.264 327.546 277.171 341.658C279.079 355.77 291.529 374.429 285.8 377.111C270.361 384.345 218.82 390.088 167.305 376.048C167.305 376.048 172.679 363.083 163.419 306.768C158.363 276.039 157.185 217.247 161.493 211.124C165.801 205.001 191.746 198.671 201.253 196.788C210.76 194.906 247.883 196.101 247.883 196.101Z" fill="#88BED7"/>
<path d="M246.365 195.929C245.217 203.003 232.527 363.435 248.901 443.261C248.901 443.261 275.455 447.134 302.596 436.232C302.596 436.232 287.183 335.895 286.222 319.182C285.261 302.468 297.255 216.415 289.996 211.675C265.88 195.929 246.365 195.929 246.365 195.929Z" fill="white"/>
<path d="M199.51 197.028C199.51 197.028 203.149 349.415 203.957 442.482C203.957 442.482 177.777 449.484 155.188 438.581C155.188 438.581 164.063 325.932 164.19 311.584C164.317 297.237 157.357 212.343 164.983 208.023C181.39 198.723 199.51 197.028 199.51 197.028Z" fill="white"/>
<path d="M320.054 338.777C339.307 312.467 316.946 213.981 284.427 209.657C280.99 209.201 273.756 211.983 273.27 235.067C272.866 254.29 280.406 290.95 284.116 307.752C256.766 311.065 215.401 322.387 209.226 322.99C202.27 323.67 206.507 347.917 213.584 348.84C224.953 350.322 297.184 356.757 320.054 338.777Z" fill="white"/>
<path d="M206.407 326.419C205.749 321.392 255.715 312.863 283.077 308.383C279.191 290.483 275.444 260.425 275.444 260.425" stroke="#E4EFFD" stroke-width="5" stroke-miterlimit="10"/>
<path d="M168.711 342.925L197.905 299.858" stroke="black" stroke-width="5" stroke-miterlimit="10"/>
<path d="M210.435 328.206C207.042 325.008 186.715 319.933 184.535 321.448C182.355 322.962 165.023 327.091 165.023 327.091C165.023 327.091 165.495 331.543 172.395 330.556C180.414 329.405 182.164 331.155 182.164 331.155C182.164 331.155 181.18 335.891 183.727 337.601C186.274 339.312 183.043 341.95 186.614 345.319C188.709 347.289 188.858 349.815 191.536 350.266C194.214 350.718 208.796 342.925 211.336 337.478C213.483 332.85 212.432 330.112 210.435 328.206Z" fill="#E18C32"/>
<path d="M98.7582 323.162C93.1258 317.843 82.6538 288.516 100.31 288.548C104.234 288.548 113.905 290.023 124.897 292.725C128.742 268.022 136.588 229.324 149.248 217.938C156.16 211.719 166.247 207.303 169.68 206.072C191.421 198.287 185.549 358.703 151.765 352.413C140.448 350.286 109.178 332.994 98.7582 323.162Z" fill="white"/>
<path d="M161.497 315.904C163.083 305.322 159.949 288.005 159.302 262.863" stroke="#E4EFFD" stroke-width="5" stroke-miterlimit="10"/>
<path d="M138.294 375.361H201.53C202.057 375.36 202.575 375.211 203.031 374.928C203.487 374.645 203.865 374.239 204.127 373.749C204.388 373.26 204.524 372.706 204.521 372.142C204.517 371.579 204.374 371.026 204.107 370.541L154.133 279.776C153.653 278.906 152.969 278.184 152.149 277.683C151.328 277.182 150.399 276.918 149.454 276.918H86.2182C85.6905 276.918 85.1722 277.067 84.7157 277.349C84.2591 277.632 83.8807 278.039 83.6186 278.528C83.3566 279.017 83.2204 279.572 83.2237 280.136C83.227 280.7 83.3698 281.252 83.6376 281.738L133.615 372.499C134.094 373.371 134.778 374.093 135.598 374.595C136.419 375.097 137.348 375.361 138.294 375.361Z" fill="#6562CE"/>
<path d="M129.206 322.271L133.372 329.984C133.526 330.26 133.739 330.494 133.993 330.666C134.247 330.838 134.535 330.944 134.835 330.975H140.624C140.923 331.007 141.212 331.113 141.466 331.285C141.72 331.457 141.932 331.691 142.086 331.966L145.415 338.129C145.569 338.405 145.782 338.638 146.036 338.81C146.29 338.982 146.578 339.088 146.877 339.12H154.088C154.6 339.12 154.776 338.677 154.462 338.129L151.13 331.966C150.834 331.419 151.01 330.975 151.522 330.975H157.293C157.806 330.975 157.981 330.532 157.667 329.984L153.501 322.271C153.347 321.995 153.134 321.762 152.88 321.589C152.626 321.417 152.338 321.311 152.039 321.28H146.29C145.991 321.247 145.703 321.141 145.449 320.969C145.196 320.797 144.983 320.564 144.828 320.289L141.499 314.126C141.344 313.851 141.132 313.619 140.878 313.447C140.624 313.276 140.336 313.17 140.037 313.139H132.819C132.306 313.139 132.131 313.582 132.426 314.126L135.762 320.289C136.058 320.836 135.882 321.28 135.369 321.28H129.595C129.082 321.28 128.91 321.719 129.206 322.271Z" fill="#8281D8"/>
<path d="M104.103 311.396C103.542 313.978 103.328 315.169 101.342 315.912C99.2107 317.574 95.3585 317.986 90.4965 318.126C86.7303 318.238 87.5045 311.016 87.5045 311.016C86.2179 310.033 85.8065 307.02 86.5657 304.362C86.5657 304.362 84.0562 301.94 85.3465 297.66C85.3465 297.66 83.3269 294.99 84.1085 291.809C84.5499 290.027 89.6251 289.811 93.2603 289.743C95.7811 289.571 97.8119 289.511 98.8703 289.455C99.9923 289.395 101.361 291.877 101.2 295.382C101.907 296.245 102.339 297.325 102.435 298.467C102.666 301.481 103.979 306.061 103.478 309.098C103.265 310.129 104.207 310.928 104.103 311.396Z" fill="#E18C32"/>
<path d="M86.2998 290.982C88.7645 290.67 96.884 289.591 98.8326 289.456C101.585 289.264 102.819 295.274 99.3113 295.722C94.8816 296.873 90.3517 297.528 85.7949 297.676" stroke="#D97802" stroke-width="2" stroke-miterlimit="10" stroke-linecap="round"/>
<path d="M87.2051 304.263C98.9674 303.267 101.29 302.228 101.29 302.228C103.007 302.072 103.459 295.31 99.3115 295.722" stroke="#D97802" stroke-width="2" stroke-miterlimit="10" stroke-linecap="round"/>
<path d="M88.0283 310.929C99.1511 310.197 102.704 308.807 102.704 308.807C104.305 308.535 104.574 301.657 101.29 302.22" stroke="#D97802" stroke-width="2" stroke-miterlimit="10" stroke-linecap="round"/>
<path d="M99.7487 309.63C99.7487 309.63 103.395 308.119 104.001 310.625C105.078 315.081 100.261 316.596 90.2939 317.627" stroke="#D97802" stroke-width="2" stroke-miterlimit="10" stroke-linecap="round"/>
<path d="M194.244 265.584H166.68C165.85 265.584 165.177 266.304 165.177 267.191V283.393C165.177 284.28 165.85 284.999 166.68 284.999H194.244C195.074 284.999 195.748 284.28 195.748 283.393V267.191C195.748 266.304 195.074 265.584 194.244 265.584Z" fill="#E4EFFD"/>
<path d="M182.292 258.586H178.634V267.595H182.292V258.586Z" fill="#85C3D3"/>
<path d="M175.514 269.381H168.887V277.878H175.514V269.381Z" fill="white"/>
<path d="M191.824 269.381H177.616V271.347H191.824V269.381Z" fill="white"/>
<path d="M191.824 272.646H177.616V274.612H191.824V272.646Z" fill="white"/>
<path d="M191.824 275.911H177.616V277.878H191.824V275.911Z" fill="white"/>
<path d="M191.824 279.236H168.887V281.203H191.824V279.236Z" fill="white"/>
<path d="M230.971 268.13C229.426 267.57 228.126 266.427 227.315 264.914C226.504 263.401 226.239 261.624 226.569 259.917L231.102 237.793C233.421 226.846 244.364 220.608 254.54 224.436C264.721 228.261 269.598 240.446 264.99 250.533L255.558 270.82C254.814 272.367 253.568 273.571 252.054 274.206C250.539 274.842 248.859 274.866 247.33 274.273" stroke="#6562CE" stroke-width="3" stroke-miterlimit="10"/>
<path d="M233.599 265.986L232.259 265.484C231.393 265.159 230.445 265.646 230.141 266.571L230.14 266.575C229.836 267.5 230.291 268.514 231.157 268.838L232.497 269.341C233.363 269.666 234.311 269.179 234.615 268.254L234.616 268.25C234.92 267.325 234.465 266.311 233.599 265.986Z" stroke="#6562CE" stroke-width="4.98121" stroke-miterlimit="10"/>
<path d="M246.845 272.244L245.501 271.738C244.632 271.412 243.68 271.899 243.374 272.828L243.373 272.832C243.067 273.76 243.523 274.778 244.392 275.105L245.736 275.61C246.605 275.937 247.558 275.449 247.864 274.521L247.865 274.517C248.171 273.588 247.714 272.571 246.845 272.244Z" stroke="#6562CE" stroke-width="5" stroke-miterlimit="10"/>
<path d="M230.552 240.486C230.552 240.486 238.873 228.173 251.72 233.005C264.365 237.757 263.838 252.987 263.838 252.987" stroke="#6562CE" stroke-width="3" stroke-miterlimit="10"/>
<path d="M188.772 234.088C188.772 234.088 180.462 193.072 206.144 188.444" stroke="#6562CE" stroke-width="3" stroke-miterlimit="10" stroke-linecap="round"/>
<path d="M191.607 251.073C196.075 251.073 199.697 247.203 199.697 242.428C199.697 237.654 196.075 233.784 191.607 233.784C187.139 233.784 183.518 237.654 183.518 242.428C183.518 247.203 187.139 251.073 191.607 251.073Z" fill="white"/>
<path d="M191.525 251.109C195.993 251.109 199.615 247.239 199.615 242.464C199.615 237.69 195.993 233.82 191.525 233.82C187.057 233.82 183.436 237.69 183.436 242.464C183.436 247.239 187.057 251.109 191.525 251.109Z" stroke="#EFAF00" stroke-width="2" stroke-miterlimit="10"/>
<path d="M191.502 248.159C194.471 248.159 196.877 245.588 196.877 242.416C196.877 239.245 194.471 236.673 191.502 236.673C188.534 236.673 186.128 239.245 186.128 242.416C186.128 245.588 188.534 248.159 191.502 248.159Z" fill="#EFAF00"/>
<path d="M254.884 224.276C254.884 224.276 268.348 188.935 242.307 186.138" stroke="#6562CE" stroke-width="3" stroke-miterlimit="10" stroke-linecap="round"/>
<path d="M238.201 162.442C238.201 162.442 234.876 179.096 246.366 195.929C246.366 195.929 226.514 206.784 199.511 197.028C199.511 197.028 215.421 191.173 208.621 163.134L238.201 162.442Z" fill="#E18C32"/>
<path d="M237.558 162.453C237.577 163.56 237.577 164.483 237.558 165.151C237.558 165.151 236.387 177.784 230.298 184.006C225.567 188.838 210.907 193.774 206.146 191.316C210.049 182.526 210.926 172.546 208.621 163.133L237.558 162.453Z" fill="#D97802"/>
<path d="M237.95 164.952L237.905 163.533L237.711 157.207C237.711 157.207 231.48 157.463 233.698 147.447C236.121 136.513 232.06 131.397 221.498 135.738C213.857 138.875 206.59 141.377 201.511 136.973C200.578 136.15 199.769 135.178 199.114 134.091C196.272 129.483 197.524 129.071 202.106 126.046C207.847 122.265 214.179 114.516 228.402 117.725C239.764 120.291 240.347 130.494 240.347 130.494C240.347 130.494 247.162 128.864 248.691 136.489C250.632 146.061 237.95 164.952 237.95 164.952Z" fill="#40465C"/>
<path d="M240.019 130.862C240.019 130.862 243.616 127.117 247.349 129.587" stroke="#40465C" stroke-width="4" stroke-miterlimit="10"/>
<path d="M237.37 165.731C235.788 168.489 231.117 176.362 228.791 177.297C221.782 180.127 210.562 182.597 206.822 180.535C204.264 179.128 204.122 179.04 201.118 165.12C199.443 157.343 200.37 143.211 201.53 136.972C206.609 141.369 213.872 138.875 221.516 135.738C232.078 131.397 236.14 136.513 233.716 147.447C231.801 156.092 236.181 157.083 237.415 157.195C237.647 156.915 240.493 153.598 243.141 156.064C244.992 157.794 238.612 164.457 237.37 165.731Z" fill="#E18C32"/>
<path d="M204.645 155.532C205.719 155.532 206.59 154.602 206.59 153.454C206.59 152.306 205.719 151.376 204.645 151.376C203.571 151.376 202.7 152.306 202.7 153.454C202.7 154.602 203.571 155.532 204.645 155.532Z" fill="#40465C"/>
<path d="M220.739 155.532C221.813 155.532 222.684 154.602 222.684 153.454C222.684 152.306 221.813 151.376 220.739 151.376C219.665 151.376 218.794 152.306 218.794 153.454C218.794 154.602 219.665 155.532 220.739 155.532Z" fill="#40465C"/>
<path d="M212.073 151.592L209.369 163.557H213.872" stroke="#40465C" stroke-width="2" stroke-linecap="round" stroke-linejoin="round"/>
<path d="M212.125 171.41C212.125 171.41 217.511 172.797 219.904 167.202" stroke="#40465C" stroke-width="2" stroke-linecap="round" stroke-linejoin="round"/>
</g>
<defs>
<clipPath id="clip0">
<rect width="448" height="743" fill="white"/>
</clipPath>
</defs>
</svg>
