<svg width="64" height="64" viewBox="0 0 64 64" fill="none" xmlns="http://www.w3.org/2000/svg">
<path d="M57.2462 24.222C58.2192 21.594 58.5002 19.088 57.8012 16.839C57.4792 16.868 57.1452 16.883 56.8032 16.883C46.5612 16.883 28.4592 4.006 27.0892 2C21.4442 10.223 9.61217 16.545 4.26417 23.635C2.10017 26.504 1.01817 28.639 3.17117 31.921L25.7202 60.894C26.7372 62.271 28.7302 62.383 30.1492 61.113C30.1492 61.113 48.6412 37.384 62.0002 30.042C60.9962 28.081 59.3252 26.124 57.2462 24.222V24.222ZM25.3272 54.754L25.2332 54.819L25.1482 54.893C24.8035 55.2021 24.4973 55.5517 24.2362 55.934L4.69817 30.831C3.29117 28.654 3.69017 27.508 5.76117 24.764C8.11017 21.651 11.8642 18.629 15.8392 15.43C19.9712 12.104 24.2272 8.68 27.3532 4.784C32.5132 9.03 46.9462 18.405 56.2852 18.748C57.4052 29.745 34.6032 48.284 25.3272 54.754" fill="#31456A"/>
<path d="M19.9922 14.1581L45.1972 33.9081L46.0952 33.1041L20.6482 13.5701L19.9922 14.1581Z" fill="#31456A"/>
<path d="M28.2071 24.6711L17.8911 16.0391C17.8911 16.0391 14.3011 18.3311 9.95312 23.3581L19.1051 32.8201L28.2071 24.6711" fill="#31456A"/>
<path d="M5.60547 28.0599L25.0735 51.9209L28.6685 48.7039L7.91247 24.9729C7.91247 24.9729 6.10347 25.9519 5.60547 28.0599Z" fill="#31456A"/>
<path d="M27.4199 29.4279L38.7289 39.6979L42.3219 36.4809L30.5469 26.6289L27.4199 29.4279Z" fill="#31456A"/>
<path d="M21.166 35.027L31.543 46.131L35.135 42.915L24.293 32.228L21.166 35.027Z" fill="#31456A"/>
<path d="M27.856 10.7559L26.331 15.0379L27.287 15.7339L32.142 11.3869L31.192 10.7889L27.847 13.7839L29.326 9.60989L28.334 8.98389L23.707 13.1259L24.536 13.7289L27.856 10.7559Z" fill="#31456A"/>
<path d="M32.0124 19.179L32.9384 18.3479L30.1134 16.3399L31.3944 15.1939L33.9034 16.912L34.7944 16.113L32.2574 14.4189L33.3154 13.4729L36.1244 15.2899L37.0364 14.4749L33.1524 12.0229L28.2344 16.426L32.0124 19.179Z" fill="#31456A"/>
<path d="M35.0204 21.371L38.8594 19.046L40.1164 18.25L39.2824 19.328L36.8124 22.679L38.0054 23.548L45.3934 19.749L43.9914 18.864L39.9404 21.182L38.9064 21.808L39.6004 20.895L42.0014 17.608L40.6534 16.758L36.9084 19.079L35.9134 19.708L36.5984 18.837L38.8664 15.63L37.6024 14.832L33.9414 20.585L35.0204 21.371Z" fill="#31456A"/>
<path d="M48.9077 21.7049C47.9987 21.1339 47.1497 20.8609 46.3557 20.8769C45.5677 20.8939 44.9217 21.1309 44.4127 21.5869C43.8537 22.0869 43.6657 22.6059 43.8497 23.1439C43.9577 23.4669 44.3017 23.9339 44.8887 24.5519L45.4957 25.1899C45.8577 25.5659 46.0907 25.8739 46.1927 26.1099C46.2927 26.3489 46.2437 26.5579 46.0467 26.7339C45.7097 27.0349 45.2707 27.0919 44.7317 26.9079C44.3966 26.7808 44.0809 26.6074 43.7937 26.3929C43.2237 25.9869 42.9467 25.5959 42.9537 25.2189C42.9577 25.0129 43.0707 24.7769 43.2917 24.5109L41.9807 23.5969C41.3897 24.1259 41.1657 24.7159 41.3137 25.3709C41.4627 26.0319 41.9697 26.6839 42.8497 27.3259C43.7267 27.9689 44.5997 28.3129 45.4577 28.3509C46.3247 28.3879 47.0387 28.1599 47.5887 27.6649C48.1287 27.1829 48.3207 26.6649 48.1667 26.1139C48.0687 25.7609 47.7937 25.3499 47.3497 24.8819L46.3547 23.8319C45.9757 23.4359 45.7497 23.1609 45.6727 23.0039C45.5527 22.7649 45.5957 22.5539 45.8027 22.3699C46.0277 22.1679 46.3157 22.0859 46.6677 22.1209C47.0247 22.1559 47.3967 22.2989 47.7857 22.5489C48.1387 22.7769 48.3877 23.0129 48.5267 23.2569C48.7417 23.6249 48.6817 23.9799 48.3517 24.3169L49.8287 25.2899C50.4427 24.6979 50.6347 24.0709 50.4057 23.4119C50.1817 22.7589 49.6807 22.1889 48.9077 21.7049" fill="#31456A"/>
</svg>
