<svg width="374" height="554" viewBox="0 0 374 554" fill="none" xmlns="http://www.w3.org/2000/svg">
<path d="M379.395 11.9205L14.8145 73.458L93.3426 540.76L457.923 479.222L379.395 11.9205Z" fill="#292A2E"/>
<path opacity="0.58" d="M379.395 11.9205L14.8145 73.458L93.3426 540.76L457.923 479.222L379.395 11.9205Z" fill="white"/>
<path d="M364.89 5.56403L4.51562 85.4663L106.083 547.619L466.457 467.717L364.89 5.56403Z" fill="white"/>
<path d="M364.649 5.9471L466.08 467.472L106.323 547.236L4.89419 85.7111L364.651 5.94676L364.649 5.9471ZM365.131 5.18226L4.13629 85.2216L105.84 548.001L466.835 467.962L365.131 5.18226Z" fill="black"/>
<path d="M344.561 41.8243L180.076 78.2939L182.721 90.3266L347.206 53.857L344.561 41.8243Z" fill="#292A2E"/>
<path d="M351.883 74.5625L187.328 111.004L187.466 111.632L352.02 75.19L351.883 74.5625Z" fill="black"/>
<path d="M356.74 96.6592L192.186 133.101L192.323 133.728L356.878 97.2867L356.74 96.6592Z" fill="black"/>
<path d="M361.598 118.757L197.043 155.199L197.181 155.826L361.735 119.384L361.598 118.757Z" fill="black"/>
<path d="M366.453 140.854L201.898 177.295L202.036 177.923L366.591 141.481L366.453 140.854Z" fill="black"/>
<path d="M280.662 183.039L206.758 199.405L206.896 200.033L280.799 183.666L280.662 183.039Z" fill="black"/>
<path d="M378.901 198.079L72.4922 266.015L75.1366 278.048L381.545 210.111L378.901 198.079Z" fill="#292A2E"/>
<path d="M252.742 396.555L127.668 424.253L127.806 424.881L252.88 397.182L252.742 396.555Z" fill="black"/>
<path d="M258.459 422.56L133.385 450.259L133.523 450.886L258.597 423.187L258.459 422.56Z" fill="black"/>
<path d="M264.176 448.565L139.102 476.264L139.239 476.891L264.314 449.193L264.176 448.565Z" fill="black"/>
<path d="M269.889 474.571L144.814 502.27L144.952 502.897L270.027 475.199L269.889 474.571Z" fill="black"/>
<path d="M115.347 432.297C119.022 431.798 121.592 428.381 121.087 424.664C120.582 420.947 117.194 418.339 113.519 418.838C109.844 419.336 107.274 422.754 107.779 426.471C108.284 430.188 111.672 432.796 115.347 432.297Z" fill="#292A2E"/>
<path d="M132.866 512.022C136.541 511.523 139.111 508.105 138.607 504.388C138.102 500.671 134.714 498.063 131.039 498.562C127.364 499.061 124.794 502.478 125.298 506.195C125.803 509.912 129.191 512.521 132.866 512.022Z" fill="#292A2E"/>
<path d="M127.153 486.025C130.828 485.527 133.398 482.109 132.894 478.392C132.389 474.675 129.001 472.067 125.326 472.566C121.651 473.065 119.081 476.482 119.586 480.199C120.09 483.916 123.478 486.524 127.153 486.025Z" fill="#292A2E"/>
<path d="M121.249 459.161C124.924 458.663 127.494 455.245 126.989 451.528C126.485 447.811 123.097 445.203 119.422 445.702C115.747 446.201 113.177 449.618 113.681 453.335C114.186 457.052 117.574 459.66 121.249 459.161Z" fill="#292A2E"/>
<path d="M414.752 360.632L289.678 388.331L289.815 388.959L414.89 361.26L414.752 360.632Z" fill="black"/>
<path d="M420.469 386.638L295.395 414.337L295.532 414.964L420.607 387.266L420.469 386.638Z" fill="black"/>
<path d="M426.184 412.644L301.109 440.343L301.247 440.97L426.322 413.271L426.184 412.644Z" fill="black"/>
<path d="M431.899 438.65L306.824 466.348L306.962 466.976L432.036 439.277L431.899 438.65Z" fill="black"/>
<path d="M277.296 396.389C280.971 395.89 283.541 392.473 283.036 388.756C282.532 385.039 279.143 382.43 275.468 382.929C271.794 383.428 269.224 386.846 269.728 390.563C270.233 394.28 273.621 396.888 277.296 396.389Z" fill="#292A2E"/>
<path d="M294.817 476.114C298.492 475.615 301.062 472.197 300.558 468.48C300.053 464.763 296.665 462.155 292.99 462.654C289.315 463.153 286.745 466.57 287.25 470.287C287.754 474.004 291.143 476.613 294.817 476.114Z" fill="#292A2E"/>
<path d="M289.104 450.118C292.779 449.619 295.349 446.201 294.845 442.485C294.34 438.768 290.952 436.159 287.277 436.658C283.602 437.157 281.032 440.575 281.537 444.291C282.041 448.008 285.43 450.617 289.104 450.118Z" fill="#292A2E"/>
<path d="M283.2 423.254C286.875 422.755 289.445 419.337 288.941 415.621C288.436 411.904 285.048 409.295 281.373 409.794C277.698 410.293 275.128 413.711 275.632 417.427C276.137 421.144 279.525 423.753 283.2 423.254Z" fill="#292A2E"/>
<path d="M114.139 161.821C126.235 160.179 134.695 148.93 133.034 136.695C131.372 124.461 120.22 115.874 108.123 117.516C96.0268 119.159 87.5673 130.408 89.2284 142.643C90.8895 154.877 102.042 163.464 114.139 161.821Z" fill="#367CFF"/>
<path d="M173.409 186.881C169.131 195.716 162.937 203.457 155.286 209.53C147.636 215.603 138.725 219.851 129.216 221.959C119.706 224.068 109.843 223.982 100.358 221.708C90.873 219.435 82.0098 215.032 74.4266 208.827C78.507 199.801 84.6053 191.862 92.2422 185.633C99.879 179.404 108.846 175.055 118.439 172.928C128.032 170.801 137.988 170.954 147.526 173.375C157.064 175.796 165.923 180.419 173.407 186.881L173.409 186.881Z" fill="#367CFF"/>
<path d="M106.473 93.526C122.894 91.3148 139.543 95.6083 152.942 105.509C166.341 115.41 175.452 130.151 178.371 146.652C181.29 163.154 177.79 180.138 168.605 194.055C159.419 207.972 145.257 217.745 129.08 221.331C127.338 221.717 125.564 222.033 123.806 222.272C107.386 224.483 90.736 220.19 77.3372 210.289C63.9384 200.389 54.8274 185.647 51.9085 169.146C48.9897 152.644 52.4888 135.66 61.6746 121.743C70.8604 107.826 85.022 98.0535 101.199 94.4675C102.941 94.0813 104.714 93.7648 106.474 93.5259L106.473 93.526ZM106.387 92.8895C104.617 93.1299 102.838 93.4465 101.063 93.8399C92.7472 95.683 84.8769 99.1651 77.9016 104.087C70.9262 109.01 64.9824 115.276 60.4094 122.528C55.8365 129.78 52.724 137.876 51.2497 146.354C49.7753 154.832 49.9681 163.525 51.8169 171.938C55.3474 188.004 64.7157 202.16 78.0647 211.601C91.4137 221.042 107.769 225.078 123.888 222.909C125.659 222.669 127.434 222.352 129.213 221.958C137.528 220.114 145.398 216.632 152.373 211.709C159.348 206.787 165.291 200.521 169.864 193.269C174.436 186.017 177.549 177.921 179.023 169.443C180.497 160.966 180.304 152.273 178.455 143.86C174.925 127.795 165.556 113.638 152.207 104.198C138.858 94.7569 122.503 90.721 106.383 92.89L106.387 92.8895Z" fill="black"/>
<path d="M386.919 233.979L80.3809 301.864L80.5186 302.492L387.057 234.607L386.919 233.979Z" fill="black"/>
<path d="M391.627 255.986L85.209 323.88L85.3466 324.506L391.765 256.613L391.627 255.986Z" fill="black"/>
<path d="M396.482 278.076L90.0645 345.969L90.2021 346.596L396.62 278.703L396.482 278.076Z" fill="black"/>
<path d="M401.337 300.165L94.918 368.059L95.0556 368.685L401.474 300.791L401.337 300.165Z" fill="black"/>
<path d="M173.716 373.917L99.8125 390.284L99.9502 390.911L173.854 374.545L173.716 373.917Z" fill="black"/>
<path d="M42.5673 55.6075C44.9891 55.6385 47.3086 56.6126 49.0428 58.3271C50.777 60.0416 51.7922 62.3642 51.8772 64.8115L53.4683 101.215C53.5589 103.124 52.8965 104.988 51.6267 106.399C50.3568 107.81 48.5834 108.651 46.6961 108.739C44.8681 108.781 43.0945 108.096 41.7561 106.832C40.4178 105.568 39.6214 103.826 39.538 101.979L37.9031 64.5492C37.8385 63.3781 38.2058 62.2258 38.9338 61.3151C39.6619 60.4044 40.699 59.8001 41.8444 59.6191C42.4787 59.5311 43.1245 59.578 43.7406 59.7568C44.3567 59.9356 44.9295 60.2423 45.4223 60.6574C45.9151 61.0724 46.3171 61.5866 46.6026 62.1671C46.8881 62.7476 47.0507 63.3816 47.0801 64.0285L48.2282 90.3022C48.2419 90.6186 48.1308 90.9271 47.9193 91.16C47.7079 91.3929 47.4133 91.5311 47.1004 91.5442C46.9454 91.5506 46.7905 91.5261 46.6446 91.4719C46.4988 91.4178 46.3648 91.3352 46.2504 91.2287C46.136 91.1223 46.0435 90.9942 45.978 90.8517C45.9125 90.7092 45.8755 90.5551 45.8689 90.3983L44.7253 64.2283C44.7101 63.6551 44.4861 63.1071 44.0964 62.6894C43.7067 62.2717 43.1786 62.0136 42.6134 61.9646C42.3017 61.9465 41.9899 61.9945 41.698 62.1056C41.4061 62.2167 41.1406 62.3883 40.9186 62.6095C40.6966 62.8307 40.523 63.0966 40.4089 63.39C40.2948 63.6835 40.2428 63.998 40.2562 64.3133L41.8912 101.744C41.9291 102.921 42.3973 104.043 43.2054 104.893C44.0135 105.744 45.1039 106.262 46.2656 106.347C46.9081 106.382 47.5504 106.282 48.1514 106.051C48.7524 105.821 49.2988 105.466 49.7557 105.01C50.2125 104.553 50.5697 104.005 50.8043 103.4C51.0389 102.795 51.1459 102.147 51.1182 101.497L49.5178 64.8642C49.4427 62.9765 48.6295 61.194 47.2569 59.9081C45.8844 58.6223 44.0647 57.9383 42.1978 58.0065C40.3933 58.1148 38.705 58.9345 37.4956 60.2896C36.2863 61.6446 35.6524 63.4268 35.7302 65.2532L37.1026 96.6809C37.1094 96.8375 37.0857 96.9938 37.0328 97.141C36.9798 97.2881 36.8987 97.4232 36.794 97.5384C36.6893 97.6537 36.5632 97.7469 36.4227 97.8128C36.2822 97.8786 36.1302 97.9158 35.9753 97.9222C35.8204 97.9287 35.6657 97.9043 35.5199 97.8504C35.3742 97.7965 35.2402 97.7141 35.1258 97.6079C35.0115 97.5017 34.9188 97.3739 34.8532 97.2316C34.7876 97.0894 34.7503 96.9355 34.7435 96.7789L33.3705 65.3513C33.317 64.0932 33.5149 62.838 33.9521 61.6605C34.3894 60.483 35.0572 59.4074 35.9156 58.4979C36.7741 57.5884 37.8055 56.8638 38.9484 56.3671C40.0912 55.8705 41.322 55.6122 42.5673 55.6075Z" fill="#367CFF"/>
</svg>
