<svg width="34" height="34" viewBox="0 0 34 34" fill="none" xmlns="http://www.w3.org/2000/svg">
<path d="M17 2.125C8.78555 2.125 2.125 8.78555 2.125 17C2.125 25.2145 8.78555 31.875 17 31.875C25.2145 31.875 31.875 25.2145 31.875 17C31.875 8.78555 25.2145 2.125 17 2.125ZM24.1486 13.3377C24.1586 13.4938 24.1586 13.6564 24.1586 13.8158C24.1586 18.69 20.4465 24.3047 13.6631 24.3047C11.5713 24.3047 9.63223 23.6971 7.99863 22.6512C8.29746 22.6844 8.58301 22.6977 8.88848 22.6977C10.615 22.6977 12.2021 22.1133 13.4672 21.1238C11.8469 21.0906 10.4855 20.0281 10.0207 18.5672C10.5885 18.6502 11.0998 18.6502 11.6842 18.5008C10.8499 18.3313 10.1 17.8782 9.56189 17.2184C9.0238 16.5587 8.73072 15.733 8.73242 14.8816V14.8352C9.22051 15.1107 9.79492 15.2801 10.3959 15.3033C9.89069 14.9666 9.47636 14.5105 9.18967 13.9753C8.90297 13.4401 8.75275 12.8425 8.75234 12.2354C8.75234 11.548 8.93164 10.9205 9.25371 10.376C10.1798 11.516 11.3353 12.4483 12.6453 13.1125C13.9553 13.7766 15.3903 14.1577 16.8572 14.2309C16.3359 11.724 18.2086 9.69531 20.4598 9.69531C21.5223 9.69531 22.4785 10.1402 23.1525 10.8574C23.9859 10.7014 24.7828 10.3893 25.4934 9.9709C25.2178 10.8242 24.64 11.5447 23.873 11.9996C24.6168 11.9199 25.334 11.7141 25.998 11.4252C25.4967 12.1623 24.8691 12.8164 24.1486 13.3377Z" fill="#31456A"/>
</svg>
